<?xml version="1.0" encoding="UTF-8"?>
<svg id="Layer_1" xmlns="http://www.w3.org/2000/svg" version="1.1" viewBox="0 0 72 72">
  <!-- Generator: Adobe Illustrator 30.2.1, SVG Export Plug-In . SVG Version: 2.1.1 Build 1)  -->
  <rect x="24.12" y="24.57" width="23.43" height="23.43" fill="none" stroke="#101010" stroke-miterlimit="10" stroke-width="1.65"/>
  <rect x="28.36" y="28.81" width="14.94" height="14.94" fill="none" stroke="#101010" stroke-miterlimit="10" stroke-width="1.65"/>
  <g>
    <line x1="24.12" y1="28.26" x2="19.68" y2="28.26" fill="none" stroke="#101010" stroke-miterlimit="10" stroke-width="1.65"/>
    <line x1="24.12" y1="33.75" x2="19.68" y2="33.75" fill="none" stroke="#101010" stroke-miterlimit="10" stroke-width="1.65"/>
    <line x1="24.12" y1="39.24" x2="19.68" y2="39.24" fill="none" stroke="#101010" stroke-miterlimit="10" stroke-width="1.65"/>
    <line x1="24.12" y1="44.73" x2="19.68" y2="44.73" fill="none" stroke="#101010" stroke-miterlimit="10" stroke-width="1.65"/>
  </g>
  <g>
    <line x1="52.18" y1="28.26" x2="47.74" y2="28.26" fill="none" stroke="#101010" stroke-miterlimit="10" stroke-width="1.65"/>
    <line x1="52.18" y1="33.75" x2="47.74" y2="33.75" fill="none" stroke="#101010" stroke-miterlimit="10" stroke-width="1.65"/>
    <line x1="52.18" y1="39.24" x2="47.74" y2="39.24" fill="none" stroke="#101010" stroke-miterlimit="10" stroke-width="1.65"/>
    <line x1="52.18" y1="44.73" x2="47.74" y2="44.73" fill="none" stroke="#101010" stroke-miterlimit="10" stroke-width="1.65"/>
  </g>
  <g>
    <line x1="44.16" y1="24.68" x2="44.16" y2="20.25" fill="none" stroke="#101010" stroke-miterlimit="10" stroke-width="1.65"/>
    <line x1="38.67" y1="24.68" x2="38.67" y2="20.25" fill="none" stroke="#101010" stroke-miterlimit="10" stroke-width="1.65"/>
    <line x1="33.18" y1="24.68" x2="33.18" y2="20.25" fill="none" stroke="#101010" stroke-miterlimit="10" stroke-width="1.65"/>
    <line x1="27.69" y1="24.68" x2="27.69" y2="20.25" fill="none" stroke="#101010" stroke-miterlimit="10" stroke-width="1.65"/>
  </g>
  <g>
    <line x1="44.16" y1="52.75" x2="44.16" y2="48.31" fill="none" stroke="#101010" stroke-miterlimit="10" stroke-width="1.65"/>
    <line x1="38.67" y1="52.75" x2="38.67" y2="48.31" fill="none" stroke="#101010" stroke-miterlimit="10" stroke-width="1.65"/>
    <line x1="33.18" y1="52.75" x2="33.18" y2="48.31" fill="none" stroke="#101010" stroke-miterlimit="10" stroke-width="1.65"/>
    <line x1="27.69" y1="52.75" x2="27.69" y2="48.31" fill="none" stroke="#101010" stroke-miterlimit="10" stroke-width="1.65"/>
  </g>
</svg>