<?xml version="1.0" encoding="UTF-8"?>
<svg id="Layer_1" xmlns="http://www.w3.org/2000/svg" version="1.1" viewBox="0 0 72 72">
  <!-- Generator: Adobe Illustrator 30.2.1, SVG Export Plug-In . SVG Version: 2.1.1 Build 1)  -->
  <rect x="26.2" y="30.38" width="19.44" height="19.44" fill="none" stroke="#101010" stroke-miterlimit="10" stroke-width="1.65"/>
  <rect x="30.62" y="34.81" width="10.59" height="10.59" fill="none" stroke="#101010" stroke-miterlimit="10" stroke-width="1.65"/>
  <g>
    <line x1="26.2" y1="33.45" x2="22.52" y2="33.45" fill="none" stroke="#101010" stroke-miterlimit="10" stroke-width="1.65"/>
    <line x1="26.2" y1="38" x2="22.52" y2="38" fill="none" stroke="#101010" stroke-miterlimit="10" stroke-width="1.65"/>
    <line x1="26.2" y1="42.56" x2="22.52" y2="42.56" fill="none" stroke="#101010" stroke-miterlimit="10" stroke-width="1.65"/>
    <line x1="26.2" y1="47.11" x2="22.52" y2="47.11" fill="none" stroke="#101010" stroke-miterlimit="10" stroke-width="1.65"/>
  </g>
  <g>
    <line x1="49.48" y1="33.45" x2="45.8" y2="33.45" fill="none" stroke="#101010" stroke-miterlimit="10" stroke-width="1.65"/>
    <line x1="49.48" y1="38" x2="45.8" y2="38" fill="none" stroke="#101010" stroke-miterlimit="10" stroke-width="1.65"/>
    <line x1="49.48" y1="42.56" x2="45.8" y2="42.56" fill="none" stroke="#101010" stroke-miterlimit="10" stroke-width="1.65"/>
    <line x1="49.48" y1="47.11" x2="45.8" y2="47.11" fill="none" stroke="#101010" stroke-miterlimit="10" stroke-width="1.65"/>
  </g>
  <g>
    <line x1="42.83" y1="53.76" x2="42.83" y2="50.08" fill="none" stroke="#101010" stroke-miterlimit="10" stroke-width="1.65"/>
    <line x1="38.28" y1="53.76" x2="38.28" y2="50.08" fill="none" stroke="#101010" stroke-miterlimit="10" stroke-width="1.65"/>
    <line x1="33.72" y1="53.76" x2="33.72" y2="50.08" fill="none" stroke="#101010" stroke-miterlimit="10" stroke-width="1.65"/>
    <line x1="29.17" y1="53.76" x2="29.17" y2="50.08" fill="none" stroke="#101010" stroke-miterlimit="10" stroke-width="1.65"/>
  </g>
  <path d="M42.83,29.98v-6.09c0-3.77-3.06-6.83-6.83-6.83s-6.83,3.06-6.83,6.83v6.09" fill="none" stroke="#101010" stroke-miterlimit="10" stroke-width="1.65"/>
</svg>