<?xml version="1.0" encoding="UTF-8"?>
<svg id="Layer_1" xmlns="http://www.w3.org/2000/svg" version="1.1" viewBox="0 0 72 72">
  <!-- Generator: Adobe Illustrator 30.2.1, SVG Export Plug-In . SVG Version: 2.1.1 Build 1)  -->
  <path d="M42.79,50.12l-7.22-5.63c-1.34,1.19-2.98,1.64-4.71,1-1.43-.53-2.57-1.96-2.78-3.69l-3.9-.12c-.43,1.08-1.36,1.65-2.44,1.57s-2.02-.83-2.18-1.96c-.14-.98.29-1.83,1.11-2.41-.25-.82-.37-1.74-.76-2.54-.47-.2-1.2-.26-1.67-.6-1.15-.84-1.64-2.14-1.2-3.53.37-1.16,1.5-2,2.93-2.04,1.26-3.72,3.7-5.41,6.86-7.03.37-1.2.92-2.62,2.36-2.91,1.54-.32,2.75.5,3.54,1.74,1.85.02,3.85-.32,5.72-.03.2.03.49-2.17,2.69-2.39.96-.09,1.83.21,2.48.82,1.45,1.36.57,2.78,1.12,2.96,2.23.72,3.99,2.61,5.41,4.23,1.12-.04,2.49-.02,3.01,1.22.44,1.07.21,2.41-.97,3.07-.21.12-.27.39-.22.66l.43,2.61c1.32.2,2.39,1.17,2.61,2.46s-.42,2.46-1.37,3.06c-1.09.69-2.48.65-3.45-.19-.27-.23-.44-.42-.8-.2l-2.9,1.76c.38,1.54-.3,3.01-1.78,3.64.28.96.24,1.96.6,2.81.62.32,1.42.6,1.75,1.21.41.77.5,1.61.1,2.38-.62,1.18-1.9,1.48-2.99,1.08-1.26-.46-1.46-1.78-1.39-3.01h.01ZM43.29,22.52c0-.97-.78-1.75-1.75-1.75s-1.75.78-1.75,1.75.78,1.75,1.75,1.75,1.75-.78,1.75-1.75ZM31.71,23.16c0-.96-.78-1.74-1.74-1.74s-1.74.78-1.74,1.74.78,1.74,1.74,1.74,1.74-.78,1.74-1.74ZM37.26,29.1l2.07-3.8c.48-.88-.24-.55-.74-2.16-1.9-.18-3.74-.15-5.59.09-.1,1.62-1.07,1.62-.47,2.42l2.63,3.51c.67-.24,1.31-.28,2.11-.06h-.01ZM48.81,30.66c-.63-2.01.77-1.73,0-2.72-1.28-1.62-2.83-2.88-4.76-3.62l-1.17,1.01,1.66,6.32c.79.05,1.44.31,2.05.81l2.24-1.79h-.02ZM26.01,30.29c-.11-1.55.89-2.48,2.22-2.59.11-.56.46-1.26.36-1.81-.41-.46-1.01-.83-1.3-1.46-2.64.93-5.31,3.4-6.06,6.01.47.34.83.67,1.22,1.13l3.57-1.27h-.01ZM42.03,32.99c.65-.84,1.35-.85,1.21-1.38l-1.57-5.95c-.1-.25-.95-.31-1.1-.08l-2.23,4.15c1.25.99.84,2.5,1.2,2.58.82.19,1.62.73,2.49.67h0ZM31.47,37.13c.8-.13,1.38-.08,2.1.03.37-.89.76-1.72,1.07-2.66.07-.2-.29-.4-.39-.5-.97-.99-1.1-2.5-.36-3.66.13-.2.29-.41.12-.64l-2.78-3.8c-.41.23-1.03.15-1.29.37-.28.53-.32,1.12-.44,1.69.66.47,1.14,1.13,1.21,1.79.19,1.76-1.17,2.02-.99,2.53l1.74,4.86h.01ZM52.14,29.83c0-.62-.5-1.12-1.12-1.12s-1.12.5-1.12,1.12.5,1.12,1.12,1.12,1.12-.5,1.12-1.12ZM29.47,30.06c0-.62-.5-1.12-1.12-1.12s-1.12.5-1.12,1.12.5,1.12,1.12,1.12,1.12-.5,1.12-1.12ZM38.13,31.96c0-.96-.77-1.73-1.73-1.73s-1.73.77-1.73,1.73.77,1.73,1.73,1.73,1.73-.77,1.73-1.73ZM21.65,33.2c0-.97-.79-1.76-1.76-1.76s-1.76.79-1.76,1.76.79,1.76,1.76,1.76,1.76-.79,1.76-1.76ZM30.31,37.56l-1.77-5.08c-1.84-.06-1.78-1.15-2.43-.92l-3.16,1.12-.15,1.63,6.02,4.01c.52.35.88-.22,1.49-.76ZM45.92,40.79l3.25-1.75c-.4-1.48.22-2.94,1.58-3.64.2-.1.4-.27.35-.54-.16-.91-.21-1.76-.43-2.63l-1.15-.51-2.23,1.71c.33.94.41,1.84-.14,2.73-1.01,1.64-2.28,1.09-2.31,1.77-.04.74-.24,1.35-.19,2.08.45.05.86.66,1.27.78h0ZM46.29,34.68c0-.96-.78-1.73-1.73-1.73s-1.73.78-1.73,1.73.78,1.73,1.73,1.73,1.73-.78,1.73-1.73ZM36.49,38.56l5.18-2.96-.1-1.32-2.01-.67c-.13-.04-.51-.2-.61-.06-.74,1.03-1.84,1.52-3.1,1.36l-1.11,2.77c1.07.83.9,1.36,1.75.88h0ZM24.64,40.5l3.49.07c.14-.33.35-.74.28-1.09l-6.3-4.16-.95.68.74,2.57c2.52.29,1.73,1.9,2.74,1.92h0ZM53.82,38.11c0-.97-.79-1.76-1.76-1.76s-1.76.79-1.76,1.76.79,1.76,1.76,1.76,1.76-.79,1.76-1.76ZM43.38,39.81c.02-.84.27-1.49.2-2.19-.01-.14-1.01-.66-1.36-.95l-5.68,3.24.3,1.53,3.97.49c.41-1.19,1.37-1.87,2.58-2.11h-.01ZM35.52,41.44c0-1.71-1.38-3.09-3.09-3.09s-3.09,1.38-3.09,3.09,1.38,3.09,3.09,3.09,3.09-1.38,3.09-3.09ZM23,40.93c0-.61-.5-1.11-1.11-1.11s-1.11.5-1.11,1.11.5,1.11,1.11,1.11,1.11-.5,1.11-1.11ZM45.35,42.86c0-.96-.78-1.73-1.73-1.73s-1.73.78-1.73,1.73.78,1.73,1.73,1.73,1.73-.78,1.73-1.73ZM43.59,46.28c-.16-.88-2.44-.08-2.94-3.15l-3.95-.47c-.2.12-.45.76-.3.93l6.92,5.31c.18.14.41.02.53-.05.11-.06.17-.22.13-.45l-.39-2.12ZM46.2,50.96c0-.61-.5-1.11-1.11-1.11s-1.11.5-1.11,1.11.5,1.11,1.11,1.11,1.11-.5,1.11-1.11Z" fill="#101010"/>
</svg>