<?xml version="1.0" encoding="UTF-8"?>
<svg id="Layer_1" xmlns="http://www.w3.org/2000/svg" version="1.1" viewBox="0 0 72 72">
  <!-- Generator: Adobe Illustrator 30.2.1, SVG Export Plug-In . SVG Version: 2.1.1 Build 1)  -->
  <rect x="26.13" y="31.88" width="19.44" height="19.44" fill="none" stroke="#101010" stroke-miterlimit="10" stroke-width="1.65"/>
  <rect x="30.55" y="36.31" width="10.59" height="10.59" fill="none" stroke="#101010" stroke-miterlimit="10" stroke-width="1.65"/>
  <g>
    <line x1="26.13" y1="34.95" x2="22.45" y2="34.95" fill="none" stroke="#101010" stroke-miterlimit="10" stroke-width="1.65"/>
    <line x1="26.13" y1="39.5" x2="22.45" y2="39.5" fill="none" stroke="#101010" stroke-miterlimit="10" stroke-width="1.65"/>
    <line x1="26.13" y1="44.06" x2="22.45" y2="44.06" fill="none" stroke="#101010" stroke-miterlimit="10" stroke-width="1.65"/>
    <line x1="26.13" y1="48.61" x2="22.45" y2="48.61" fill="none" stroke="#101010" stroke-miterlimit="10" stroke-width="1.65"/>
  </g>
  <g>
    <line x1="49.41" y1="34.95" x2="45.73" y2="34.95" fill="none" stroke="#101010" stroke-miterlimit="10" stroke-width="1.65"/>
    <line x1="49.41" y1="39.5" x2="45.73" y2="39.5" fill="none" stroke="#101010" stroke-miterlimit="10" stroke-width="1.65"/>
    <line x1="49.41" y1="44.06" x2="45.73" y2="44.06" fill="none" stroke="#101010" stroke-miterlimit="10" stroke-width="1.65"/>
    <line x1="49.41" y1="48.61" x2="45.73" y2="48.61" fill="none" stroke="#101010" stroke-miterlimit="10" stroke-width="1.65"/>
  </g>
  <g>
    <line x1="42.76" y1="55.26" x2="42.76" y2="51.58" fill="none" stroke="#101010" stroke-miterlimit="10" stroke-width="1.65"/>
    <line x1="38.21" y1="55.26" x2="38.21" y2="51.58" fill="none" stroke="#101010" stroke-miterlimit="10" stroke-width="1.65"/>
    <line x1="33.65" y1="55.26" x2="33.65" y2="51.58" fill="none" stroke="#101010" stroke-miterlimit="10" stroke-width="1.65"/>
    <line x1="29.1" y1="55.26" x2="29.1" y2="51.58" fill="none" stroke="#101010" stroke-miterlimit="10" stroke-width="1.65"/>
  </g>
  <path d="M42.76,31.48v-6.09c0-3.77-3.06-6.83-6.83-6.83s-6.83,3.06-6.83,6.83v6.09" fill="none" stroke="#101010" stroke-miterlimit="10" stroke-width="1.65"/>
</svg>