<?xml version="1.0" encoding="UTF-8"?>
<svg id="Layer_1" xmlns="http://www.w3.org/2000/svg" version="1.1" viewBox="0 0 72 72">
  <!-- Generator: Adobe Illustrator 30.2.1, SVG Export Plug-In . SVG Version: 2.1.1 Build 1)  -->
  <g>
    <path d="M28.82,56.76h-12.87c-.67,0-1-.68-1-1.25v-12.23c0-.66.48-1.04,1.12-1.04l11.8.02c.44,0,.66-.14.91-.46l6.97-9.09c.73,1.19.85,2.64,1.5,3.63l4.86-6.7v-12.1c0-.92.58-1.3,1.44-1.3l12.22.02c.74,0,1.13.58,1.13,1.28v12.23c0,.52-.38.99-.92.99l-12.22.03c-.19,0-.39.08-.48.21l-1.8,2.48-4.67,6.46-1.38-3.39c-.04-.1-.22-.28-.3-.17l-5.31,6.95-.02,12.38c0,.48-.34,1.04-.98,1.04h0ZM55.12,18h-11.26v11.06h11.26v-11.06ZM27.99,43.98h-11.28v11.08h11.28v-11.08Z" fill="#101010"/>
    <path d="M41.11,44.25c-.35.31-.94-.63-1.16-.92l2.19-2.31c-.26-.48-2.03-1.92-2.08-2.34-.03-.3.8-1.2,1.09-1.01.88.59,1.4,1.46,2.24,2.09l2-1.98c.16-.15.44-.2.61-.06.31.24.54.55.77.92l-2.18,2.31,2.18,2.38c-.22.37-.66.93-1.09,1.01-.84-.55-1.44-1.41-2.25-2.11l-2.32,2.03h0Z" fill="#101010"/>
  </g>
  <circle cx="49.54" cy="23.5" r="1.74" fill="#101010"/>
  <circle cx="22.35" cy="49.48" r="1.75" fill="#101010"/>
</svg>