<?xml version="1.0" encoding="UTF-8"?>
<svg id="Layer_1" xmlns="http://www.w3.org/2000/svg" version="1.1" viewBox="0 0 72 72">
  <!-- Generator: Adobe Illustrator 30.2.1, SVG Export Plug-In . SVG Version: 2.1.1 Build 1)  -->
  <rect x="44.57" y="16.47" width="11.39" height="11.39" fill="none" stroke="#101010" stroke-miterlimit="10" stroke-width="2"/>
  <rect x="15.9" y="45.14" width="11.39" height="11.39" fill="none" stroke="#101010" stroke-miterlimit="10" stroke-width="2"/>
  <circle cx="50.26" cy="22.16" r="1.55" fill="#101010"/>
  <circle cx="21.6" cy="50.83" r="1.55" fill="#101010"/>
  <g>
    <path d="M43.52,39.72c-3.17,3.17-8.3,3.17-11.47,0s-3.17-8.3,0-11.47l11.47,11.47Z" fill="none" stroke="#101010" stroke-miterlimit="10" stroke-width="2"/>
    <line x1="37.79" y1="33.99" x2="41.09" y2="30.68" fill="none" stroke="#101010" stroke-miterlimit="10" stroke-width="2"/>
    <line x1="39.72" y1="43.13" x2="32.32" y2="43.13" fill="none" stroke="#101010" stroke-miterlimit="10" stroke-width="2"/>
    <line x1="38.02" y1="42.1" x2="32.32" y2="42.1" fill="none" stroke="#101010" stroke-miterlimit="10" stroke-width="2"/>
    <line x1="39.72" y1="44.14" x2="32.32" y2="44.14" fill="none" stroke="#101010" stroke-miterlimit="10" stroke-width="2"/>
  </g>
  <path d="M55.96,36.41c0,10.93-8.86,19.79-19.79,19.79" fill="none" stroke="#101010" stroke-miterlimit="10" stroke-width="2"/>
  <path d="M16.38,36.41c0-10.93,8.86-19.79,19.79-19.79" fill="none" stroke="#101010" stroke-miterlimit="10" stroke-width="2"/>
</svg>