<?xml version="1.0" encoding="UTF-8"?>
<svg id="Layer_1" xmlns="http://www.w3.org/2000/svg" version="1.1" viewBox="0 0 72 72">
  <!-- Generator: Adobe Illustrator 30.2.1, SVG Export Plug-In . SVG Version: 2.1.1 Build 1)  -->
  <path d="M57.11,26.49c-4.12.4-8.39,1.31-11.95,2.55-3.83,1.33-2,.28-3.23.27l-6.57-.03v-6.1c0-.34.24-.54.4-.76.62-.82.23-1.82-.51-2.31-.79-.52-1.55-.16-2.13.48-.74.82.02,1.41.21,2.25.47,2.06,0,4.27.19,6.43l-6.36.05c-.66,0-1.2.56-1.2,1.25l.02,8.15c0,.46-.18.74-.51.98-1.46,1.05-2.65,2.25-3.87,3.57-3.04,3.28-5.52,6.89-7.15,10.87.56.68,1.03,1.43,1.39,2.23,1.9-5.58,5.42-10.32,10.02-14.35.49,1.36-.71,3.91,1.44,3.91h14.41c.8-.01,1.26-.53,1.26-1.31v-12.58c4.85-2.03,9.39-3.09,14.45-3.55-.12-.67-.22-1.33-.31-2h0ZM40.87,43.97h-12.88v-12.67h12.88v12.67Z" fill="#101010"/>
  <path d="M29.86,25.72c-.25.27-.43.41-.6.4-.8-.02-2.82-3.19-1.88-6.58.28-1.02.72-2.04,1.59-2.66.36-.26.74.17.88.37.19.28.05.7-.17,1.02-1.38,2.01-1.33,4.56.15,6.48.21.27.33.64.03.98h0Z" fill="#101010"/>
  <path d="M40.61,17.67c2.68,4.1-.21,9.38-1.45,8.24-.34-.31-.44-.7-.1-1.15,1.48-1.95,1.45-4.45.08-6.46-.18-.26-.26-.61-.19-.86.06-.23.36-.62.74-.56s.7.46.93.8h0Z" fill="#101010"/>
  <path d="M32.08,19.62c-1.73,2.74.82,3.47-.19,4.46-.27.26-.73.24-1.06-.16-1.29-1.54-1.28-4.01.37-5.33.33-.27,1.11.67.88,1.03Z" fill="#101010"/>
  <path d="M37.66,24.22c-.35.22-.59-.01-.71-.14-.18-.18-.35-.56-.17-.83,1.43-2.14-.29-3.35.02-4.03.11-.25.59-.81.87-.6,1.64,1.24,1.64,4.57-.01,5.6h0Z" fill="#101010"/>
  <circle cx="34.44" cy="37.62" r="1.99" fill="#101010"/>
</svg>