<?xml version="1.0" encoding="UTF-8"?>
<svg id="Layer_1" xmlns="http://www.w3.org/2000/svg" version="1.1" viewBox="0 0 72 72">
  <!-- Generator: Adobe Illustrator 30.2.1, SVG Export Plug-In . SVG Version: 2.1.1 Build 1)  -->
  <path d="M36.75,54.06h7.2v-5.19c-1.88,1.86-4.4,3.06-7.2,3.26v1.94Z" fill="none"/>
  <path d="M27.91,54.06h7.2v-1.94c-2.8-.2-5.32-1.4-7.2-3.26v5.19Z" fill="none"/>
  <rect x="45.61" y="48.63" width="7.2" height="5.43" fill="none"/>
  <rect x="19.06" y="48.63" width="7.2" height="5.43" fill="none"/>
  <rect x="45.61" y="27.39" width="7.2" height="5.43" fill="none"/>
  <path d="M24.53,41.56h-5.48v5.43h7.2v-.18c-.97-1.54-1.58-3.33-1.72-5.25Z" fill="none"/>
  <path d="M47.33,39.91h5.48v-5.43h-7.2v.18c.97,1.54,1.58,3.33,1.72,5.25Z" fill="none"/>
  <path d="M45.61,46.98h7.2v-5.43h-5.48c-.14,1.92-.75,3.71-1.72,5.25v.18Z" fill="none"/>
  <path d="M26.25,34.48h-7.2v5.43h5.48c.14-1.92.75-3.71,1.72-5.25v-.18Z" fill="none"/>
  <path d="M43.96,27.39h-7.2v1.95c2.8.2,5.32,1.4,7.2,3.26v-5.2Z" fill="none"/>
  <path d="M35.1,27.39h-7.2v5.2c1.88-1.86,4.4-3.06,7.2-3.26v-1.95Z" fill="none"/>
  <rect x="19.06" y="27.39" width="7.2" height="5.43" fill="none"/>
  <polygon points="26.25 32.81 19.06 32.81 19.06 27.39 26.25 27.39 26.25 25.73 17.4 25.73 17.4 32.82 26.25 32.82 26.25 32.81" fill="#101010"/>
  <polygon points="19.06 34.48 26.25 34.48 26.25 34.47 17.4 34.47 17.4 39.91 19.06 39.91 19.06 34.48" fill="#101010"/>
  <rect x="17.4" y="32.82" width="8.85" height="1.64" fill="#101010"/>
  <rect x="17.4" y="41.56" width="1.65" height="5.43" fill="#101010"/>
  <path d="M24.53,41.56c-.02-.27-.04-.55-.04-.83s.02-.55.04-.83h-7.13v1.65h7.13Z" fill="#101010"/>
  <rect x="27.91" y="25.73" width="7.2" height="1.65" fill="#101010"/>
  <path d="M26.25,32.81h0s1.43,0,1.43,0c.08-.08.15-.16.22-.24v-6.85h-1.65v7.08Z" fill="#101010"/>
  <path d="M26.37,34.47h-.11v.19c.04-.06.07-.13.11-.19Z" fill="#101010"/>
  <path d="M27.68,32.82h-1.43v1.64h.11c.39-.59.83-1.13,1.31-1.64Z" fill="#101010"/>
  <path d="M26.25,46.81v.18h.11c-.04-.06-.07-.12-.11-.18Z" fill="#101010"/>
  <rect x="36.75" y="25.73" width="7.2" height="1.65" fill="#101010"/>
  <path d="M35.1,29.33c.27-.02.55-.04.83-.04s.55.02.82.04v-3.6h-1.65v3.6Z" fill="#101010"/>
  <polygon points="19.06 54.06 19.06 48.63 17.4 48.63 17.4 55.71 26.25 55.71 26.25 54.06 19.06 54.06" fill="#101010"/>
  <polygon points="26.25 48.63 26.25 46.98 19.06 46.98 17.4 46.98 17.4 48.63 19.06 48.63 26.25 48.63" fill="#101010"/>
  <rect x="27.91" y="54.06" width="7.2" height="1.65" fill="#101010"/>
  <path d="M27.91,48.87c-.08-.08-.15-.16-.22-.24h-1.43v7.08h1.65v-6.84Z" fill="#101010"/>
  <path d="M26.25,46.98v1.65h1.43c-.49-.51-.93-1.06-1.32-1.65h-.11Z" fill="#101010"/>
  <rect x="36.75" y="54.06" width="7.2" height="1.65" fill="#101010"/>
  <path d="M36.75,52.13c-.27.02-.55.04-.82.04s-.55-.02-.83-.04v3.59h1.65v-3.59Z" fill="#101010"/>
  <polygon points="45.61 27.39 52.8 27.39 52.8 32.81 45.61 32.81 45.61 32.82 54.46 32.82 54.46 25.73 45.61 25.73 45.61 27.39" fill="#101010"/>
  <path d="M43.96,32.59c.08.08.15.16.22.24h1.43v-7.09h-1.65v6.85Z" fill="#101010"/>
  <polygon points="45.61 34.48 52.8 34.48 52.8 39.91 54.46 39.91 54.46 34.47 45.61 34.47 45.61 34.48" fill="#101010"/>
  <path d="M45.61,34.65v-.18h0s-.11,0-.11,0c.04.06.08.13.11.19Z" fill="#101010"/>
  <rect x="45.61" y="32.82" width="8.85" height="1.64" fill="#101010"/>
  <path d="M45.49,34.47h.11v-1.64h-1.43c.48.51.93,1.05,1.31,1.64Z" fill="#101010"/>
  <rect x="52.8" y="41.56" width="1.65" height="5.43" fill="#101010"/>
  <path d="M45.5,46.98h.11v-.18c-.04.06-.07.12-.11.18Z" fill="#101010"/>
  <path d="M47.33,39.91c.02.27.04.55.04.83s-.02.55-.04.83h7.13v-1.65h-7.13Z" fill="#101010"/>
  <polygon points="52.8 54.06 45.61 54.06 45.61 55.71 54.46 55.71 54.46 48.63 52.8 48.63 52.8 54.06" fill="#101010"/>
  <path d="M45.61,48.63h-1.43c-.08.08-.15.16-.22.24v6.84h1.65v-7.08Z" fill="#101010"/>
  <polygon points="45.61 46.98 45.61 48.63 52.8 48.63 54.46 48.63 54.46 46.98 52.8 46.98 45.61 46.98" fill="#101010"/>
  <path d="M44.18,48.63h1.43v-1.65h-.11c-.39.59-.83,1.14-1.32,1.65Z" fill="#101010"/>
  <polygon points="17.4 17.28 17.4 22.91 19.06 22.91 19.06 18.94 52.8 18.94 52.8 22.91 54.46 22.91 54.46 17.28 17.4 17.28" fill="#101010"/>
  <path d="M28.86,48.63h-.95v.24c1.88,1.86,4.4,3.06,7.2,3.26v-.82c-2.4-.18-4.56-1.16-6.25-2.67Z" fill="#101010"/>
  <path d="M42.99,32.81h.96v-.23c-1.88-1.86-4.4-3.06-7.2-3.26v.82c2.39.18,4.55,1.16,6.24,2.66Z" fill="#101010"/>
  <path d="M28.87,32.81c1.69-1.5,3.85-2.48,6.24-2.66v-.82c-2.8.2-5.32,1.4-7.2,3.26v.23h.96Z" fill="#101010"/>
  <path d="M26.25,45.09c-.49-1.09-.81-2.28-.9-3.54h-.82c.14,1.92.75,3.71,1.72,5.25v-1.71Z" fill="#101010"/>
  <path d="M45.61,36.37c.49,1.09.81,2.28.9,3.54h.82c-.14-1.92-.75-3.71-1.72-5.25v1.71Z" fill="#101010"/>
  <path d="M43,48.63c-1.69,1.51-3.85,2.49-6.25,2.67v.82c2.8-.2,5.32-1.4,7.2-3.26v-.24h-.95Z" fill="#101010"/>
  <path d="M26.25,36.37v-1.71c-.97,1.54-1.58,3.33-1.72,5.25h.82c.1-1.25.41-2.44.9-3.54Z" fill="#101010"/>
  <path d="M45.61,45.09v1.71c.97-1.54,1.58-3.33,1.72-5.25h-.82c-.1,1.25-.41,2.44-.9,3.54Z" fill="#101010"/>
  <path d="M25.31,40.73c0-.28.02-.55.04-.82h-.82c-.02.27-.04.55-.04.83s.02.55.04.83h.82c-.02-.27-.04-.55-.04-.83Z" fill="#101010"/>
  <polygon points="28.87 32.81 27.91 32.81 27.91 32.82 28.86 32.82 28.87 32.81" fill="#101010"/>
  <path d="M27.91,32.81v-.23c-.08.08-.15.16-.22.24h.22Z" fill="#101010"/>
  <path d="M26.37,34.47c-.04.06-.08.13-.11.19v1.71c.31-.68.68-1.31,1.11-1.9h-1Z" fill="#101010"/>
  <path d="M28.86,32.82h-.95v.96c.3-.34.61-.66.95-.96Z" fill="#101010"/>
  <path d="M27.37,34.47c.17-.23.35-.46.54-.68v-.96h-.22c-.48.51-.93,1.05-1.31,1.64h1Z" fill="#101010"/>
  <path d="M26.25,46.81c.04.06.07.12.11.18h1c-.43-.59-.8-1.22-1.11-1.89v1.71Z" fill="#101010"/>
  <polygon points="43.96 32.82 43.96 32.81 42.99 32.81 43 32.82 43.96 32.82" fill="#101010"/>
  <path d="M35.93,30.11c.28,0,.55.02.82.04v-.82c-.27-.02-.55-.04-.82-.04s-.55.02-.83.04v.82c.27-.02.55-.04.83-.04Z" fill="#101010"/>
  <path d="M43.96,33.79v-.96h-.95c.34.3.66.62.95.96Z" fill="#101010"/>
  <path d="M27.91,47.67v.96h.95c-.34-.3-.65-.62-.95-.96Z" fill="#101010"/>
  <path d="M27.68,48.63c.08.08.15.16.22.24v-.24h-.22Z" fill="#101010"/>
  <path d="M27.91,47.67c-.19-.22-.37-.45-.54-.69h-1c.39.59.83,1.14,1.32,1.65h.22v-.96Z" fill="#101010"/>
  <path d="M43,48.63h.95v-.96c-.3.34-.61.66-.95.96Z" fill="#101010"/>
  <path d="M35.93,51.35c-.28,0-.55-.02-.83-.04v.82c.27.02.55.04.83.04s.55-.02.82-.04v-.82c-.27.02-.55.04-.82.04Z" fill="#101010"/>
  <path d="M43.96,32.82h.22c-.08-.08-.15-.16-.22-.24v.23h0Z" fill="#101010"/>
  <path d="M45.61,36.37v-1.71c-.04-.06-.07-.13-.11-.19h-1c.43.59.81,1.23,1.11,1.9Z" fill="#101010"/>
  <path d="M43.96,33.79c.19.22.37.44.54.68h1c-.39-.59-.83-1.13-1.31-1.64h-.22v.96Z" fill="#101010"/>
  <path d="M45.5,46.98c.04-.06.07-.12.11-.18v-1.71c-.3.67-.68,1.3-1.11,1.89h1Z" fill="#101010"/>
  <path d="M46.55,40.73c0,.28-.02.55-.04.83h.82c.02-.27.04-.55.04-.83s-.02-.55-.04-.83h-.82c.02.27.04.55.04.82Z" fill="#101010"/>
  <path d="M43.96,48.87c.08-.08.15-.16.22-.24h-.22v.24Z" fill="#101010"/>
  <path d="M44.5,46.98c-.17.24-.35.47-.54.69v.96h.22c.49-.51.93-1.06,1.32-1.65h-1Z" fill="#101010"/>
  <path d="M30.16,48.63h-1.31c1.69,1.51,3.85,2.49,6.25,2.67v-.82c-1.84-.15-3.53-.82-4.94-1.85Z" fill="#101010"/>
  <path d="M26.17,41.56h-.82c.1,1.25.41,2.44.9,3.54v-2.88c-.03-.22-.06-.44-.08-.66Z" fill="#101010"/>
  <path d="M27.91,34.48v.65c.16-.22.32-.44.49-.65h-.49Z" fill="#101010"/>
  <path d="M36.75,50.49v.82c2.4-.18,4.56-1.16,6.25-2.67h-1.31c-1.41,1.03-3.1,1.7-4.94,1.85Z" fill="#101010"/>
  <path d="M41.68,32.81h1.31c-1.69-1.51-3.85-2.48-6.24-2.66v.82c1.83.15,3.52.82,4.93,1.84Z" fill="#101010"/>
  <path d="M26.25,39.24v-2.88c-.49,1.09-.81,2.28-.9,3.54h.82c.02-.22.05-.44.08-.66Z" fill="#101010"/>
  <path d="M43.96,35.12v-.65h-.49c.17.21.33.43.49.65Z" fill="#101010"/>
  <path d="M27.91,46.98h.49c-.17-.21-.33-.42-.49-.65v.65Z" fill="#101010"/>
  <path d="M43.96,46.98v-.65c-.16.22-.32.44-.49.65h.49Z" fill="#101010"/>
  <path d="M35.1,30.97v-.82c-2.39.18-4.55,1.16-6.24,2.66h1.31c1.41-1.03,3.1-1.69,4.93-1.84Z" fill="#101010"/>
  <path d="M45.61,42.21v2.88c.49-1.09.81-2.28.9-3.54h-.82c-.02.22-.05.44-.08.65Z" fill="#101010"/>
  <path d="M45.69,39.91h.82c-.1-1.25-.41-2.44-.9-3.54v2.88c.03.22.06.43.08.65Z" fill="#101010"/>
  <path d="M26.13,40.73c0-.28.02-.55.04-.83h-.82c-.02.27-.04.55-.04.82s.02.55.04.83h.82c-.02-.27-.04-.55-.04-.83Z" fill="#101010"/>
  <path d="M30.16,32.82s0,0,.01,0h-1.31s0,0-.01,0h1.31Z" fill="#101010"/>
  <polygon points="28.4 34.47 27.91 34.47 27.91 34.48 28.39 34.48 28.4 34.47" fill="#101010"/>
  <path d="M27.91,35.12v-.65h0s-.54,0-.54,0c-.43.59-.81,1.23-1.11,1.9v2.88c.23-1.52.81-2.92,1.65-4.12Z" fill="#101010"/>
  <path d="M28.4,34.47c.52-.62,1.11-1.16,1.76-1.64h-1.31c-.34.3-.65.62-.95.96v.68h.5Z" fill="#101010"/>
  <path d="M27.91,33.79c-.19.22-.37.44-.54.68h.54v-.68Z" fill="#101010"/>
  <path d="M27.91,46.34c-.84-1.2-1.42-2.61-1.65-4.12v2.88c.3.67.68,1.3,1.11,1.89h.54v-.65Z" fill="#101010"/>
  <path d="M41.7,32.82h1.31s0,0-.01,0h-1.31s0,0,.01,0Z" fill="#101010"/>
  <path d="M35.93,30.93c.28,0,.55.02.82.04v-.82c-.27-.02-.55-.04-.82-.04s-.55.02-.83.04v.82c.27-.02.55-.04.83-.04Z" fill="#101010"/>
  <polygon points="43.47 34.48 43.96 34.48 43.96 34.47 43.46 34.47 43.47 34.48" fill="#101010"/>
  <path d="M43,32.82h-1.31c.65.48,1.24,1.02,1.76,1.64h.5v-.68c-.3-.34-.61-.66-.95-.96Z" fill="#101010"/>
  <path d="M28.39,46.98h-.49v.69c.3.34.61.66.95.96h1.31c-.65-.48-1.25-1.03-1.77-1.65Z" fill="#101010"/>
  <path d="M27.36,46.98c.17.24.35.47.54.69v-.69h-.54Z" fill="#101010"/>
  <path d="M43.47,46.98c-.52.62-1.12,1.17-1.77,1.65h1.31c.34-.3.65-.62.95-.96v-.69h-.49Z" fill="#101010"/>
  <path d="M35.93,50.53c-.28,0-.55-.02-.83-.04v.82c.27.02.55.04.83.04s.55-.02.82-.04v-.82c-.27.02-.55.04-.82.04Z" fill="#101010"/>
  <path d="M43.96,34.47h0v.66c.85,1.21,1.42,2.61,1.65,4.13v-2.88c-.31-.68-.68-1.31-1.11-1.9h-.54Z" fill="#101010"/>
  <path d="M44.49,34.47c-.17-.23-.35-.46-.54-.68v.68h.54Z" fill="#101010"/>
  <path d="M43.96,46.34v.65h.54c.43-.59.8-1.22,1.11-1.89v-2.88c-.23,1.52-.81,2.92-1.65,4.13Z" fill="#101010"/>
  <path d="M45.73,40.73c0,.28-.02.55-.04.83h.82c.02-.27.04-.55.04-.83s-.02-.55-.04-.82h-.82c.02.27.04.55.04.83Z" fill="#101010"/>
  <path d="M43.96,47.67c.19-.22.37-.45.54-.69h-.54v.69Z" fill="#101010"/>
  <polygon points="35.1 39.29 31.61 37.22 30.77 38.64 32.92 39.91 35.1 39.91 35.1 39.29" fill="#101010"/>
  <polygon points="38.24 39.91 42.8 36.19 41.76 34.91 36.75 39 36.75 39.91 38.24 39.91" fill="#101010"/>
  <polygon points="35.1 39.91 32.92 39.91 35.1 41.2 35.1 39.91" fill="#101010"/>
  <polygon points="35.1 39.29 35.1 39.91 36.75 39.91 36.75 39 35.85 39.73 35.1 39.29" fill="#101010"/>
  <polygon points="36.01 41.73 36.22 41.56 35.71 41.56 36.01 41.73" fill="#101010"/>
  <polygon points="36.75 41.12 38.24 39.91 36.75 39.91 36.75 41.12" fill="#101010"/>
  <polygon points="35.71 41.56 36.22 41.56 36.75 41.12 36.75 39.91 35.1 39.91 35.1 41.2 35.71 41.56" fill="#101010"/>
</svg>