<?xml version="1.0" encoding="UTF-8"?>
<svg id="Layer_1" xmlns="http://www.w3.org/2000/svg" version="1.1" viewBox="0 0 72 72">
  <!-- Generator: Adobe Illustrator 30.2.1, SVG Export Plug-In . SVG Version: 2.1.1 Build 1)  -->
  <g>
    <path d="M27.12,54.31h-4.86c-2.35,0-4.26-1.91-4.26-4.26s1.91-4.26,4.26-4.26h27.35c2.35,0,4.26-1.91,4.26-4.26s-1.91-4.26-4.26-4.26h-27.35c-2.35,0-4.26-1.91-4.26-4.26s1.91-4.26,4.26-4.26h27.35c2.35,0,4.26-1.91,4.26-4.26s-1.91-4.26-4.26-4.26h-7.11" fill="none" stroke="#101010" stroke-miterlimit="10" stroke-width="2"/>
    <polygon points="26.24 51.32 31.42 54.31 26.24 57.3 26.24 51.32" fill="#101010"/>
  </g>
  <polyline points="23.68 23.98 19.71 20.2 23.68 16.42" fill="none" stroke="#101010" stroke-miterlimit="10" stroke-width="2"/>
  <polyline points="33.62 23.98 37.59 20.2 33.62 16.42" fill="none" stroke="#101010" stroke-miterlimit="10" stroke-width="2"/>
  <line x1="30.26" y1="16.42" x2="26.9" y2="23.98" fill="none" stroke="#101010" stroke-miterlimit="10" stroke-width="2"/>
</svg>