<?xml version="1.0" encoding="UTF-8"?>
<svg id="Layer_1" xmlns="http://www.w3.org/2000/svg" version="1.1" viewBox="0 0 72 72">
  <!-- Generator: Adobe Illustrator 30.2.1, SVG Export Plug-In . SVG Version: 2.1.1 Build 1)  -->
  <path d="M28.11,29.2h-13.39v-13.39h13.39v13.39ZM16.72,27.2h9.39v-9.39h-9.39v9.39Z" fill="#101010"/>
  <path d="M56.77,57.87h-13.39v-13.39h13.39v13.39ZM45.38,55.87h9.39v-9.39h-9.39v9.39Z" fill="#101010"/>
  <circle cx="21.41" cy="22.51" r="1.55" fill="#101010"/>
  <circle cx="50.08" cy="51.17" r="1.55" fill="#101010"/>
  <path d="M35.6,57.4c-1.58,0-2.53-1.55-3.44-3.05-.49-.81-1.16-1.91-1.64-2.06-.48-.16-1.71.34-2.6.71-1.61.66-3.28,1.34-4.51.45-1.25-.92-1.11-2.74-.98-4.5.07-.95.17-2.25-.11-2.63-.28-.39-1.57-.71-2.5-.94-1.71-.42-3.48-.86-3.94-2.3-.46-1.43.69-2.79,1.81-4.11.63-.75,1.5-1.77,1.5-2.3h2c0,1.27-1,2.45-1.98,3.59-.54.64-1.55,1.83-1.43,2.2.12.38,1.74.78,2.52.97,1.5.37,2.92.72,3.64,1.7.71.98.6,2.43.49,3.96-.06.87-.19,2.48.16,2.73.33.24,1.79-.36,2.58-.68,1.37-.56,2.8-1.15,3.98-.76,1.18.38,1.97,1.68,2.73,2.93.48.78,1.28,2.1,1.73,2.1v2Z" fill="#101010"/>
  <path d="M53.55,38.19h-2c0-1.28,1.06-2.43,2.09-3.55.52-.56,1.59-1.74,1.5-2.09-.1-.36-1.65-.86-2.39-1.1-1.5-.48-2.92-.93-3.53-2-.61-1.06-.3-2.5.04-4.02.18-.83.52-2.37.23-2.65-.29-.28-1.81.05-2.63.24-1.46.32-2.97.66-4.05.03-1.07-.62-1.52-2.09-1.97-3.5-.25-.81-.72-2.31-1.13-2.42-.4-.11-1.53.95-2.14,1.51-1.1,1.02-2.23,2.07-3.5,2.07v-2c.48,0,1.44-.89,2.14-1.54,1.25-1.16,2.56-2.37,4.02-1.98,1.47.39,2.01,2.1,2.52,3.75.27.85.67,2.14,1.06,2.37.4.23,1.73-.06,2.61-.25,1.68-.37,3.41-.75,4.47.3,1.07,1.06.68,2.81.31,4.5-.19.87-.48,2.2-.26,2.59.23.4,1.54.82,2.4,1.09,1.64.52,3.34,1.07,3.71,2.49.37,1.41-.81,2.71-1.96,3.96-.66.72-1.56,1.7-1.56,2.2Z" fill="#101010"/>
</svg>