<?xml version="1.0" encoding="UTF-8"?>
<svg id="Layer_1" xmlns="http://www.w3.org/2000/svg" version="1.1" viewBox="0 0 72 72">
  <!-- Generator: Adobe Illustrator 30.2.1, SVG Export Plug-In . SVG Version: 2.1.1 Build 1)  -->
  <path d="M17.22,43.98c0-3.1,2.51-5.61,5.61-5.61h0c.34,0,.68.04,1.01.1.02-.1.05-.2.08-.31-.11,0-.21.02-.32.02-.82,0-1.59-.16-2.31-.44-2.81.69-4.89,3.22-4.89,6.24,0,2.52,1.46,4.7,3.57,5.76.05-.28.12-.55.21-.81-1.76-.95-2.95-2.8-2.95-4.94h-.01Z" fill="#010101"/>
  <path d="M18.05,43.98c0-2.64,2.15-4.79,4.78-4.79.3,0,.6.04.88.09.02-.28.06-.55.12-.82-.33-.06-.66-.1-1.01-.1h0c-3.1,0-5.61,2.51-5.61,5.61,0,2.14,1.2,3.99,2.95,4.94.09-.27.2-.54.32-.79-1.45-.82-2.45-2.36-2.45-4.15h.02Z" fill="#010101"/>
  <path d="M26.29,56.52c-3.1,0-5.61-2.51-5.61-5.61,0-.29.03-.57.07-.85-.27-.09-.53-.2-.78-.33-.07.38-.11.77-.11,1.17,0,3.55,2.89,6.44,6.44,6.44,2.49,0,4.65-1.43,5.72-3.51-.24-.14-.47-.29-.69-.45-.92,1.86-2.82,3.13-5.03,3.13h0Z" fill="#010101"/>
  <path d="M26.29,45.3c.16,0,.32,0,.48.02-.39-.24-.74-.51-1.07-.82-2.3.21-4.25,1.64-5.21,3.63.24.13.49.25.75.34.91-1.88,2.82-3.17,5.05-3.17Z" fill="#010101"/>
  <path d="M20.93,49.25c-.26-.09-.52-.2-.76-.33-.09.26-.15.54-.21.81.25.13.51.24.78.33.04-.28.1-.55.18-.81h0Z" fill="#010101"/>
  <path d="M20.49,48.13c-.12.26-.23.52-.32.79.24.13.5.24.76.33.08-.27.19-.53.31-.78-.26-.09-.51-.21-.75-.34Z" fill="#010101"/>
  <path d="M26.29,55.69c-2.64,0-4.78-2.15-4.78-4.79,0-.21.04-.41.06-.62-.28-.06-.55-.13-.82-.23-.04.28-.07.56-.07.85,0,3.1,2.51,5.61,5.61,5.61,2.21,0,4.11-1.28,5.03-3.13-.23-.17-.45-.35-.65-.55-.74,1.68-2.42,2.86-4.37,2.86h-.01Z" fill="#010101"/>
  <path d="M28.88,46.15c-.07.21-.16.41-.25.61.07.04.15.08.22.12.05-.24.12-.47.2-.7-.05,0-.11,0-.16-.02h-.01Z" fill="#010101"/>
  <path d="M26.29,46.13c.26,0,.51.04.75.08.1-.19.19-.38.27-.58-.18-.09-.36-.19-.54-.29-.16,0-.32-.02-.48-.02-2.22,0-4.14,1.3-5.05,3.17.27.1.55.17.83.22.8-1.52,2.38-2.56,4.21-2.56v-.02Z" fill="#010101"/>
  <path d="M21.75,49.48c-.28-.06-.55-.14-.82-.23-.08.26-.14.53-.18.81.27.09.54.17.82.23.04-.28.1-.55.18-.81Z" fill="#010101"/>
  <path d="M28.08,45.94c-.06.16-.13.32-.2.48.26.09.51.21.75.34.1-.2.18-.4.25-.61-.27-.05-.54-.13-.8-.21Z" fill="#010101"/>
  <path d="M27.31,45.62c-.07.2-.17.39-.27.58.29.05.57.12.83.22.08-.16.14-.32.2-.48-.27-.09-.52-.2-.77-.32h.01Z" fill="#010101"/>
  <path d="M22.08,48.69c-.29-.05-.57-.12-.83-.22-.12.25-.23.51-.31.78.26.1.54.18.82.23.09-.28.2-.54.33-.79h-.01Z" fill="#010101"/>
  <path d="M29.81,30.06c.07.25.12.51.16.77.14-.4.32-.78.54-1.13-.22.13-.45.26-.69.37h-.01Z" fill="#010101"/>
  <path d="M36.93,27.25s-.03.01-.05.02c0,0,.03,0,.04.01v-.03h0Z" fill="#010101"/>
  <polygon points="36.06 37.34 36.05 37.35 36.05 37.36 36.06 37.34" fill="#010101"/>
  <path d="M35.27,27.85c.56,0,1.08.11,1.58.29,0-.29.03-.58.07-.87,0,0-.03,0-.04-.01-.54.28-1.11.48-1.72.6.04,0,.07-.01.11-.01Z" fill="#010101"/>
  <path d="M39.93,33.7s0,.04-.02.05c.02,0,.04-.02.07-.02-.02,0-.03-.02-.05-.03Z" fill="#010101"/>
  <path d="M30.5,29.7c-.22.35-.4.73-.54,1.13.04.3.07.6.07.91,0,.58-.08,1.14-.23,1.68.11,0,.21-.02.31-.02.15,0,.3,0,.44.02-.04-.26-.08-.52-.08-.79,0-2.29,1.62-4.2,3.77-4.67-.1,0-.21.02-.31.02-.5,0-.98-.06-1.44-.17-.52.76-1.21,1.4-2,1.88h.01Z" fill="#010101"/>
  <path d="M36.22,41.88c.2.03.4.08.6.13-.16-.38-.27-.78-.35-1.19-.06.36-.14.72-.25,1.06Z" fill="#010101"/>
  <path d="M39.51,34.81c.17-.33.31-.68.4-1.06-1.74.6-3.14,1.91-3.85,3.59.37-.06.73-.15,1.07-.3.55-.96,1.38-1.74,2.38-2.23Z" fill="#010101"/>
  <path d="M40.68,34.1c-.03.1-.06.21-.09.31.19-.05.39-.09.59-.12-.17-.06-.33-.12-.5-.19Z" fill="#010101"/>
  <path d="M36.67,38.07c-.12.03-.23.06-.35.08.06.23.11.47.15.71.05-.27.11-.53.2-.79Z" fill="#010101"/>
  <path d="M40.59,34.41c.03-.1.06-.21.09-.31-.24-.11-.48-.23-.7-.37-.02,0-.04.02-.07.02-.09.37-.23.72-.4,1.06.34-.17.7-.3,1.08-.4Z" fill="#010101"/>
  <path d="M36.32,38.15c.12-.02.23-.05.35-.08.12-.36.27-.7.46-1.02-.34.14-.7.23-1.07.3h0c.11.27.19.53.27.8h0Z" fill="#010101"/>
  <path d="M41.46,34.39c-.07.25-.15.51-.26.75.26-.04.52-.08.79-.08h.04c-.05-.18-.09-.37-.12-.55-.16-.03-.31-.07-.46-.12h0Z" fill="#010101"/>
  <path d="M37.35,38.72c-.28.1-.57.18-.86.23.04.29.07.58.07.88,0,.34-.03.66-.08.98.07.41.19.81.35,1.19.41.11.8.26,1.18.45-.5-.75-.79-1.65-.79-2.62,0-.39.06-.76.15-1.12h-.02Z" fill="#010101"/>
  <path d="M40.21,44.27c.09.12.18.23.27.36.08-.07.17-.13.26-.19-.18-.05-.36-.1-.52-.16h0Z" fill="#010101"/>
  <path d="M39.51,34.81c-1,.49-1.83,1.27-2.38,2.23,1.03-.44,1.87-1.24,2.38-2.23Z" fill="#010101"/>
  <path d="M36.49,38.96c.3-.06.58-.14.86-.23.09-.37.23-.72.4-1.06-.34.17-.7.3-1.08.4-.09.26-.15.52-.2.79,0,.03,0,.07.02.1Z" fill="#010101"/>
  <path d="M41.2,35.13c.1-.24.18-.49.26-.75-.09-.03-.19-.06-.28-.09-.2.03-.4.07-.59.12-.12.36-.27.7-.46,1.02.34-.14.7-.23,1.07-.3Z" fill="#010101"/>
  <path d="M40.13,35.43c.18-.32.34-.66.46-1.02-.38.1-.74.23-1.08.4-.51.99-1.34,1.8-2.38,2.23-.18.32-.34.66-.46,1.02.38-.1.74-.23,1.08-.4.51-.99,1.34-1.8,2.38-2.23Z" fill="#010101"/>
  <path d="M35.14,53.83h0c-1.02,0-1.97-.28-2.8-.75-.09.26-.2.52-.33.76.93.52,1.99.82,3.13.82,1.54,0,2.96-.55,4.07-1.46-.16-.23-.29-.48-.42-.73-.98.84-2.26,1.36-3.65,1.36Z" fill="#010101"/>
  <path d="M35.89,42.67c.12.02.24.03.35.05-.07-.13-.13-.26-.19-.39-.05.12-.11.23-.16.34Z" fill="#010101"/>
  <path d="M29.59,47.46c-.23-.22-.47-.41-.74-.58-.09.43-.14.88-.14,1.34,0,1.81.75,3.44,1.96,4.61.12-.28.22-.58.29-.89-.88-.99-1.42-2.29-1.42-3.73,0-.26.02-.51.06-.76h-.01Z" fill="#010101"/>
  <path d="M31.64,52.6c-.09.27-.2.53-.32.79.22.16.45.32.69.45.13-.25.23-.5.33-.76-.25-.14-.48-.3-.7-.48Z" fill="#010101"/>
  <path d="M29.79,46.53c.03-.09.06-.18.1-.27-.17,0-.34-.02-.51-.03.14.09.28.2.41.3Z" fill="#010101"/>
  <path d="M29.38,46.23c-.11,0-.22-.03-.34-.05-.08.23-.14.46-.2.7.27.17.51.36.74.58.04-.32.11-.63.2-.93-.13-.11-.27-.21-.41-.3h.01Z" fill="#010101"/>
  <path d="M30.66,52.83c.2.2.42.38.65.55.12-.25.24-.51.32-.79-.25-.2-.47-.42-.69-.65-.07.31-.17.6-.29.89h.01Z" fill="#010101"/>
  <path d="M38,42.46c.53.81,1.31,1.45,2.22,1.81-.59-.76-1.35-1.38-2.22-1.81Z" fill="#010101"/>
  <path d="M39.7,44.96c.06.08.12.17.17.25.04-.04.08-.09.12-.13-.1-.04-.2-.08-.29-.12Z" fill="#010101"/>
  <path d="M36.22,41.88c-.05.15-.1.3-.16.44.06.14.12.26.19.39.42.08.81.21,1.19.38-.24-.34-.45-.7-.62-1.09-.2-.05-.4-.1-.6-.13h0Z" fill="#010101"/>
  <path d="M40.48,44.63c-.08-.12-.17-.24-.27-.36-.91-.37-1.68-1-2.22-1.81-.37-.19-.77-.34-1.18-.45.16.39.37.75.62,1.09.91.41,1.69,1.05,2.26,1.85.1.04.19.08.29.12.16-.16.32-.31.49-.45h.01Z" fill="#010101"/>
  <path d="M39.13,45.6c.06.1.11.2.16.3.04-.06.08-.11.12-.16-.1-.04-.19-.09-.29-.14h.01Z" fill="#010101"/>
  <path d="M30.77,46.3l.03-.06h-.09s.04.03.06.05h0Z" fill="#010101"/>
  <path d="M35.14,53c-.94,0-1.82-.28-2.56-.76-.06.28-.14.56-.24.83.82.48,1.78.75,2.8.75h0c1.4,0,2.67-.51,3.65-1.36-.13-.26-.25-.53-.34-.81-.86.83-2.03,1.35-3.31,1.35Z" fill="#010101"/>
  <path d="M35.89,42.67c-.14.28-.29.55-.46.8.52.03,1.02.13,1.49.32-.26-.33-.48-.69-.67-1.07-.12-.02-.23-.04-.35-.05h-.01Z" fill="#010101"/>
  <path d="M29.59,47.46c-.03.25-.06.5-.06.76,0,1.43.54,2.74,1.42,3.73.07-.33.12-.68.12-1.04,0-.08-.02-.16-.02-.24-.39-.65-.63-1.4-.67-2.2-.22-.37-.48-.71-.79-1h0Z" fill="#010101"/>
  <path d="M30.12,46.27c-.08,0-.15,0-.23,0-.03.09-.07.18-.1.27.25.2.47.42.69.65.07-.31.17-.6.29-.89-.02-.02-.04-.03-.06-.05-.19.02-.39.03-.59.03Z" fill="#010101"/>
  <path d="M31.84,51.67c-.04.32-.11.63-.2.93.22.18.46.34.7.48.1-.27.18-.54.24-.83-.27-.17-.51-.36-.74-.58Z" fill="#010101"/>
  <path d="M31.05,50.67c0,.08.02.16.02.24,0,.36-.05.7-.12,1.04.21.24.44.46.69.65.09-.3.16-.61.2-.93-.31-.3-.57-.64-.79-1Z" fill="#010101"/>
  <path d="M29.59,47.46c.31.3.57.64.79,1,0-.08-.02-.16-.02-.24,0-.36.05-.7.12-1.04-.21-.24-.44-.46-.69-.65-.09.3-.16.61-.2.93Z" fill="#010101"/>
  <path d="M39.87,45.21c-.05-.09-.11-.17-.17-.25-.91-.41-1.69-1.05-2.26-1.85-.38-.17-.77-.3-1.19-.38.19.38.42.73.67,1.07.91.37,1.68,1,2.22,1.81.1.05.19.1.29.14.14-.18.29-.36.45-.53h-.01Z" fill="#010101"/>
  <path d="M37.43,43.1c.58.8,1.35,1.44,2.26,1.85-.58-.8-1.35-1.44-2.26-1.85Z" fill="#010101"/>
  <path d="M29.54,29.28c.03.08.06.17.09.26.08-.15.17-.29.26-.43-.12.06-.24.12-.36.18h.01Z" fill="#010101"/>
  <path d="M21.58,24.19h0c0-3.1,2.51-5.61,5.61-5.61h0c.34,0,.68.04,1,.09.13-.26.27-.51.44-.75-.46-.11-.94-.17-1.44-.17-3.55,0-6.44,2.89-6.44,6.44,0,.58.08,1.14.23,1.68.25-.11.51-.21.78-.29-.11-.44-.18-.91-.18-1.39Z" fill="#010101"/>
  <path d="M32.44,27.8c-.27-.06-.52-.14-.77-.24-.47.63-1.07,1.15-1.76,1.54-.09.14-.18.29-.26.43.06.17.12.35.17.53.24-.11.47-.23.69-.37.48-.78,1.15-1.43,1.94-1.9h0Z" fill="#010101"/>
  <path d="M30.5,29.7c.79-.48,1.48-1.12,2-1.88-.02,0-.04-.01-.06-.02-.79.46-1.46,1.12-1.94,1.9Z" fill="#010101"/>
  <path d="M22.41,24.19c0-2.64,2.15-4.78,4.78-4.78h0c.23,0,.45.04.67.07.09-.28.21-.54.34-.8-.33-.06-.66-.09-1-.09h0c-3.1,0-5.61,2.51-5.61,5.61h0c0,.48.07.94.18,1.39.27-.08.54-.14.82-.18-.1-.39-.17-.79-.17-1.2v-.02Z" fill="#010101"/>
  <path d="M29.9,29.1c.41-.63.94-1.17,1.54-1.62-.19-.08-.38-.17-.57-.27-.46.56-1.04,1.02-1.7,1.33.14.24.27.49.37.74.12-.06.24-.11.36-.18Z" fill="#010101"/>
  <path d="M31.67,27.56c-.07-.03-.15-.05-.22-.08-.6.45-1.12.99-1.54,1.62.69-.38,1.29-.91,1.76-1.54Z" fill="#010101"/>
  <path d="M24.07,37.67c.04-.12.08-.24.13-.35-.2.02-.4.03-.6.03-3.1,0-5.61-2.51-5.61-5.61h0c0-2.26,1.34-4.2,3.26-5.09-.11-.25-.19-.52-.26-.79-2.25,1-3.82,3.26-3.82,5.87s1.72,5.07,4.12,6c.49-.12,1.01-.19,1.54-.19.42,0,.84.04,1.24.12h0Z" fill="#010101"/>
  <path d="M29.03,30.35c.03.13.06.26.09.4.05-.17.11-.33.18-.49-.09.03-.17.06-.26.09h-.01Z" fill="#010101"/>
  <path d="M23.92,38.16c.05-.17.1-.33.16-.49-.4-.08-.82-.12-1.24-.12-.53,0-1.05.07-1.54.19.72.28,1.5.44,2.31.44.11,0,.21,0,.32-.02h-.01Z" fill="#010101"/>
  <path d="M29.96,30.83c-.04-.26-.09-.52-.16-.77-.17.07-.34.14-.51.2-.06.16-.13.32-.18.49.06.32.09.65.09.99h0c0,.62-.11,1.22-.29,1.78.26-.05.53-.08.8-.1-.04-.26-.06-.52-.06-.79,0-.63.11-1.24.3-1.81h.01Z" fill="#010101"/>
  <path d="M30.04,31.74c0-.31-.03-.61-.07-.91-.19.57-.3,1.18-.3,1.81,0,.27.03.53.06.79h.08c.15-.54.23-1.1.23-1.68h0Z" fill="#010101"/>
  <path d="M28.38,28.81c.27-.07.54-.16.79-.28-1.11-1.93-3.19-3.23-5.57-3.23-.35,0-.69.04-1.02.09.07.27.16.54.28.79.24-.03.49-.06.75-.06,2.02,0,3.79,1.07,4.78,2.68h-.01Z" fill="#010101"/>
  <path d="M22.02,26.36c-.11-.25-.19-.52-.26-.78-.27.08-.52.18-.78.29.07.27.16.53.26.79.25-.11.5-.21.77-.29h.01Z" fill="#010101"/>
  <path d="M29.64,29.53c-.03-.09-.06-.17-.09-.26-.25.11-.5.21-.77.29.11.25.19.52.26.78.09-.03.18-.06.26-.09.1-.25.21-.5.34-.73h0Z" fill="#010101"/>
  <path d="M29.29,30.26c.17-.06.34-.13.51-.2-.05-.18-.11-.36-.17-.53-.13.23-.24.48-.34.73Z" fill="#010101"/>
  <path d="M29.54,29.28c-.11-.26-.23-.5-.37-.74-.25.12-.52.2-.79.28.15.24.29.5.4.76.27-.08.52-.18.77-.29h0Z" fill="#010101"/>
  <path d="M22.58,25.39c-.28.04-.55.1-.82.18.07.27.15.53.26.78.27-.08.55-.14.84-.18-.12-.25-.21-.52-.28-.79h0Z" fill="#010101"/>
  <path d="M29.12,30.75c-.02-.14-.05-.27-.09-.4-.27.08-.54.14-.82.18.1.39.17.79.17,1.2,0,.74-.19,1.44-.49,2.07.33-.12.66-.22,1.01-.29-.04-.29-.07-.58-.07-.88,0-.66.1-1.29.28-1.89h0Z" fill="#010101"/>
  <path d="M23.6,36.52c-2.64,0-4.78-2.15-4.78-4.79,0-1.93,1.15-3.59,2.8-4.34-.14-.24-.27-.49-.37-.74-1.92.89-3.26,2.83-3.26,5.09h0c0,3.1,2.51,5.61,5.61,5.61.2,0,.4,0,.6-.03.14-.33.31-.64.5-.93-.35.08-.72.14-1.1.14h0Z" fill="#010101"/>
  <path d="M29.21,31.74h0c0-.34-.03-.67-.09-.99-.18.6-.28,1.23-.28,1.89,0,.3.03.59.07.88h.01c.19-.56.29-1.16.29-1.78Z" fill="#010101"/>
  <path d="M27.47,28.95c.31-.02.62-.06.91-.14-.99-1.6-2.75-2.68-4.78-2.68-.25,0-.5.02-.75.06.13.28.29.55.47.8.09,0,.18-.03.28-.03,1.59,0,3,.79,3.87,1.99Z" fill="#010101"/>
  <path d="M27.94,29.74c.12.25.21.52.28.79.28-.04.55-.1.82-.18-.07-.27-.15-.53-.26-.78-.27.08-.55.14-.84.18h0Z" fill="#010101"/>
  <path d="M22.41,27.12c-.15-.24-.29-.5-.4-.76-.27.08-.52.18-.77.29.11.26.23.5.37.74.25-.12.52-.2.79-.28h0Z" fill="#010101"/>
  <path d="M28.38,28.81c-.29.08-.6.12-.91.14.18.25.34.52.47.8.29-.04.57-.1.84-.18-.11-.27-.25-.52-.4-.76Z" fill="#010101"/>
  <path d="M23.32,26.98c-.18-.25-.34-.52-.47-.8-.29.04-.57.1-.84.18.11.27.25.52.4.76.29-.08.6-.12.91-.14Z" fill="#010101"/>
  <path d="M43.28,22.61h0c2.7,0,4.95,1.9,5.49,4.44.29.02.58.06.86.12-.5-3.05-3.15-5.39-6.34-5.39-1.08,0-2.09.27-2.99.74-.06.39-.16.78-.28,1.14.92-.66,2.05-1.06,3.27-1.06h-.01Z" fill="#010101"/>
  <path d="M37.91,26.61s-.09.07-.14.1c.03.01.07.03.1.05,0-.05.02-.1.04-.15Z" fill="#010101"/>
  <path d="M39.93,33.7c.07-.29.1-.6.11-.91-1.35-.96-2.26-2.5-2.35-4.26-.26-.16-.54-.29-.84-.39v.08c0,2.32,1.24,4.35,3.08,5.48Z" fill="#010101"/>
  <path d="M41.26,33.45c-.14-.05-.28-.12-.42-.18,0,.09-.03.17-.04.25.15-.03.3-.05.46-.07Z" fill="#010101"/>
  <path d="M36.92,27.28c.27.08.53.19.79.31.03-.29.09-.56.16-.84-.03-.02-.07-.03-.1-.05-.27.2-.55.38-.84.54v.03h-.01Z" fill="#010101"/>
  <path d="M37.69,28.53c0-.1-.02-.21-.02-.31,0-.21,0-.42.04-.63-.25-.12-.51-.23-.79-.31-.04.28-.07.57-.07.87.29.1.57.23.84.39h0Z" fill="#010101"/>
  <path d="M40.8,33.52c0-.08.03-.17.04-.25-.28-.14-.55-.29-.8-.47,0,.31-.05.61-.11.91.02,0,.03.02.05.03.27-.09.55-.16.83-.21h-.01Z" fill="#010101"/>
  <path d="M41.83,33.63c-.07-.02-.14-.03-.2-.05-.03.23-.08.45-.14.67.13,0,.26-.02.38-.02-.02-.2-.04-.4-.04-.6Z" fill="#010101"/>
  <path d="M40.68,34.1c.16.07.33.13.5.19.1-.02.21-.03.31-.04.06-.22.1-.44.14-.67-.13-.04-.25-.09-.37-.13-.15.02-.31.04-.46.07-.03.2-.07.39-.12.58Z" fill="#010101"/>
  <path d="M39.98,33.73c.23.14.46.26.7.37.05-.19.09-.39.12-.58-.28.05-.56.12-.83.21h.01Z" fill="#010101"/>
  <path d="M41.92,34.51c0-.09-.03-.18-.04-.27-.13,0-.26,0-.38.02,0,.04-.02.09-.03.13.15.04.3.08.46.12h0Z" fill="#010101"/>
  <path d="M41.49,34.26c-.11,0-.21.03-.31.04.09.03.19.06.28.09,0-.04.02-.09.03-.13Z" fill="#010101"/>
  <path d="M38.62,27.16c.49-2.13,2.38-3.72,4.66-3.72s4.09,1.54,4.62,3.61c.12,0,.24-.02.36-.02.17,0,.34.01.51.03-.54-2.54-2.79-4.44-5.49-4.44h0c-1.22,0-2.35.39-3.27,1.06-.41,1.17-1.15,2.19-2.1,2.94,0,.05-.03.1-.04.15.26.12.51.25.75.4h0Z" fill="#010101"/>
  <path d="M41.83,33.41c0-.22,0-.43.04-.65-.05-.02-.11-.03-.16-.05,0,.24-.02.47-.05.71h.17Z" fill="#010101"/>
  <path d="M40.04,32.79s.02-.1.02-.15c0-.34-.04-.68-.11-1-.66-.65-1.14-1.48-1.34-2.42-.27-.27-.59-.49-.92-.68.1,1.76,1,3.3,2.35,4.26h0Z" fill="#010101"/>
  <path d="M40.84,33.27c.14.07.28.13.42.18.13,0,.26-.02.39-.03.03-.23.05-.47.05-.71-.29-.1-.57-.23-.84-.39,0,.1.02.21.02.31,0,.21,0,.42-.04.63h0Z" fill="#010101"/>
  <path d="M38.62,27.16c-.24-.15-.49-.28-.75-.4-.07.27-.13.55-.16.84.28.14.55.29.8.47,0-.31.05-.61.11-.91Z" fill="#010101"/>
  <path d="M37.69,28.53c.33.2.64.42.92.68-.07-.32-.11-.66-.11-1,0-.05,0-.1.02-.15-.25-.18-.52-.34-.8-.47-.02.21-.04.41-.04.63,0,.11,0,.21.02.31h0Z" fill="#010101"/>
  <path d="M40.05,32.64s0,.1-.02.15c.25.18.52.34.8.47.02-.21.04-.41.04-.63,0-.11,0-.21-.02-.31-.33-.2-.64-.42-.92-.68.07.32.11.66.11,1h0Z" fill="#010101"/>
  <path d="M41.83,33.63v-.22h-.17s-.02.11-.02.16c.07.02.14.03.2.05h-.01Z" fill="#010101"/>
  <path d="M41.65,33.42c-.13,0-.26,0-.39.03.12.05.24.09.37.13,0-.05.02-.11.02-.16Z" fill="#010101"/>
  <path d="M53.87,33.46c0,1.3-.45,2.5-1.19,3.45.21.18.41.38.59.58.89-1.1,1.43-2.51,1.43-4.03,0-3.08-2.18-5.66-5.07-6.29.05.29.08.58.08.87,2.4.64,4.16,2.82,4.16,5.41h0Z" fill="#010101"/>
  <path d="M42.91,35.15c-.28-.06-.58-.09-.88-.09.26,1.01.76,1.92,1.43,2.68.17-.21.36-.42.56-.61-.5-.57-.88-1.24-1.11-1.98Z" fill="#010101"/>
  <path d="M42.03,35.06c.3,0,.59.03.88.09-.05-.17-.1-.34-.14-.52-.29-.02-.58-.06-.86-.12.03.19.07.37.12.55Z" fill="#010101"/>
  <path d="M41.86,32.77c.26.08.53.14.81.18.25-2.78,2.53-4.97,5.35-5.08-.02-.28-.06-.55-.13-.82-3.15.18-5.7,2.62-6.04,5.72h.01Z" fill="#010101"/>
  <path d="M48.87,27.89c.29.03.56.09.83.16,0-.3-.04-.59-.08-.87-.28-.06-.57-.1-.86-.12.06.27.09.55.11.83Z" fill="#010101"/>
  <path d="M41.88,34.24h.11c.25,0,.49.02.73.05-.02-.16-.04-.32-.05-.49-.29-.03-.56-.09-.83-.16,0,.2.02.4.04.6Z" fill="#010101"/>
  <path d="M42.77,34.63c-.02-.11-.04-.23-.06-.35-.24-.03-.48-.05-.73-.05h-.11c0,.09.03.18.04.27.28.06.57.1.86.12h0Z" fill="#010101"/>
  <path d="M47.9,27.04c.07.26.11.54.13.82.08,0,.15-.01.23-.01h0c.21,0,.41.01.61.04-.02-.28-.05-.56-.11-.83-.17-.01-.34-.03-.51-.03-.12,0-.24.01-.36.02h0Z" fill="#010101"/>
  <path d="M41.99,33.4c.22,0,.44,0,.66.03,0-.17,0-.33.02-.49-.28-.04-.55-.1-.81-.18-.02.21-.03.43-.04.65h.17Z" fill="#010101"/>
  <path d="M41.83,33.63c.27.07.55.13.83.16,0-.11-.02-.22-.02-.33v-.02c-.22-.02-.44-.03-.66-.03h-.16v.22h0Z" fill="#010101"/>
  <path d="M49.68,28.91c1.94.61,3.37,2.4,3.37,4.55,0,1.11-.4,2.13-1.04,2.94.24.16.46.33.67.51.75-.95,1.19-2.15,1.19-3.45,0-2.6-1.77-4.78-4.16-5.41v.18c0,.23,0,.47-.04.69h.01Z" fill="#010101"/>
  <path d="M44.02,37.13c.2-.19.42-.37.65-.54-.29-.33-.54-.7-.73-1.11-.33-.15-.67-.26-1.03-.33.23.74.62,1.41,1.11,1.98Z" fill="#010101"/>
  <path d="M43.94,35.48c-.13-.27-.22-.55-.3-.84-.12,0-.24.02-.36.02-.17,0-.34,0-.51-.03.04.18.08.35.14.52.36.07.7.18,1.03.33Z" fill="#010101"/>
  <path d="M42.68,32.94c.2.03.4.06.6.06.08,0,.16-.02.24-.02.24-2.33,2.13-4.16,4.49-4.28.02-.16.05-.32.05-.48,0-.12-.03-.24-.04-.36-2.82.12-5.1,2.3-5.35,5.08h0Z" fill="#010101"/>
  <path d="M48.86,28.74c.28.04.55.1.81.18.02-.23.04-.46.04-.69v-.18c-.27-.07-.55-.13-.83-.16,0,.11.02.22.02.33,0,.17,0,.35-.03.52h-.01Z" fill="#010101"/>
  <path d="M43.58,34.46c-.04-.21-.06-.43-.07-.65-.08,0-.15,0-.23,0h0c-.21,0-.41,0-.61-.04,0,.16.03.33.05.49.3.04.59.1.87.18h0Z" fill="#010101"/>
  <path d="M42.77,34.63c.17,0,.33.03.51.03.12,0,.24,0,.36-.02-.02-.06-.04-.11-.05-.17-.28-.08-.57-.14-.87-.18.02.12.03.23.06.35h-.01Z" fill="#010101"/>
  <path d="M48.26,27.85c-.08,0-.15,0-.23.01,0,.12.04.24.04.36,0,.16-.03.32-.05.48.08,0,.16-.02.24-.02.21,0,.4.04.6.06.02-.17.03-.34.03-.52,0-.11,0-.22-.02-.33-.2-.02-.41-.04-.61-.04h0Z" fill="#010101"/>
  <path d="M43.49,33.59s0-.08,0-.13c0-.16.03-.32.05-.48-.08,0-.16.02-.24.02-.21,0-.4-.04-.6-.06,0,.16-.02.33-.02.49.29.03.56.08.84.15h-.02Z" fill="#010101"/>
  <path d="M42.65,33.46c0,.11,0,.22.02.33.2.02.41.04.61.04h0c.08,0,.15,0,.23,0,0-.08-.02-.15-.02-.23-.27-.07-.55-.12-.84-.15v.02Z" fill="#010101"/>
  <path d="M35.37,41.8c.17,0,.34,0,.5.03-.11-.32-.18-.66-.24-1.01-.06.34-.15.66-.27.97h.01Z" fill="#010101"/>
  <path d="M25.7,44.5c.19-.02.39-.03.59-.03.25,0,.5.02.74.05-1.52-1-2.52-2.72-2.52-4.68,0-.11.01-.21.02-.32-.26-.1-.53-.18-.81-.24-.02.18-.03.37-.03.56,0,1.84.78,3.49,2.02,4.66h-.01Z" fill="#010101"/>
  <path d="M24.8,38.06c-.29.06-.59.09-.89.1-.03.1-.06.2-.08.31.27.05.54.12.8.21.04-.21.1-.41.17-.61h0Z" fill="#010101"/>
  <path d="M24.53,39.52c.02-.29.05-.57.11-.85-.26-.09-.52-.16-.8-.21-.06.27-.1.54-.12.82.28.05.55.14.81.24Z" fill="#010101"/>
  <path d="M28.95,45.97s.09.06.14.08c.08-.23.17-.45.28-.66-.09,0-.17-.02-.25-.04-.05.21-.1.41-.17.61h0Z" fill="#010101"/>
  <path d="M27.53,44.81c-.17-.09-.34-.19-.5-.29-.24-.03-.49-.05-.74-.05-.2,0-.4,0-.59.03.33.31.69.58,1.07.82.2.02.41.04.6.08.06-.19.12-.39.16-.59Z" fill="#010101"/>
  <path d="M29.11,45.35c-.27-.05-.54-.12-.8-.21-.04.17-.08.33-.13.49.26.09.52.2.76.33.07-.2.12-.41.17-.61Z" fill="#010101"/>
  <path d="M27.53,44.81c-.04.2-.1.4-.16.59.28.06.55.14.82.23.05-.16.09-.32.13-.49-.27-.09-.53-.2-.79-.33Z" fill="#010101"/>
  <path d="M28.95,45.97c-.02.06-.05.12-.07.18.05,0,.11.02.16.02.01-.04.03-.08.05-.12-.05-.03-.09-.06-.14-.08Z" fill="#010101"/>
  <path d="M26.77,45.32c.17.11.35.2.54.29.03-.07.04-.14.07-.21-.2-.04-.4-.07-.6-.08h-.01Z" fill="#010101"/>
  <path d="M28.19,45.64c-.03.1-.07.2-.11.3.26.09.53.16.8.21.02-.06.05-.12.07-.18-.24-.13-.5-.24-.76-.33Z" fill="#010101"/>
  <path d="M28.19,45.64c-.26-.1-.54-.18-.82-.23-.02.07-.04.14-.07.21.25.12.51.23.77.32.04-.1.08-.2.11-.3h0Z" fill="#010101"/>
  <path d="M35.17,37.41h.1c.27,0,.53-.04.78-.08-.92-2.18-3.02-3.75-5.49-3.92.05.29.13.57.23.85,1.94.23,3.57,1.45,4.38,3.14h0Z" fill="#010101"/>
  <path d="M35.5,38.24c.06.2.11.41.14.62.03-.21.08-.42.13-.63-.09,0-.18,0-.27.01Z" fill="#010101"/>
  <path d="M29.75,33.63c-.07.22-.14.43-.23.64.12,0,.25-.02.38-.02-.06-.2-.11-.41-.14-.61h-.01Z" fill="#010101"/>
  <path d="M35.17,37.41c.13.26.24.54.32.82.09,0,.18,0,.27,0,.08-.3.17-.59.29-.87h0c-.26.04-.51.08-.78.08h-.1v-.02Z" fill="#010101"/>
  <path d="M30.12,34.23c.23,0,.45.02.67.04-.1-.27-.18-.55-.23-.85-.15,0-.29-.02-.44-.02-.11,0-.21,0-.31.02-.02.07-.03.14-.05.21.04.21.08.41.14.61.08,0,.15,0,.23,0h-.01Z" fill="#010101"/>
  <path d="M36.38,39.84c0-.3.03-.59.08-.88-.26.05-.52.08-.79.09.04.26.06.52.06.79,0,.34-.03.66-.09.98.05.34.13.68.24,1.01.12,0,.23.03.34.05.11-.34.2-.69.25-1.06-.06-.32-.09-.65-.09-.98Z" fill="#010101"/>
  <path d="M36.46,38.96s0-.07.02-.1c-.04-.24-.09-.48-.15-.71-.18.03-.37.06-.55.08-.05.21-.1.42-.13.63,0,.07.02.13.03.2.27-.02.53-.05.79-.09h0Z" fill="#010101"/>
  <path d="M36.05,37.36c-.12.28-.21.57-.29.87.19-.02.37-.04.55-.08-.07-.27-.16-.54-.27-.79h.01Z" fill="#010101"/>
  <path d="M36.38,39.84c0,.34.03.66.09.98.05-.32.08-.65.08-.98,0-.3-.03-.59-.07-.88h-.03c-.05.29-.08.58-.08.88h0Z" fill="#010101"/>
  <path d="M36.46,38.96h.03s0-.07-.02-.1c0,.03,0,.07-.02.1h.01Z" fill="#010101"/>
  <path d="M34.35,43.51c-.77.88-1.8,1.52-2.98,1.79-.22.29-.42.6-.58.93,1.92-.2,3.6-1.25,4.64-2.77-.1,0-.19-.03-.29-.03-.27,0-.53.04-.79.08Z" fill="#010101"/>
  <path d="M29.64,45.43c.16.1.32.21.47.32.05-.1.1-.2.16-.3h-.15c-.16,0-.32,0-.48-.02Z" fill="#010101"/>
  <path d="M35.87,41.83c-.16-.02-.33-.03-.5-.03-.11.29-.23.56-.38.82h.15c.26,0,.51.02.75.06.06-.11.11-.22.16-.34-.07-.16-.13-.33-.18-.5h0Z" fill="#010101"/>
  <path d="M29.37,45.39c-.1.21-.2.43-.28.66.1.06.2.11.29.18.17.02.34.03.51.03.07-.18.14-.35.22-.52-.15-.11-.31-.22-.47-.32-.09,0-.18-.02-.27-.03Z" fill="#010101"/>
  <path d="M29.04,46.18c.11.02.22.04.34.05-.09-.06-.19-.12-.29-.18-.02.04-.03.08-.05.12h0Z" fill="#010101"/>
  <path d="M36.05,42.32c.06-.14.11-.29.16-.44-.11-.02-.23-.04-.34-.05.05.17.11.33.18.5h0Z" fill="#010101"/>
  <path d="M30.27,45.44c-.06.1-.11.2-.16.3.21.16.41.32.6.5h.09c.15-.34.35-.64.58-.93-.36.08-.72.13-1.1.14h-.01Z" fill="#010101"/>
  <path d="M35.14,42.61h-.15c-.18.32-.4.62-.64.9.26-.04.52-.08.79-.08.1,0,.19.02.29.03.17-.25.32-.52.46-.8-.25-.03-.5-.06-.75-.06h0Z" fill="#010101"/>
  <path d="M30.12,46.27c.2,0,.4,0,.59-.03-.19-.18-.39-.35-.6-.5-.08.17-.16.34-.22.52.08,0,.15,0,.23,0Z" fill="#010101"/>
  <path d="M24.7,36.38c1.41-.34,2.58-1.3,3.19-2.58-1.32.49-2.44,1.4-3.19,2.58Z" fill="#010101"/>
  <path d="M28.91,33.55c-.11.32-.24.63-.41.92.19-.06.38-.1.57-.14-.07-.26-.12-.52-.16-.78Z" fill="#010101"/>
  <path d="M25.22,37.11c-.33.1-.67.17-1.02.21-.05.11-.09.23-.13.35.27.05.54.13.8.21.1-.27.22-.53.35-.77Z" fill="#010101"/>
  <path d="M24.87,37.88c-.26-.09-.53-.16-.8-.21-.06.16-.11.33-.16.49.3,0,.6-.05.89-.1.02-.06.04-.12.06-.18h.01Z" fill="#010101"/>
  <path d="M29.52,34.26c.09-.21.17-.42.23-.64-.01-.07-.02-.13-.03-.2-.27.02-.54.05-.8.1v.03c.04.27.09.53.16.78.15-.03.3-.05.45-.07h-.01Z" fill="#010101"/>
  <path d="M29.72,33.43c0,.07.02.13.03.2.02-.07.03-.14.05-.21h-.08Z" fill="#010101"/>
  <path d="M28.5,34.47c.16-.29.3-.6.41-.92v-.02c-.35.07-.68.17-1.01.29-.62,1.28-1.78,2.24-3.19,2.58-.19.3-.36.61-.5.93.35-.04.69-.11,1.02-.21.7-1.26,1.87-2.22,3.28-2.64h-.01Z" fill="#010101"/>
  <path d="M28.9,33.52v.02-.03h-.01.01Z" fill="#010101"/>
  <path d="M35.37,41.8c.12-.31.21-.64.27-.97-.05-.32-.08-.65-.08-.98,0-.27.02-.53.05-.78-.11,0-.22.02-.34.02-.15,0-.3,0-.44-.02.04.26.08.52.08.79,0,.71-.16,1.38-.44,1.98.22-.02.45-.04.68-.04.08,0,.15,0,.23,0h-.01Z" fill="#010101"/>
  <path d="M25.14,37.98c.17.07.34.14.5.22.05-.15.11-.29.18-.43-.22.08-.45.15-.68.21Z" fill="#010101"/>
  <path d="M29.23,34.85c-.07.12-.14.23-.21.35.1-.02.21-.04.32-.06-.04-.09-.07-.19-.11-.29Z" fill="#010101"/>
  <path d="M29.42,45.29c.12-.24.26-.47.41-.7-.2,0-.4-.02-.59-.06-.02.21-.05.42-.08.62.09.04.18.09.26.14Z" fill="#010101"/>
  <path d="M27.03,44.52c.18.02.35.05.52.08.03-.21.06-.41.06-.62v-.09c-1.33-.83-2.23-2.29-2.26-3.97-.26-.16-.53-.3-.82-.41,0,.11-.02.21-.02.32,0,1.96,1,3.68,2.52,4.68h0Z" fill="#010101"/>
  <path d="M25.64,38.2c-.16-.08-.33-.15-.5-.22-.11.03-.22.06-.34.08-.07.2-.13.4-.17.61.27.09.53.2.79.33.05-.28.13-.55.22-.81h0Z" fill="#010101"/>
  <path d="M29.24,44.54c-.28-.05-.55-.14-.81-.24-.01.18-.03.35-.05.53.27.09.53.2.78.33.04-.2.07-.41.08-.62Z" fill="#010101"/>
  <path d="M28.42,44.3c-.29-.11-.56-.25-.82-.41v.09c0,.21-.04.42-.06.62.28.06.55.13.82.23.03-.17.04-.35.05-.53h.01Z" fill="#010101"/>
  <path d="M25.34,39.84c0-.29.04-.56.08-.83-.25-.13-.51-.24-.79-.33-.06.28-.09.56-.11.85.29.11.56.25.82.41v-.09h0Z" fill="#010101"/>
  <path d="M29.11,45.35c.08.02.17.03.25.04.02-.03.03-.07.05-.1-.09-.05-.18-.09-.26-.14-.01.07-.02.13-.04.2Z" fill="#010101"/>
  <path d="M27.55,44.6c-.17-.03-.34-.06-.52-.08.16.11.33.2.5.29.01-.07.01-.14.02-.21Z" fill="#010101"/>
  <path d="M29.15,45.16c-.25-.13-.51-.24-.78-.33-.02.11-.03.22-.05.32.26.09.52.16.8.21.01-.07.03-.13.04-.2h-.01Z" fill="#010101"/>
  <path d="M28.32,45.15c.02-.11.04-.21.05-.32-.27-.09-.54-.17-.82-.23,0,.07,0,.14-.02.21.25.13.51.24.79.33h0Z" fill="#010101"/>
  <path d="M34.15,37.28c.33.08.67.13,1.03.14-.81-1.69-2.44-2.91-4.38-3.14.12.33.27.64.45.93,1.22.3,2.25,1.05,2.9,2.07Z" fill="#010101"/>
  <path d="M30.12,35.06h.1c-.13-.26-.24-.54-.32-.82-.13,0-.25,0-.38.02-.09.2-.18.39-.29.58.04.1.07.19.11.29.26-.04.51-.08.78-.08h0Z" fill="#010101"/>
  <path d="M35.61,39.06c0-.07.02-.13.03-.2-.04-.21-.08-.42-.14-.62-.08,0-.15,0-.22,0h0c-.23,0-.45-.02-.67-.04.1.27.18.55.23.85.15,0,.29.02.44.02.11,0,.23,0,.34-.02h0Z" fill="#010101"/>
  <path d="M30.79,34.27c-.22-.03-.44-.04-.67-.04-.08,0-.15,0-.23,0,.08.29.19.56.32.82.35,0,.7.06,1.03.14-.18-.29-.33-.6-.45-.93Z" fill="#010101"/>
  <path d="M34.15,37.28c.18.29.33.6.45.93.22.03.44.04.67.04h0c.08,0,.15,0,.22,0-.09-.29-.2-.56-.32-.82-.35,0-.7-.06-1.03-.14h0Z" fill="#010101"/>
  <path d="M35.67,39.05h-.06c-.03.26-.05.52-.05.78,0,.34.03.66.08.98.06-.32.09-.65.09-.98,0-.27-.03-.53-.06-.79h0Z" fill="#010101"/>
  <path d="M35.64,38.86c0,.07-.02.13-.03.2h.06c0-.07-.02-.13-.03-.2Z" fill="#010101"/>
  <path d="M31.37,45.3c1.18-.27,2.21-.91,2.98-1.79-1.21.2-2.26.86-2.98,1.79Z" fill="#010101"/>
  <path d="M35.14,41.78c-.23,0-.45,0-.68.04-.15.34-.35.65-.58.93.36-.08.73-.13,1.1-.14.15-.26.28-.54.38-.82-.08,0-.15,0-.23,0h.01Z" fill="#010101"/>
  <path d="M30.12,44.62c-.1,0-.19-.02-.29-.03-.15.22-.29.46-.41.7.08.04.15.09.22.13.16,0,.32.02.48.02h.15c.18-.32.4-.62.64-.9-.26.04-.52.08-.79.08Z" fill="#010101"/>
  <path d="M29.64,45.43c-.07-.05-.15-.09-.22-.13-.02.03-.03.07-.05.1.09,0,.18.02.27.03Z" fill="#010101"/>
  <path d="M30.91,44.54c-.24.28-.45.58-.64.9.38,0,.75-.06,1.1-.14.72-.93,1.77-1.59,2.98-1.79.24-.28.45-.58.64-.9-.38,0-.75.06-1.1.14-.72.93-1.77,1.59-2.98,1.79Z" fill="#010101"/>
  <path d="M25.83,37.77c.62-1.28,1.78-2.24,3.19-2.58.07-.11.15-.23.21-.35-.06-.17-.12-.34-.16-.51-.19.04-.38.08-.57.14-.7,1.26-1.87,2.22-3.28,2.64-.14.25-.25.5-.35.77.09.03.18.07.27.1.23-.06.46-.13.68-.21h.01Z" fill="#010101"/>
  <path d="M24.87,37.88c-.02.06-.04.12-.06.18.11-.02.23-.05.34-.08-.09-.03-.18-.07-.27-.1h-.01Z" fill="#010101"/>
  <path d="M29.07,34.33c.05.17.1.35.16.51.1-.19.2-.38.29-.58-.15.02-.3.04-.45.07Z" fill="#010101"/>
  <path d="M28.5,34.47c-1.4.42-2.58,1.38-3.28,2.64,1.4-.42,2.58-1.38,3.28-2.64Z" fill="#010101"/>
  <path d="M54.91,41.77c0-1.64-.62-3.14-1.64-4.28-.17.21-.36.42-.56.61.85.98,1.37,2.26,1.37,3.67,0,2.41-1.52,4.45-3.64,5.25.11.25.21.51.28.77,2.44-.92,4.19-3.27,4.19-6.02Z" fill="#010101"/>
  <path d="M42.86,41.77c0-1.3.45-2.5,1.19-3.45-.21-.18-.41-.38-.59-.58-.89,1.1-1.43,2.51-1.43,4.03,0,.63.1,1.24.27,1.82.26-.1.52-.18.79-.24-.15-.5-.23-1.03-.23-1.58Z" fill="#010101"/>
  <path d="M46.79,35.57c.2.22.39.46.56.71.36-.07.74-.11,1.13-.11h0c1.09,0,2.1.32,2.96.85.21-.19.4-.39.57-.61-1.02-.67-2.23-1.06-3.54-1.06-.58,0-1.15.08-1.68.23h0Z" fill="#010101"/>
  <path d="M44.67,36.59c.18.21.38.4.6.58.15-.1.3-.2.45-.28-.18-.22-.37-.42-.58-.61-.16.1-.32.2-.48.32h.01Z" fill="#010101"/>
  <path d="M46.51,36.52c.27-.1.55-.19.84-.25-.17-.25-.36-.48-.56-.71-.29.08-.58.17-.85.29.21.21.39.43.57.67Z" fill="#010101"/>
  <path d="M45.72,36.88c.25-.14.51-.26.78-.36-.17-.24-.36-.46-.57-.67-.28.12-.54.26-.79.42.21.19.4.39.58.61Z" fill="#010101"/>
  <path d="M52.12,37.52c.21.18.4.37.58.58.2-.19.39-.39.56-.61-.18-.21-.38-.4-.59-.58-.17.22-.35.42-.55.61Z" fill="#010101"/>
  <path d="M44.61,37.71c-.21-.18-.4-.37-.58-.58-.2.19-.39.39-.56.61.18.21.38.4.59.58.17-.22.35-.42.55-.61Z" fill="#010101"/>
  <path d="M51.43,37.01c.24.15.47.32.69.51.2-.19.38-.39.55-.61-.21-.18-.43-.36-.67-.51-.17.22-.36.43-.57.61Z" fill="#010101"/>
  <path d="M44.61,37.71c.21-.2.43-.38.67-.55-.22-.18-.42-.37-.6-.58-.23.17-.44.35-.65.54.18.21.37.4.58.58h0Z" fill="#010101"/>
  <path d="M53.26,41.77c0,2.09-1.35,3.85-3.22,4.5.15.24.28.49.4.75,2.13-.8,3.64-2.84,3.64-5.25,0-1.4-.52-2.69-1.37-3.67-.2.19-.42.37-.65.54.73.84,1.19,1.93,1.19,3.13h.01Z" fill="#010101"/>
  <path d="M42.86,41.77c0,.55.08,1.08.23,1.58.27-.06.55-.11.84-.14-.14-.46-.24-.93-.24-1.44,0-1.11.4-2.13,1.04-2.94-.24-.16-.46-.33-.67-.51-.75.95-1.19,2.15-1.19,3.45h-.01Z" fill="#010101"/>
  <path d="M48.47,36.16c-.39,0-.76.04-1.13.11.17.25.31.51.44.78.23-.03.45-.07.69-.07.81,0,1.55.22,2.22.57.27-.16.51-.34.74-.54-.86-.54-1.87-.85-2.96-.85h0Z" fill="#010101"/>
  <path d="M46.04,37.67s.1-.05.15-.08c-.14-.25-.29-.49-.47-.71-.16.09-.31.18-.45.28.24.19.49.36.77.51Z" fill="#010101"/>
  <path d="M46.96,37.25c.26-.09.54-.16.82-.2-.13-.27-.27-.53-.44-.78-.29.06-.57.15-.84.25.17.23.32.47.46.73Z" fill="#010101"/>
  <path d="M45.72,36.88c.18.22.33.46.47.71.25-.14.51-.25.78-.34-.13-.26-.29-.5-.46-.73-.27.1-.53.22-.78.36h-.01Z" fill="#010101"/>
  <path d="M51.46,38.06c.22.18.42.37.6.58.23-.17.44-.35.65-.54-.18-.21-.37-.4-.58-.58-.21.2-.43.38-.66.54h0Z" fill="#010101"/>
  <path d="M44.05,38.32c.21.18.43.36.67.51.17-.22.36-.43.57-.61-.24-.15-.47-.32-.69-.51-.2.19-.38.39-.55.61Z" fill="#010101"/>
  <path d="M50.69,37.56c.27.15.53.31.77.51.24-.16.46-.35.66-.54-.22-.19-.45-.35-.69-.51-.23.21-.48.39-.74.54Z" fill="#010101"/>
  <path d="M45.3,38.22c.23-.21.48-.39.74-.54-.27-.14-.53-.31-.77-.51-.24.16-.46.35-.67.55.22.19.45.35.69.51h0Z" fill="#010101"/>
  <path d="M37.09,26.47c.04-.13.08-.25.12-.37-.14.1-.29.2-.44.29.11.03.22.05.32.08Z" fill="#010101"/>
  <path d="M33.94,15.94h0c3.1,0,5.61,2.51,5.61,5.61h0c0,.56-.08,1.1-.24,1.61.31-.24.63-.46.98-.64.05-.32.08-.64.08-.98,0-3.55-2.89-6.44-6.44-6.44-2.2,0-4.15,1.11-5.31,2.81.29.07.56.15.84.25,1.02-1.36,2.64-2.24,4.48-2.24v.02Z" fill="#010101"/>
  <path d="M34.11,27.15h-.17c-.34,0-.68-.04-1-.09-.11.23-.24.45-.38.66.48-.27,1-.46,1.55-.58h0Z" fill="#010101"/>
  <path d="M35.1,27.04h.17c.56,0,1.1.08,1.61.24.02,0,.03-.01.05-.02.04-.26.09-.52.17-.77-.11-.03-.21-.06-.32-.08-.51.3-1.07.52-1.67.65v-.02Z" fill="#010101"/>
  <path d="M32.56,27.73s-.04.06-.06.09c.46.11.94.17,1.44.17.11,0,.21-.01.31-.02.31-.01.61-.05.91-.1.61-.12,1.19-.32,1.72-.6-.51-.15-1.05-.24-1.61-.24h-.17c-.32.07-.65.1-.99.11-.55.12-1.07.31-1.55.58h0Z" fill="#010101"/>
  <path d="M30.87,27.21c.18-.21.33-.44.47-.69-1.79-.94-3.01-2.81-3.01-4.97h0c0-.66.12-1.3.33-1.89-.26-.09-.53-.15-.81-.19-.22.65-.35,1.35-.35,2.08,0,2.44,1.36,4.57,3.37,5.66Z" fill="#010101"/>
  <path d="M32.13,26.85c-.05.09-.11.18-.17.28.12-.07.24-.14.37-.21-.07-.02-.13-.04-.2-.07Z" fill="#010101"/>
  <path d="M29,18.89c.13-.25.29-.48.46-.71-.27-.1-.55-.19-.84-.25-.16.24-.31.49-.44.75.28.05.55.12.81.21h.01Z" fill="#010101"/>
  <path d="M31.96,27.13c-.09.15-.19.29-.3.43.25.1.51.18.77.24.04-.02.08-.05.12-.07.14-.21.27-.44.38-.66-.21-.04-.41-.08-.61-.14-.13.07-.25.14-.37.21h0Z" fill="#010101"/>
  <path d="M32.5,27.82s.04-.06.06-.09c-.04.02-.08.05-.12.07.02,0,.04.01.06.02Z" fill="#010101"/>
  <path d="M28.66,19.66c.1-.27.21-.53.34-.78-.26-.09-.53-.16-.81-.21-.13.26-.24.52-.34.8.28.04.55.1.81.19Z" fill="#010101"/>
  <path d="M31.96,27.13c.06-.09.12-.18.17-.28-.27-.09-.53-.2-.78-.33-.14.24-.29.47-.47.69.18.1.37.19.57.27.17-.12.34-.24.52-.35h0Z" fill="#010101"/>
  <path d="M31.96,27.13c-.18.11-.35.22-.52.35.07.03.15.05.22.08.1-.14.2-.28.3-.43Z" fill="#010101"/>
  <path d="M37.21,26.1c-.04.12-.08.24-.12.37.23.07.46.15.68.24.05-.03.09-.07.14-.1.36-1.2,1.11-2.22,2.1-2.94.13-.37.22-.75.28-1.14-.35.18-.68.4-.98.64-.36,1.2-1.11,2.22-2.1,2.94h0Z" fill="#010101"/>
  <path d="M37.77,26.71c-.22-.09-.45-.17-.68-.24-.07.25-.13.51-.17.77.3-.16.58-.34.84-.54h0Z" fill="#010101"/>
  <path d="M40.01,23.67c-.99.71-1.74,1.74-2.1,2.94.96-.75,1.69-1.77,2.1-2.94Z" fill="#010101"/>
  <path d="M34.05,26.32s-.08.01-.11.01c-.23,0-.45-.04-.67-.07-.03.1-.07.2-.11.3.29-.1.58-.18.89-.24Z" fill="#010101"/>
  <path d="M33.94,16.77h0c2.64,0,4.78,2.15,4.78,4.78,0,2.29-1.62,4.2-3.77,4.67.1,0,.21-.02.31-.02.52,0,1.02.07,1.5.18.15-.09.3-.18.44-.29.41-1.17,1.15-2.19,2.1-2.94.15-.51.24-1.05.24-1.61h0c0-3.1-2.51-5.61-5.61-5.61h0c-1.83,0-3.45.88-4.48,2.24.27.1.54.22.79.36.88-1.07,2.19-1.77,3.68-1.77h.02Z" fill="#010101"/>
  <path d="M33.17,26.57c-.07.17-.14.34-.23.5.33.06.66.09,1,.09h.17c.34-.01.67-.05.99-.11.6-.13,1.16-.35,1.67-.65-.48-.12-.98-.18-1.5-.18-.11,0-.21.01-.31.02-.31.01-.61.05-.9.1-.3.06-.6.14-.89.24h0Z" fill="#010101"/>
  <path d="M28.33,21.55c0,2.16,1.22,4.03,3.01,4.97.14-.25.26-.5.35-.77-1.5-.81-2.54-2.38-2.54-4.2,0-.55.11-1.07.28-1.56-.25-.13-.5-.24-.77-.33-.21.59-.33,1.22-.33,1.89h0Z" fill="#010101"/>
  <path d="M32.33,26.92c.27-.14.55-.26.84-.36.04-.1.07-.2.11-.3-.28-.04-.55-.1-.81-.19-.1.27-.21.53-.34.78.07.02.13.05.2.07Z" fill="#010101"/>
  <path d="M30.26,18.53c-.25-.14-.52-.25-.79-.36-.17.22-.33.46-.46.71.27.09.53.2.78.33.14-.24.29-.47.47-.69h0Z" fill="#010101"/>
  <path d="M32.94,27.07c.08-.16.16-.33.23-.5-.29.1-.57.22-.84.36.2.06.4.11.61.14Z" fill="#010101"/>
  <path d="M29.44,19.99c.09-.27.21-.53.35-.77-.25-.13-.51-.24-.78-.33-.13.25-.24.51-.34.78.27.09.53.2.77.33h0Z" fill="#010101"/>
  <path d="M32.47,26.08c-.27-.09-.53-.2-.77-.33-.09.27-.21.53-.35.77.25.13.51.24.78.33.13-.25.24-.51.34-.78h0Z" fill="#010101"/>
  <path d="M37.21,26.1c.99-.71,1.74-1.74,2.1-2.94-.96.75-1.69,1.77-2.1,2.94Z" fill="#010101"/>
  <path d="M50.16,49.61h0c0,3.1-2.51,5.61-5.61,5.61-1.99,0-3.73-1.04-4.73-2.6-.19.2-.39.4-.61.58,1.16,1.72,3.12,2.85,5.34,2.85,3.55,0,6.44-2.89,6.44-6.44,0-.63-.1-1.24-.27-1.82-.26.1-.52.18-.79.24.15.5.23,1.03.23,1.58Z" fill="#010101"/>
  <path d="M42.3,43.59c-.56.21-1.09.5-1.56.85.4.11.81.19,1.25.19.19-.1.39-.19.6-.26-.11-.25-.21-.51-.28-.77h0Z" fill="#010101"/>
  <path d="M40.89,45.34v.02s0,0,.02,0h-.03,0Z" fill="#010101"/>
  <path d="M40.48,44.63c.15.23.29.46.41.71h.03c.33-.28.69-.52,1.07-.72-.43,0-.85-.08-1.25-.19-.09.06-.18.13-.26.19h0Z" fill="#010101"/>
  <path d="M38.94,49.61c0-1.02.28-1.97.75-2.79-.1-.32-.23-.63-.39-.91-.74,1.05-1.18,2.33-1.18,3.71,0,.72.12,1.4.34,2.05.24-.23.46-.48.64-.75-.1-.42-.16-.85-.16-1.3h0Z" fill="#010101"/>
  <path d="M39.41,51.85c-.19.22-.39.43-.62.62.13.25.26.5.42.73.22-.18.42-.37.61-.58-.16-.24-.3-.5-.41-.77Z" fill="#010101"/>
  <path d="M39.99,45.08s-.08.09-.12.13c.16.24.3.5.41.77.19-.22.39-.43.62-.62v-.02c-.31-.06-.61-.15-.9-.26h0Z" fill="#010101"/>
  <path d="M39.99,45.08c.29.11.59.2.9.26-.12-.24-.26-.48-.41-.71-.17.14-.33.29-.49.45Z" fill="#010101"/>
  <path d="M39.42,45.74s-.08.11-.12.16c.16.29.29.59.39.91.16-.28.34-.54.55-.79-.28-.08-.55-.17-.81-.29h0Z" fill="#010101"/>
  <path d="M38.45,51.66c.09.28.21.55.34.81.22-.19.43-.4.62-.62-.13-.3-.24-.62-.31-.95-.19.27-.4.52-.64.75h0Z" fill="#010101"/>
  <path d="M39.42,45.74c.26.11.53.21.81.29,0-.02.03-.03.04-.05-.12-.27-.26-.52-.41-.77-.16.17-.31.34-.45.53h0Z" fill="#010101"/>
  <path d="M47.12,43.71c-.18.23-.36.46-.57.66,1.09.42,2.01,1.16,2.66,2.11.29-.05.56-.12.83-.21-.69-1.12-1.7-2.02-2.92-2.56Z" fill="#010101"/>
  <path d="M43.93,43.21c.09.28.2.55.34.81h0c.39-.22.76-.47,1.08-.78-.27-.03-.54-.06-.81-.06-.21,0-.42,0-.62.03Z" fill="#010101"/>
  <path d="M45.63,44.11c.32.06.63.15.92.27.2-.21.39-.43.57-.66-.26-.11-.53-.21-.81-.29-.21.25-.43.47-.68.68Z" fill="#010101"/>
  <path d="M44.28,44.01c.09,0,.18,0,.27,0,.37,0,.73.04,1.08.11.24-.21.47-.44.68-.68-.31-.09-.62-.15-.94-.19-.32.31-.69.57-1.08.78h-.01Z" fill="#010101"/>
  <path d="M49.64,47.26c.12.25.22.51.29.78.27-.06.53-.14.79-.24-.08-.27-.17-.52-.28-.77-.26.1-.52.18-.8.24h0Z" fill="#010101"/>
  <path d="M42.3,43.59c.08.27.17.52.28.77.26-.1.52-.18.8-.24-.12-.25-.22-.51-.29-.78-.27.06-.53.14-.79.24h0Z" fill="#010101"/>
  <path d="M49.21,46.48c.16.24.31.51.43.78.28-.06.54-.14.8-.24-.11-.26-.25-.51-.4-.75-.27.09-.55.17-.83.21Z" fill="#010101"/>
  <path d="M43.38,44.12c.29-.06.58-.09.89-.11-.14-.26-.25-.53-.34-.81-.29.03-.57.08-.84.14.08.27.18.53.29.78Z" fill="#010101"/>
  <path d="M49.34,49.61c0,2.64-2.15,4.79-4.79,4.79-1.79,0-3.34-1-4.16-2.47-.17.24-.36.48-.57.69,1,1.56,2.74,2.6,4.73,2.6,3.1,0,5.61-2.51,5.61-5.61h0c0-.55-.08-1.08-.23-1.58-.27.06-.55.11-.84.14.14.46.24.93.24,1.44h0Z" fill="#010101"/>
  <path d="M41.99,44.62h0c.24,0,.46-.04.69-.07-.03-.06-.06-.13-.09-.19-.21.08-.41.16-.6.26Z" fill="#010101"/>
  <path d="M40.91,45.34s0,0-.02,0c.13.26.25.53.34.81.3-.29.65-.53,1.02-.74-.09,0-.18,0-.27,0-.37,0-.73-.04-1.08-.11v.02Z" fill="#010101"/>
  <path d="M42.68,44.56c-.23.03-.45.07-.69.07h0c-.39.2-.75.44-1.07.72.35.07.71.11,1.08.11.09,0,.18,0,.27,0,.23-.13.47-.24.72-.33-.11-.18-.21-.37-.3-.56h-.01Z" fill="#010101"/>
  <path d="M39.93,48.22c0-.49-.1-.96-.23-1.4-.47.82-.75,1.78-.75,2.79h0c0,.45.06.88.16,1.3.33-.49.57-1.04.7-1.63.05-.23.08-.48.09-.72,0-.11.03-.22.03-.33h0Z" fill="#010101"/>
  <path d="M40,51.01c-.17.3-.37.58-.59.84.12.27.26.52.41.77.2-.22.4-.45.57-.69-.16-.29-.29-.59-.39-.91h0Z" fill="#010101"/>
  <path d="M40.59,46.92c.17-.25.37-.49.59-.71-.3-.04-.58-.1-.87-.17.12.28.21.58.28.88Z" fill="#010101"/>
  <path d="M40.9,45.36c-.22.19-.43.4-.62.62,0,.02.02.05.03.07.28.08.57.14.87.17.02-.02.04-.03.06-.05-.09-.28-.21-.55-.34-.81Z" fill="#010101"/>
  <path d="M39.76,49.61c0-.11.03-.22.03-.33-.13.59-.37,1.14-.7,1.63.08.33.18.65.31.95.22-.26.42-.54.59-.84-.14-.45-.23-.91-.23-1.4h0Z" fill="#010101"/>
  <path d="M40.24,46.03c-.2.25-.38.51-.55.79.14.45.23.91.23,1.4,0,.11-.03.22-.03.33.13-.59.37-1.14.7-1.63-.07-.3-.16-.6-.28-.88-.03,0-.05,0-.08-.02h0Z" fill="#010101"/>
  <path d="M40.31,46.05s-.02-.05-.03-.07c0,.02-.03.03-.04.05.03,0,.05,0,.08.02h-.01Z" fill="#010101"/>
  <path d="M46.55,44.37c-.23.23-.48.44-.75.64.94.26,1.76.79,2.38,1.51.1,0,.19.03.29.03.25,0,.49-.04.74-.07-.64-.95-1.57-1.69-2.66-2.11Z" fill="#010101"/>
  <path d="M44.27,44.02h0,0Z" fill="#010101"/>
  <path d="M44.74,44.73s.07.08.1.13c.33.02.65.07.96.16.26-.2.52-.41.75-.64-.3-.11-.6-.21-.92-.27-.28.23-.57.44-.89.62Z" fill="#010101"/>
  <path d="M44.28,44.01h0c.14.25.29.49.47.71.32-.18.61-.39.89-.62-.35-.07-.71-.11-1.08-.11-.09,0-.18,0-.27,0h0Z" fill="#010101"/>
  <path d="M49.09,48.17c.29-.03.57-.08.84-.14-.08-.27-.18-.53-.29-.78-.29.06-.58.09-.89.11.14.26.25.53.34.81Z" fill="#010101"/>
  <path d="M42.58,44.36c.03.07.06.13.09.19.28-.04.55-.11.82-.2-.04-.08-.08-.16-.11-.23-.28.06-.54.14-.8.24Z" fill="#010101"/>
  <path d="M42.98,45.11c.27-.09.55-.17.83-.21-.12-.17-.22-.35-.32-.54-.26.09-.54.16-.82.2.09.19.19.38.3.56h0Z" fill="#010101"/>
  <path d="M48.47,46.56c-.1,0-.19-.02-.29-.03.22.26.41.54.57.84.3,0,.6-.05.89-.11-.13-.27-.27-.53-.43-.78-.24.04-.48.07-.74.07h0Z" fill="#010101"/>
  <path d="M43.38,44.12c.04.08.07.16.11.23.27-.09.53-.2.78-.34h0c-.3,0-.6.05-.89.11Z" fill="#010101"/>
  <path d="M44.84,44.85s-.07-.08-.1-.13c-.06.03-.12.07-.18.1.1,0,.19.02.29.03h-.01Z" fill="#010101"/>
  <path d="M43.5,44.36c.1.19.2.37.32.54.24-.04.48-.07.74-.07h0c.06-.03.12-.06.18-.1-.18-.22-.33-.46-.47-.71-.25.14-.51.25-.78.34h0Z" fill="#010101"/>
</svg>