<?xml version="1.0" encoding="UTF-8"?>
<svg id="Layer_1" xmlns="http://www.w3.org/2000/svg" version="1.1" viewBox="0 0 72 72">
  <!-- Generator: Adobe Illustrator 30.2.1, SVG Export Plug-In . SVG Version: 2.1.1 Build 1)  -->
  <g>
    <polygon points="17 18.57 15 18.57 15 15.57 18 15.57 18 17.57 17 17.57 17 18.57" fill="#101010"/>
    <path d="M49.84,17.57h-3.98v-2h3.98v2ZM41.88,17.57h-3.98v-2h3.98v2ZM33.92,17.57h-3.98v-2h3.98v2ZM25.96,17.57h-3.98v-2h3.98v2Z" fill="#101010"/>
    <polygon points="56.86 18.57 54.86 18.57 54.86 17.57 53.86 17.57 53.86 15.57 56.86 15.57 56.86 18.57" fill="#101010"/>
    <path d="M56.86,50.41h-2v-3.98h2v3.98ZM56.86,42.45h-2v-3.98h2v3.98ZM56.86,34.49h-2v-3.98h2v3.98ZM56.86,26.53h-2v-3.98h2v3.98Z" fill="#101010"/>
    <polygon points="56.86 57.43 53.86 57.43 53.86 55.43 54.86 55.43 54.86 54.43 56.86 54.43 56.86 57.43" fill="#101010"/>
    <path d="M49.88,57.43h-3.98v-2h3.98v2ZM41.92,57.43h-3.98v-2h3.98v2ZM33.96,57.43h-3.98v-2h3.98v2ZM26,57.43h-3.98v-2h3.98v2Z" fill="#101010"/>
    <polygon points="18 57.43 15 57.43 15 54.43 17 54.43 17 55.43 18 55.43 18 57.43" fill="#101010"/>
    <path d="M17,50.44h-2v-3.98h2v3.98ZM17,42.48h-2v-3.98h2v3.98ZM17,34.52h-2v-3.98h2v3.98ZM17,26.56h-2v-3.98h2v3.98Z" fill="#101010"/>
  </g>
  <polygon points="24.56 34.84 23.14 33.42 35.93 20.64 48.72 33.42 47.3 34.84 35.93 23.46 24.56 34.84" fill="#101010"/>
  <g>
    <rect x="26.43" y="35.51" width="19" height="1.65" fill="#101010"/>
    <g>
      <rect x="36.15" y="34.14" width="4.42" height="4.42" rx="2.21" ry="2.21" transform="translate(-14.47 37.77) rotate(-45)"/>
      <path d="M38.36,39.38c-.78,0-1.55-.29-2.15-.89-1.18-1.18-1.18-3.11,0-4.29,1.18-1.19,3.11-1.18,4.29,0h0c.57.57.89,1.34.89,2.15s-.32,1.57-.89,2.15-1.37.89-2.15.89ZM38.36,34.96c-.35,0-.71.14-.98.41-.54.54-.54,1.42,0,1.96s1.42.54,1.96,0c.26-.26.41-.61.41-.98s-.14-.72-.41-.98h0c-.27-.27-.62-.41-.98-.41Z" fill="#101010"/>
    </g>
    <rect x="26.43" y="41.67" width="19" height="1.65" fill="#101010"/>
    <g>
      <rect x="29.02" y="40.28" width="4.42" height="4.42" rx="2.21" ry="2.21" transform="translate(-20.9 34.52) rotate(-45)"/>
      <path d="M31.23,45.52c-.81,0-1.57-.32-2.15-.89s-.89-1.33-.89-2.15.32-1.57.89-2.15c1.15-1.14,3.15-1.15,4.29,0,.57.57.89,1.33.89,2.15s-.32,1.57-.89,2.15-1.34.89-2.15.89ZM31.23,41.1c-.37,0-.72.14-.98.41-.26.26-.41.61-.41.98s.14.72.41.98c.52.52,1.44.52,1.96,0,.26-.26.41-.61.41-.98,0-.37-.14-.72-.41-.98h0c-.26-.26-.61-.41-.98-.41Z" fill="#101010"/>
    </g>
    <rect x="26.43" y="47.58" width="19" height="1.65" fill="#101010"/>
    <g>
      <rect x="37.75" y="46.2" width="4.42" height="4.42" rx="2.21" ry="2.21" transform="translate(-22.53 42.43) rotate(-45)"/>
      <path d="M39.96,51.44c-.81,0-1.57-.32-2.15-.89-1.18-1.18-1.18-3.11,0-4.29,1.18-1.18,3.11-1.18,4.29,0h0c1.18,1.18,1.18,3.11,0,4.29-.57.57-1.34.89-2.15.89ZM39.96,47.02c-.37,0-.72.14-.98.41-.54.54-.54,1.42,0,1.96.54.54,1.42.54,1.96,0,.54-.54.54-1.42,0-1.96-.26-.26-.61-.41-.98-.41Z" fill="#101010"/>
    </g>
  </g>
</svg>