<?xml version="1.0" encoding="UTF-8"?>
<svg id="Layer_1" xmlns="http://www.w3.org/2000/svg" version="1.1" viewBox="0 0 72 72">
  <!-- Generator: Adobe Illustrator 30.2.1, SVG Export Plug-In . SVG Version: 2.1.1 Build 1)  -->
  <g>
    <g>
      <path d="M52.26,33.9c1.1,6.85-2.22,13.57-8.09,16.94" fill="none" stroke="#101010" stroke-miterlimit="10" stroke-width="2"/>
      <polygon points="43.73 47.66 40.18 52.48 46.13 53.14 43.73 47.66" fill="#101010"/>
    </g>
    <g>
      <path d="M19.53,38.6c-.86-6.67,2.44-13.15,8.16-16.44" fill="none" stroke="#101010" stroke-miterlimit="10" stroke-width="2"/>
      <polygon points="28.13 25.34 31.68 20.52 25.73 19.85 28.13 25.34" fill="#101010"/>
    </g>
  </g>
  <g>
    <polygon points="32.68 44.7 19.97 44.7 16 49.83 16 56.43 36.66 56.43 36.66 49.83 32.68 44.7" fill="none" stroke="#101010" stroke-miterlimit="10" stroke-width="1.64"/>
    <line x1="16" y1="49.83" x2="36.66" y2="49.83" fill="none" stroke="#101010" stroke-miterlimit="10" stroke-width="1.64"/>
  </g>
  <g>
    <polygon points="51.89 16.57 39.17 16.57 35.2 21.69 35.2 28.29 55.86 28.29 55.86 21.69 51.89 16.57" fill="none" stroke="#101010" stroke-miterlimit="10" stroke-width="1.64"/>
    <line x1="35.2" y1="21.69" x2="55.86" y2="21.69" fill="none" stroke="#101010" stroke-miterlimit="10" stroke-width="1.64"/>
  </g>
</svg>