<?xml version="1.0" encoding="UTF-8"?>
<svg id="Layer_1" xmlns="http://www.w3.org/2000/svg" version="1.1" viewBox="0 0 72 72">
  <!-- Generator: Adobe Illustrator 30.2.1, SVG Export Plug-In . SVG Version: 2.1.1 Build 1)  -->
  <path d="M22.61,30.27v12.45c0,6.87,5.57,12.45,12.45,12.45h0c6.87,0,12.45-5.57,12.45-12.45v-12.45" fill="none" stroke="#101010" stroke-miterlimit="10" stroke-width="1.64"/>
  <circle cx="35.06" cy="30.27" r="12.45" fill="none" stroke="#101010" stroke-miterlimit="10" stroke-width="1.64"/>
  <g>
    <path d="M31.52,35.35c-.67,0-1.27-.11-1.8-.34s-.97-.55-1.32-.97-.57-.92-.68-1.49l1.2-.19c.15.59.47,1.06.95,1.39s1.05.5,1.7.5c.42,0,.8-.07,1.14-.2s.61-.32.81-.57.3-.54.3-.88c0-.2-.04-.38-.11-.54-.07-.15-.17-.28-.29-.39s-.26-.19-.42-.27c-.16-.07-.32-.14-.49-.19l-2.4-.71c-.26-.07-.51-.17-.76-.29-.24-.12-.46-.27-.65-.45-.19-.18-.34-.4-.46-.66s-.17-.56-.17-.91c0-.55.14-1.03.43-1.43.29-.4.68-.7,1.18-.91s1.06-.31,1.68-.31,1.2.12,1.7.34.91.54,1.24.94.55.9.66,1.47l-1.24.22c-.07-.38-.21-.71-.44-.99-.22-.28-.5-.49-.84-.64-.34-.15-.7-.23-1.11-.23-.38,0-.73.06-1.04.19s-.56.31-.74.53-.27.48-.27.77.08.53.25.7.37.31.61.42c.24.1.48.19.71.25l1.79.52c.21.06.44.14.71.24.27.1.53.24.78.42.25.18.46.42.63.72s.25.67.25,1.13-.09.86-.27,1.21-.43.65-.75.89-.7.42-1.12.54c-.43.12-.88.18-1.37.18h.02Z" fill="#101010"/>
    <path d="M39,35.33c-.47,0-.9-.09-1.3-.26s-.75-.42-1.04-.73c-.29-.32-.5-.69-.64-1.13l1.12-.32c.14.44.38.77.72.99.34.23.71.34,1.13.33.38,0,.72-.1,1-.26s.5-.4.65-.69c.16-.29.23-.63.23-1.01,0-.58-.17-1.05-.52-1.42-.35-.37-.81-.55-1.37-.55-.16,0-.32.02-.49.07-.17.05-.33.11-.48.18l-.56-.92,3.49-3.16.15.39h-4.69v-1.11h5.55v1.12l-2.97,2.85v-.41c.61-.04,1.16.06,1.62.31.47.25.83.6,1.09,1.06s.39.99.39,1.59-.14,1.13-.41,1.6c-.27.46-.64.83-1.1,1.09s-.98.4-1.57.4h0Z" fill="#101010"/>
  </g>
</svg>