<?xml version="1.0" encoding="UTF-8"?>
<svg id="Layer_1" xmlns="http://www.w3.org/2000/svg" version="1.1" viewBox="0 0 72 72">
  <!-- Generator: Adobe Illustrator 30.2.1, SVG Export Plug-In . SVG Version: 2.1.1 Build 1)  -->
  <rect x="16" y="16.57" width="39.86" height="39.86" fill="none" stroke="#101010" stroke-miterlimit="10" stroke-width="1.64"/>
  <line x1="16" y1="25.79" x2="55.75" y2="25.79" fill="none" stroke="#101010" stroke-miterlimit="10" stroke-width="1.64"/>
  <line x1="27.22" y1="25.79" x2="27.22" y2="56.43" fill="none" stroke="#101010" stroke-miterlimit="10" stroke-width="1.64"/>
  <line x1="55.86" y1="40.36" x2="27.22" y2="40.36" fill="none" stroke="#101010" stroke-miterlimit="10" stroke-width="1.64"/>
  <line x1="37.95" y1="41.11" x2="37.95" y2="56.43" fill="none" stroke="#101010" stroke-miterlimit="10" stroke-width="1.64"/>
  <line x1="46.4" y1="26.56" x2="46.4" y2="40.36" fill="none" stroke="#101010" stroke-miterlimit="10" stroke-width="1.64"/>
  <line x1="32.7" y1="30.13" x2="32.7" y2="37.6" fill="none" stroke="#101010" stroke-miterlimit="10" stroke-width="1.64"/>
  <line x1="36.18" y1="32.2" x2="36.18" y2="37.6" fill="none" stroke="#101010" stroke-miterlimit="10" stroke-width="1.64"/>
  <line x1="39.67" y1="34.22" x2="39.67" y2="37.6" fill="none" stroke="#101010" stroke-miterlimit="10" stroke-width="1.64"/>
  <line x1="24.73" y1="29.13" x2="18.57" y2="29.13" fill="none" stroke="#101010" stroke-miterlimit="10" stroke-width="1.64"/>
  <line x1="23.03" y1="32.61" x2="18.57" y2="32.61" fill="none" stroke="#101010" stroke-miterlimit="10" stroke-width="1.64"/>
  <line x1="21.36" y1="36.1" x2="18.57" y2="36.1" fill="none" stroke="#101010" stroke-miterlimit="10" stroke-width="1.64"/>
  <circle cx="46.4" cy="21.23" r="1.74" fill="#101010"/>
  <circle cx="51.5" cy="21.23" r="1.74" fill="#101010"/>
  <path d="M46.95,48.36l2.32-3.83c-.7-.42-1.5-.65-2.32-.65-2.45,0-4.47,2.02-4.47,4.47s2.02,4.47,4.47,4.47c1.33,0,2.59-.59,3.44-1.61l-3.44-2.86h0Z" fill="none" stroke="#101010" stroke-linejoin="round" stroke-width="1.64"/>
</svg>