<?xml version="1.0" encoding="UTF-8"?>
<svg id="Layer_1" xmlns="http://www.w3.org/2000/svg" version="1.1" viewBox="0 0 72 72">
  <!-- Generator: Adobe Illustrator 30.2.1, SVG Export Plug-In . SVG Version: 2.1.1 Build 1)  -->
  <path d="M44.48,28.09h-1.64v-5.98c-.66-.52-1.38-.97-2.15-1.33v5.88h-.82s-7.88,0-7.88,0h0s-.82,0-.82,0v-5.88c-.77.36-1.49.81-2.15,1.33v5.98h-1.64v-4.39c-1.46,1.74-2.38,3.93-2.56,6.32h22.22c-.18-2.4-1.1-4.58-2.56-6.32v4.39Z" fill="none"/>
  <path d="M35.92,55.6c6.15,0,11.15-5,11.15-11.15v-11.15h-22.3v11.15c0,6.15,5,11.15,11.15,11.15Z" fill="none"/>
  <path d="M47.07,44.45c0,6.15-5,11.15-11.15,11.15s-11.15-5-11.15-11.15v-11.15h-1.64v11.15c0,7.05,5.74,12.79,12.79,12.79s12.79-5.74,12.79-12.79v-11.15h-1.64v11.15Z" fill="#101010"/>
  <path d="M42.84,22.11v-.28h1.64v1.87c1.46,1.74,2.38,3.93,2.56,6.32h1.64c-.32-5.01-3.53-9.25-7.99-11.04v1.79c.77.36,1.49.81,2.15,1.33Z" fill="#101010"/>
  <path d="M27.38,23.7v-1.87h1.64v.28c.66-.52,1.38-.97,2.15-1.33v-1.79c-4.46,1.8-7.67,6.03-7.99,11.04h1.64c.18-2.4,1.1-4.59,2.56-6.32Z" fill="#101010"/>
  <polygon points="19.33 33.3 23.13 33.3 23.13 32.48 24.77 32.48 24.77 33.3 47.07 33.3 47.07 32.48 48.71 32.48 48.71 33.3 52.53 33.3 52.53 31.66 19.33 31.66 19.33 33.3" fill="#101010"/>
  <rect x="23.13" y="32.48" width="1.64" height=".82" fill="#101010"/>
  <rect x="47.07" y="32.48" width="1.64" height=".82" fill="#101010"/>
  <path d="M44.48,28.09v-4.39c-.49-.59-1.04-1.12-1.64-1.59v5.98h1.64Z" fill="#101010"/>
  <path d="M44.48,23.7v-1.87h-1.64v.28c.6.47,1.15,1.01,1.64,1.59Z" fill="#101010"/>
  <path d="M29.02,28.09v-5.98c-.6.47-1.15,1-1.64,1.59v4.39h1.64Z" fill="#101010"/>
  <path d="M29.02,22.11v-.28h-1.64v1.87c.49-.59,1.04-1.12,1.64-1.59Z" fill="#101010"/>
  <path d="M31.99,26.65v-6.23c-.28.11-.55.22-.82.35v5.88h.82Z" fill="#101010"/>
  <path d="M31.99,16.57h7.88v2.11c.28.09.55.19.82.3v-3.23h-9.52v3.23c.27-.11.54-.21.82-.3v-2.11Z" fill="#101010"/>
  <path d="M40.69,26.65v-5.88c-.27-.13-.54-.24-.82-.35v6.23h.82Z" fill="#101010"/>
  <path d="M31.99,20.42v-1.74c-.28.09-.55.19-.82.3v1.79c.27-.13.54-.24.82-.35Z" fill="#101010"/>
  <path d="M39.87,20.42c.28.11.55.22.82.35v-1.79c-.27-.11-.54-.21-.82-.3v1.74Z" fill="#101010"/>
  <path d="M32.81,26.65v-6.51c-.28.08-.55.18-.82.28v6.23h.82Z" fill="#101010"/>
  <path d="M39.05,26.65h.82v-6.23c-.27-.1-.54-.2-.82-.28v6.51Z" fill="#101010"/>
  <path d="M32.81,17.39h6.24v1.06c.28.07.55.14.82.23v-2.11h-7.88v2.11c.27-.09.54-.16.82-.23v-1.06Z" fill="#101010"/>
  <path d="M39.05,20.14c.28.08.55.18.82.28v-1.74c-.27-.09-.54-.16-.82-.23v1.69Z" fill="#101010"/>
  <path d="M32.81,18.45c-.28.07-.55.14-.82.23v1.74c.27-.1.54-.2.82-.28v-1.69Z" fill="#101010"/>
</svg>