<?xml version="1.0" encoding="UTF-8"?>
<svg id="Layer_1" xmlns="http://www.w3.org/2000/svg" version="1.1" viewBox="0 0 72 72">
  <!-- Generator: Adobe Illustrator 30.2.1, SVG Export Plug-In . SVG Version: 2.1.1 Build 1)  -->
  <path d="M34.36,46.16c1.86-.74,3.92-.24,5.31,1.22,4.21-2.01,6.31-6.3,6.06-10.92-.24-2.62-1.84-5.38-3.66-7.29l.02,3.98c0,.42-.22.72-.6.73-.42.01-.69-.28-.7-.74l-.1-6.3,6.42.1c.4,0,.73.21.75.59.02.35-.26.71-.66.7l-4.21-.06c2.06,2.38,3.73,5.05,4.03,8.2.27,5.07-2.03,9.7-6.59,12.1,1.3,2.5.21,5.44-2.21,6.6s-5.43.09-6.54-2.42.04-5.44,2.68-6.49h0ZM39.65,50.68c0-1.95-1.58-3.53-3.53-3.53s-3.53,1.58-3.53,3.53,1.58,3.53,3.53,3.53,3.53-1.58,3.53-3.53Z" fill="#101010"/>
  <path d="M22.16,31.26c2.68.38,4.49,2.74,4.3,5.32s-2.41,4.63-5.02,4.61c-2.57-.02-4.77-2.08-4.93-4.68s1.71-4.9,4.33-5.26v-6.87l-2.81,2.88c-.27.29-.68.29-.97.04-.23-.21-.29-.65-.01-.94l4.43-4.57,4.4,4.56c.28.29.28.66.06.93-.25.3-.71.29-.99,0l-2.81-2.9v6.87h.02ZM25.16,36.19c0-2.02-1.64-3.66-3.66-3.66s-3.66,1.64-3.66,3.66,1.64,3.66,3.66,3.66,3.66-1.64,3.66-3.66Z" fill="#101010"/>
  <path d="M41.17,40.94l-10.27.02c-.21,0-.43-.28-.48-.43-.07-.2-.01-.46.12-.67l4.89-8.08c.12-.2.37-.34.57-.35.17,0,.46.12.57.31l4.97,8.2c.16.26.12,1-.37,1h0ZM39.81,39.63l-3.81-6.26-3.79,6.26h7.6Z" fill="#101010"/>
  <path d="M55.49,21.7c0,2.75-2.23,4.98-4.98,4.98s-4.98-2.23-4.98-4.98,2.23-4.98,4.98-4.98,4.98,2.23,4.98,4.98ZM54.15,21.69c0-2.02-1.63-3.65-3.65-3.65s-3.65,1.63-3.65,3.65,1.63,3.65,3.65,3.65,3.65-1.63,3.65-3.65Z" fill="#101010"/>
  <path d="M25.79,54.07c.3.3.32.7.07.96-.22.24-.65.29-.92.02l-3.44-3.43-3.46,3.45c-.27.27-.67.24-.88.04-.27-.25-.31-.69-.04-.96l3.45-3.47-3.43-3.42c-.28-.28-.23-.71.02-.94.28-.25.67-.23.95.05l3.38,3.38,3.37-3.36c.27-.27.63-.33.91-.13s.4.68.11.97l-3.45,3.45,3.36,3.39h0Z" fill="#101010"/>
  <path d="M54.59,53.96c.31.32.4.72.12,1.02s-.73.25-1.03-.06l-3.17-3.28-3.29,3.39c-.25.26-.73.15-.9-.03-.25-.27-.25-.68,0-.94l3.27-3.38-3.27-3.38c-.25-.26-.17-.71.04-.9.28-.25.68-.23.96.06l3.17,3.27,3.18-3.29c.26-.27.65-.33.95-.1.24.19.34.67.06.95l-3.28,3.4,3.17,3.28h.02Z" fill="#101010"/>
</svg>