<?xml version="1.0" encoding="UTF-8"?>
<svg id="Layer_1" xmlns="http://www.w3.org/2000/svg" version="1.1" viewBox="0 0 72 72">
  <!-- Generator: Adobe Illustrator 30.2.1, SVG Export Plug-In . SVG Version: 2.1.1 Build 1)  -->
  <path d="M44.88,52.47l-8.1,3.65c-.26.12-.68.34-.97.28l-14.56-6.57c-.33-.15-.51-.45-.51-.83v-17.7c.01-.28.17-.59.4-.69l6.89-3.02v-7.03c0-.32.04-.75.37-.89l7.58-3.13,7.58,3.22c.25.11.25.57.25.8l.02,7,6.65,2.96c.45.2.65.54.65,1.05v17.4c0,.49-.26.79-.68.98l-5.57,2.53h0ZM35.47,22.59c.34.16.72.08.93-.03l4.65-2.14c-.32-.44-4.42-2.04-5.09-2.25-.31-.1-.73.26-1.02.37l-3.91,1.52c-.15.06-.24.23-.19.29.03.04.15.15.25.2l4.37,2.04h.01ZM36.68,30.17l5.64-2.59v-5.89c-1.48.38-2.61,1-3.9,1.52-.61.24-1.2.41-1.79.81l.05,6.16h0ZM29.38,33.56l4.35-2.02c.15-.07.26-.21.22-.29-.03-.05-.14-.13-.27-.19l-4.05-1.82c-.54-.24-1.02-.3-1.59-.06l-4.46,1.88c-.28.13-.22.27.02.38l4.48,2.11c.4.19.78.23,1.29,0h0ZM43.46,33.66l4.08-1.85c.36-.16.73-.2,1.03-.56-1.51-.74-3.02-1.37-4.62-2.01-.58-.23-1.02-.24-1.61.02l-4.25,1.85c-.15.07-.27.16-.22.22.03.04.14.15.25.21l4.26,1.97c.33.15.65.36,1.09.16h-.01ZM49.31,39.92c.29-.13.4-.37.39-.69l-.05-6.73-5.77,2.51-.03,6.98c0,.18.1.31.3.22l5.16-2.29h0ZM34.85,39.92c.29-.13.4-.37.39-.69l-.05-6.73-5.77,2.51-.03,6.98c0,.18.1.31.3.22l5.16-2.29h0ZM36.73,45.63l4.67-2.2c-.29-.39-.67-.45-1.03-.6l-4.44-1.87-5.13,2.17c-.13.06-.23.21-.35.28l4.69,2.2c.54.25.95.31,1.58.02h.01ZM44.23,51.21l5.44-2.49-.04-7.37c-1.97.78-3.62,1.56-5.38,2.42-.2.1-.36.34-.36.58l-.02,6.53c0,.13.1.45.35.33h0ZM42.11,52.18c.23-.17.37-.36.37-.61l-.06-6.95-5.77,2.64.05,7.29c1.99-.67,3.29-1.57,5.42-2.37h-.01Z" fill="#101010"/>
</svg>