<?xml version="1.0" encoding="UTF-8"?>
<svg id="Layer_1" xmlns="http://www.w3.org/2000/svg" version="1.1" viewBox="0 0 72 72">
  <!-- Generator: Adobe Illustrator 30.2.1, SVG Export Plug-In . SVG Version: 2.1.1 Build 1)  -->
  <path d="M44.37,19.87c-.27,0-.63.06-.93.12s-.57-.15-.62-.45c-.27-1.69-1.74-2.97-3.5-2.97-1.45,0-2.69.86-3.24,2.1-.16.36-.6.48-.95.28-.95-.55-2.05-.87-3.22-.87-3.56,0-6.44,2.88-6.44,6.44,0,.01-.2,0-.31,0-1.26,0-2.29,1.02-2.29,2.29s1.02,2.29,2.29,2.29h19.21c1.79.06,3.48-.95,4.18-2.59,1.45-3.38-.98-6.64-4.18-6.64Z" fill="none" stroke="#101010" stroke-miterlimit="10" stroke-width="1.65"/>
  <line x1="35.93" y1="29.1" x2="35.93" y2="56.43" fill="none" stroke="#101010" stroke-miterlimit="10" stroke-width="1.65"/>
  <path d="M48.98,36.5h6.88c0,11.01-8.92,19.93-19.93,19.93s-19.93-8.92-19.93-19.93h6.88" fill="none" stroke="#101010" stroke-miterlimit="10" stroke-width="1.65"/>
</svg>