<?xml version="1.0" encoding="UTF-8"?>
<svg id="Layer_1" xmlns="http://www.w3.org/2000/svg" version="1.1" viewBox="0 0 72 72">
  <!-- Generator: Adobe Illustrator 30.2.1, SVG Export Plug-In . SVG Version: 2.1.1 Build 1)  -->
  <rect x="29.64" y="30.21" width="12.58" height="12.58" fill="none" stroke="#101010" stroke-miterlimit="10" stroke-width="2"/>
  <circle cx="35.93" cy="23.92" r="1.71" fill="#101010"/>
  <rect x="29.64" y="42.79" width="12.58" height="12.58" fill="none" stroke="#101010" stroke-miterlimit="10" stroke-width="2"/>
  <rect x="17.07" y="30.21" width="12.58" height="12.58" fill="none" stroke="#101010" stroke-miterlimit="10" stroke-width="2"/>
  <rect x="42.22" y="30.21" width="12.58" height="12.58" fill="none" stroke="#101010" stroke-miterlimit="10" stroke-width="2"/>
  <rect x="17.07" y="17.63" width="12.58" height="12.58" fill="none" stroke="#101010" stroke-miterlimit="10" stroke-width="2"/>
  <rect x="17.07" y="42.79" width="12.58" height="12.58" fill="none" stroke="#101010" stroke-miterlimit="10" stroke-width="2"/>
  <rect x="42.22" y="17.63" width="12.58" height="12.58" fill="none" stroke="#101010" stroke-miterlimit="10" stroke-width="2"/>
  <rect x="42.22" y="42.79" width="12.58" height="12.58" fill="none" stroke="#101010" stroke-miterlimit="10" stroke-width="2"/>
  <circle cx="35.93" cy="36.5" r="1.71" fill="#101010"/>
  <rect x="29.64" y="17.63" width="12.58" height="12.58" fill="none" stroke="#101010" stroke-miterlimit="10" stroke-width="2"/>
  <circle cx="35.93" cy="49.07" r="1.71" fill="#101010"/>
  <circle cx="23.35" cy="36.5" r="1.71" fill="#101010"/>
  <circle cx="48.5" cy="36.5" r="1.71" fill="#101010"/>
  <circle cx="23.35" cy="23.92" r="1.71" fill="#101010"/>
  <circle cx="23.35" cy="49.07" r="1.71" fill="#101010"/>
  <circle cx="48.5" cy="23.92" r="1.71" fill="#101010"/>
  <circle cx="48.5" cy="49.07" r="1.71" fill="#101010"/>
</svg>