<?xml version="1.0" encoding="UTF-8"?>
<svg id="Layer_1" xmlns="http://www.w3.org/2000/svg" version="1.1" viewBox="0 0 72 72">
  <!-- Generator: Adobe Illustrator 30.2.1, SVG Export Plug-In . SVG Version: 2.1.1 Build 1)  -->
  <polygon points="41.8 43.54 53.02 54.75 54.18 53.59 43.22 42.62 43.22 43.54 41.8 43.54" fill="#101010"/>
  <polygon points="29.56 28.96 18.84 18.25 17.68 19.41 28.64 30.38 28.64 28.96 29.56 28.96" fill="#101010"/>
  <polygon points="28.64 42.62 17.68 53.59 18.84 54.75 30.06 43.54 28.64 43.54 28.64 42.62" fill="#101010"/>
  <polygon points="43.22 30.38 54.18 19.41 53.02 18.25 42.3 28.96 43.22 28.96 43.22 30.38" fill="#101010"/>
  <rect x="43.22" y="35.67" width="12.47" height="1.65" fill="#101010"/>
  <rect x="16.16" y="35.67" width="12.48" height="1.65" fill="#101010"/>
  <rect x="35.1" y="16.73" width="1.65" height="12.23" fill="#101010"/>
  <rect x="35.1" y="43.54" width="1.65" height="12.72" fill="#101010"/>
  <polygon points="29.64 37.33 28.64 37.33 28.64 42.62 29.64 41.62 29.64 37.33" fill="#101010"/>
  <polygon points="31.06 42.54 30.06 43.54 35.1 43.54 35.1 42.54 31.06 42.54" fill="#101010"/>
  <polygon points="42.22 37.33 42.22 41.62 43.22 42.62 43.22 37.33 42.22 37.33" fill="#101010"/>
  <polygon points="35.1 29.96 35.1 28.96 29.56 28.96 30.56 29.96 35.1 29.96" fill="#101010"/>
  <polygon points="36.76 42.54 36.76 43.54 41.8 43.54 40.8 42.54 36.76 42.54" fill="#101010"/>
  <polygon points="41.3 29.96 42.3 28.96 36.76 28.96 36.76 29.96 41.3 29.96" fill="#101010"/>
  <polygon points="42.22 35.67 43.22 35.67 43.22 30.38 42.22 31.38 42.22 35.67" fill="#101010"/>
  <polygon points="29.64 31.38 28.64 30.38 28.64 35.67 29.64 35.67 29.64 31.38" fill="#101010"/>
  <polygon points="42.22 42.54 40.8 42.54 41.8 43.54 43.22 43.54 43.22 42.62 42.22 41.62 42.22 42.54" fill="#101010"/>
  <polygon points="29.64 29.96 30.56 29.96 29.56 28.96 28.64 28.96 28.64 30.38 29.64 31.38 29.64 29.96" fill="#101010"/>
  <polygon points="29.64 42.54 29.64 41.62 28.64 42.62 28.64 43.54 30.06 43.54 31.06 42.54 29.64 42.54" fill="#101010"/>
  <polygon points="42.22 29.96 42.22 31.38 43.22 30.38 43.22 28.96 42.3 28.96 41.3 29.96 42.22 29.96" fill="#101010"/>
  <rect x="42.22" y="35.67" width="1" height="1.65" fill="#101010"/>
  <rect x="28.64" y="35.67" width="1" height="1.65" fill="#101010"/>
  <rect x="35.1" y="28.96" width="1.65" height="1" fill="#101010"/>
  <rect x="35.1" y="42.54" width="1.65" height="1" fill="#101010"/>
  <polygon points="40.3 30.96 41.3 29.96 36.76 29.96 36.76 30.96 40.3 30.96" fill="#101010"/>
  <polygon points="41.22 35.67 42.22 35.67 42.22 31.38 41.22 32.38 41.22 35.67" fill="#101010"/>
  <polygon points="36.76 41.54 36.76 42.54 40.8 42.54 39.8 41.54 36.76 41.54" fill="#101010"/>
  <polygon points="41.22 40.62 42.22 41.62 42.22 37.33 41.22 37.33 41.22 40.62" fill="#101010"/>
  <polygon points="41.22 41.54 39.8 41.54 40.8 42.54 42.22 42.54 42.22 41.62 41.22 40.62 41.22 41.54" fill="#101010"/>
  <polygon points="30.64 32.38 29.64 31.38 29.64 35.67 30.64 35.67 30.64 32.38" fill="#101010"/>
  <polygon points="35.1 30.96 35.1 29.96 30.56 29.96 31.56 30.96 35.1 30.96" fill="#101010"/>
  <polygon points="30.64 30.96 31.56 30.96 30.56 29.96 29.64 29.96 29.64 31.38 30.64 32.38 30.64 30.96" fill="#101010"/>
  <polygon points="30.64 37.33 29.64 37.33 29.64 41.62 30.64 40.62 30.64 37.33" fill="#101010"/>
  <polygon points="32.06 41.54 31.06 42.54 35.1 42.54 35.1 41.54 32.06 41.54" fill="#101010"/>
  <polygon points="30.64 41.54 30.64 40.62 29.64 41.62 29.64 42.54 31.06 42.54 32.06 41.54 30.64 41.54" fill="#101010"/>
  <polygon points="41.22 30.96 41.22 32.38 42.22 31.38 42.22 29.96 41.3 29.96 40.3 30.96 41.22 30.96" fill="#101010"/>
  <rect x="29.64" y="35.67" width="1" height="1.65" fill="#101010"/>
  <rect x="41.22" y="35.67" width="1" height="1.65" fill="#101010"/>
  <rect x="35.1" y="29.96" width="1.65" height="1" fill="#101010"/>
  <rect x="35.1" y="41.54" width="1.65" height="1" fill="#101010"/>
  <path d="M36.76,37.74c.19-.11.36-.25.49-.41h-.49v.41Z" fill="#101010"/>
  <path d="M35.1,34.76c-.36.2-.64.52-.78.91h.78v-.91Z" fill="#101010"/>
  <path d="M34.61,37.33c.14.17.3.31.49.41v-.41h-.49Z" fill="#101010"/>
  <path d="M37.53,35.67c-.14-.39-.42-.71-.78-.91v.91h.78Z" fill="#101010"/>
  <path d="M34.25,35.98c-.01.09-.03.18-.03.27,0,.23.05.46.13.66l.41-.41-.52-.52Z" fill="#101010"/>
  <path d="M35.1,36.16v-.48h-.78c-.04.1-.06.2-.08.31l.52.52.34-.34Z" fill="#101010"/>
  <path d="M37.51,36.91c.09-.2.13-.43.13-.66,0-.09-.01-.18-.03-.27l-.52.52.41.41Z" fill="#101010"/>
  <path d="M36.76,36.84v.48h.49c.1-.13.19-.26.26-.41l-.41-.41-.34.34Z" fill="#101010"/>
  <path d="M35.1,36.84l-.34-.34-.41.41c.06.15.15.29.26.41h.49v-.48Z" fill="#101010"/>
  <polygon points="34.76 36.5 35.1 36.84 35.1 36.16 34.76 36.5" fill="#101010"/>
  <path d="M36.76,35.67v.48l.34.34.52-.52c-.02-.11-.04-.21-.08-.31h-.78Z" fill="#101010"/>
  <polygon points="37.1 36.5 36.76 36.16 36.76 36.84 37.1 36.5" fill="#101010"/>
  <path d="M36.59,34.67c-.2-.09-.43-.13-.66-.13s-.46.05-.66.13l.66.66.66-.66Z" fill="#101010"/>
  <path d="M35.59,35.67l.34-.34-.66-.66c-.06.02-.11.06-.16.09v.91h.48Z" fill="#101010"/>
  <path d="M35.66,37.93c.09.01.18.03.27.03s.18-.01.27-.03l-.27-.27-.27.27Z" fill="#101010"/>
  <path d="M36.27,37.33l-.34.34.27.27c.2-.03.39-.1.56-.19v-.41h-.48Z" fill="#101010"/>
  <path d="M35.59,37.33h-.48v.41c.17.1.36.16.56.19l.27-.27-.34-.34Z" fill="#101010"/>
  <polygon points="35.93 37.67 36.27 37.33 35.59 37.33 35.93 37.67" fill="#101010"/>
  <path d="M36.27,35.67h.48v-.91c-.05-.03-.11-.06-.16-.09l-.66.66.34.34Z" fill="#101010"/>
  <polygon points="35.93 35.33 35.59 35.67 36.27 35.67 35.93 35.33" fill="#101010"/>
  <polygon points="35.1 35.67 35.1 36.16 35.59 35.67 35.1 35.67" fill="#101010"/>
  <polygon points="36.76 37.33 36.76 36.84 36.27 37.33 36.76 37.33" fill="#101010"/>
  <polygon points="35.1 37.33 35.59 37.33 35.1 36.84 35.1 37.33" fill="#101010"/>
  <polygon points="36.76 36.16 36.76 35.67 36.27 35.67 36.76 36.16" fill="#101010"/>
  <polygon points="35.59 35.67 35.1 36.16 35.1 36.84 35.59 37.33 36.27 37.33 36.76 36.84 36.76 36.16 36.27 35.67 35.59 35.67" fill="#101010"/>
</svg>