<?xml version="1.0" encoding="UTF-8"?>
<svg id="Layer_1" xmlns="http://www.w3.org/2000/svg" version="1.1" viewBox="0 0 72 72">
  <!-- Generator: Adobe Illustrator 30.2.1, SVG Export Plug-In . SVG Version: 2.1.1 Build 1)  -->
  <polygon points="40.45 42.38 55.09 57.01 56.25 55.85 41.61 41.2 41.61 42.38 40.45 42.38" fill="#101010"/>
  <polygon points="31.03 30.62 16.39 15.99 15.23 17.15 29.85 31.78 29.85 30.62 31.03 30.62" fill="#101010"/>
  <polygon points="29.85 41.22 15.23 55.85 16.39 57.01 31.03 42.38 29.85 42.38 29.85 41.22" fill="#101010"/>
  <polygon points="41.61 31.8 56.25 17.15 55.09 15.99 40.45 30.62 41.61 30.62 41.61 31.8" fill="#101010"/>
  <rect x="34.92" y="42.38" width="1.65" height="14.05" fill="#101010"/>
  <rect x="34.92" y="16.57" width="1.65" height="14.05" fill="#101010"/>
  <rect x="41.61" y="35.67" width="15.02" height="1.65" fill="#101010"/>
  <rect x="15.49" y="35.67" width="14.36" height="1.65" fill="#101010"/>
  <polygon points="35.4 35.67 34.92 36.16 34.92 36.84 35.4 37.33 36.08 37.33 36.57 36.84 36.57 36.16 36.08 35.67 35.4 35.67" fill="#101010"/>
  <polygon points="31.85 41.56 31.03 42.38 34.92 42.38 34.92 41.56 31.85 41.56" fill="#101010"/>
  <polygon points="40.79 37.33 40.79 40.38 41.61 41.2 41.61 37.33 40.79 37.33" fill="#101010"/>
  <polygon points="36.57 41.56 36.57 42.38 40.45 42.38 39.63 41.56 36.57 41.56" fill="#101010"/>
  <polygon points="40.79 35.67 41.61 35.67 41.61 31.8 40.79 32.62 40.79 35.67" fill="#101010"/>
  <polygon points="39.63 31.44 40.45 30.62 36.57 30.62 36.57 31.44 39.63 31.44" fill="#101010"/>
  <polygon points="34.92 31.44 34.92 30.62 31.03 30.62 31.85 31.44 34.92 31.44" fill="#101010"/>
  <polygon points="30.67 32.6 29.85 31.78 29.85 35.67 30.67 35.67 30.67 32.6" fill="#101010"/>
  <polygon points="30.67 37.33 29.85 37.33 29.85 41.22 30.67 40.4 30.67 37.33" fill="#101010"/>
  <polygon points="40.79 41.56 39.63 41.56 40.45 42.38 41.61 42.38 41.61 41.2 40.79 40.38 40.79 41.56" fill="#101010"/>
  <polygon points="30.67 31.44 31.85 31.44 31.03 30.62 29.85 30.62 29.85 31.78 30.67 32.6 30.67 31.44" fill="#101010"/>
  <polygon points="40.79 31.44 40.79 32.62 41.61 31.8 41.61 30.62 40.45 30.62 39.63 31.44 40.79 31.44" fill="#101010"/>
  <polygon points="30.67 41.56 30.67 40.4 29.85 41.22 29.85 42.38 31.03 42.38 31.85 41.56 30.67 41.56" fill="#101010"/>
  <rect x="34.92" y="30.62" width="1.65" height=".82" fill="#101010"/>
  <rect x="34.92" y="41.56" width="1.65" height=".82" fill="#101010"/>
  <rect x="40.79" y="35.67" width=".82" height="1.65" fill="#101010"/>
  <rect x="29.85" y="35.67" width=".82" height="1.65" fill="#101010"/>
  <polygon points="34.92 32.26 34.92 31.44 31.85 31.44 32.67 32.26 34.92 32.26" fill="#101010"/>
  <polygon points="38.81 32.26 39.63 31.44 36.57 31.44 36.57 32.26 38.81 32.26" fill="#101010"/>
  <polygon points="39.97 35.67 40.79 35.67 40.79 32.62 39.97 33.44 39.97 35.67" fill="#101010"/>
  <polygon points="31.49 33.42 30.67 32.6 30.67 35.67 31.49 35.67 31.49 33.42" fill="#101010"/>
  <polygon points="32.67 40.74 31.85 41.56 34.92 41.56 34.92 40.74 32.67 40.74" fill="#101010"/>
  <polygon points="39.97 39.56 40.79 40.38 40.79 37.33 39.97 37.33 39.97 39.56" fill="#101010"/>
  <polygon points="36.57 40.74 36.57 41.56 39.63 41.56 38.81 40.74 36.57 40.74" fill="#101010"/>
  <polygon points="31.49 37.33 30.67 37.33 30.67 40.4 31.49 39.58 31.49 37.33" fill="#101010"/>
  <polygon points="31.49 32.26 32.67 32.26 31.85 31.44 30.67 31.44 30.67 32.6 31.49 33.42 31.49 32.26" fill="#101010"/>
  <polygon points="39.97 40.74 38.81 40.74 39.63 41.56 40.79 41.56 40.79 40.38 39.97 39.56 39.97 40.74" fill="#101010"/>
  <polygon points="39.97 32.26 39.97 33.44 40.79 32.62 40.79 31.44 39.63 31.44 38.81 32.26 39.97 32.26" fill="#101010"/>
  <polygon points="31.49 40.74 31.49 39.58 30.67 40.4 30.67 41.56 31.85 41.56 32.67 40.74 31.49 40.74" fill="#101010"/>
  <rect x="34.92" y="31.44" width="1.65" height=".82" fill="#101010"/>
  <rect x="34.92" y="40.74" width="1.65" height=".82" fill="#101010"/>
  <rect x="30.67" y="35.67" width=".82" height="1.65" fill="#101010"/>
  <rect x="39.97" y="35.67" width=".82" height="1.65" fill="#101010"/>
</svg>