<?xml version="1.0" encoding="UTF-8"?>
<svg id="Layer_1" xmlns="http://www.w3.org/2000/svg" version="1.1" viewBox="0 0 72 72">
  <!-- Generator: Adobe Illustrator 30.2.1, SVG Export Plug-In . SVG Version: 2.1.1 Build 1)  -->
  <path d="M35.93,17.1c-7.57,0-13.73,6.16-13.73,13.73v23.88l13.73-7.77,13.73,7.77v-23.88c0-7.57-6.16-13.73-13.73-13.73ZM31.99,47.43h-1.65v-12.66h1.65v12.66ZM36.79,45.15c0,.46-.37.83-.83.83s-.83-.37-.83-.83v-14.66c0-.46.37-.83.83-.83s.83.37.83.83v14.66ZM41.58,47.17h-1.65v-17.12c0-2.19-1.78-3.97-3.97-3.97s-3.97,1.78-3.97,3.97v1.75h-1.65v-1.75c0-3.1,2.52-5.62,5.62-5.62s5.62,2.52,5.62,5.62v17.12ZM46.41,49.18h-1.65v-6.33h1.65v6.33ZM46.41,39.39h-1.65v-9.76c0-4.85-3.95-8.79-8.79-8.79-2.43,0-4.64.99-6.23,2.59l.79.65-1.91,2.32-.61-.5c-.53,1.13-.84,2.4-.84,3.73v19.85h-1.65v-19.85c0-1.74.43-3.37,1.18-4.81l-1.47-1.21,1.91-2.32,1.32,1.09c1.9-1.97,4.56-3.2,7.5-3.2,5.76,0,10.45,4.69,10.45,10.45v9.76Z" fill="none"/>
  <path d="M35.96,19.18c-2.94,0-5.6,1.23-7.5,3.2l1.27,1.05c1.59-1.6,3.8-2.59,6.23-2.59,4.85,0,8.79,3.95,8.79,8.79v9.76h1.65v-9.76c0-5.76-4.69-10.45-10.45-10.45Z" fill="#101010"/>
  <path d="M25.51,29.63v9.19h1.65v-9.19c0-1.34.31-2.6.84-3.73l-1.31-1.08c-.75,1.44-1.18,3.08-1.18,4.81Z" fill="#101010"/>
  <path d="M35.96,24.42c-3.1,0-5.62,2.52-5.62,5.62v1.75h1.65v-1.75c0-2.19,1.78-3.97,3.97-3.97s3.97,1.78,3.97,3.97v17.12h1.65v-17.12c0-3.1-2.52-5.62-5.62-5.62Z" fill="#101010"/>
  <rect x="44.75" y="42.85" width="1.65" height="6.33" fill="#101010"/>
  <rect x="30.33" y="34.77" width="1.65" height="12.66" fill="#101010"/>
  <path d="M35.96,29.67c-.46,0-.83.37-.83.83v14.66c0,.46.37.83.83.83s.83-.37.83-.83v-14.66c0-.46-.37-.83-.83-.83Z" fill="#101010"/>
  <rect x="25.51" y="39.82" width="1.65" height="9.66" fill="#101010"/>
  <rect x="25.51" y="38.82" width="1.65" height="1" fill="#101010"/>
  <path d="M35.93,15.44c-8.48,0-15.39,6.9-15.39,15.39v26.71l15.39-8.71,15.39,8.71v-26.71c0-8.48-6.9-15.39-15.39-15.39ZM49.67,54.71l-13.73-7.77-13.73,7.77v-23.88c0-7.57,6.16-13.73,13.73-13.73s13.73,6.16,13.73,13.73v23.88Z" fill="#101010"/>
</svg>