<?xml version="1.0" encoding="UTF-8"?>
<svg id="Layer_1" xmlns="http://www.w3.org/2000/svg" version="1.1" viewBox="0 0 72 72">
  <!-- Generator: Adobe Illustrator 30.2.1, SVG Export Plug-In . SVG Version: 2.1.1 Build 1)  -->
  <path d="M48.03,41.26h-.02l.1.84s0,0,0,0l.11.86c1.08.32,1.88,1.32,1.88,2.52h0c0,1.46-1.18,2.63-2.63,2.63s-2.62-1.18-2.62-2.63c0-1.13.72-2.08,1.71-2.46h0c.28-.09.58-.16.9-.16.26,0,.51.05.74.12l-.11-.88c-.21-.04-.42-.06-.64-.06h.01c-.35,0-.67.06-.99.16h0s0,0,0,0h0c.32-.1.65-.17.99-.17.22,0,.43.03.64.06l-.1-.84s0,0,0,0l-.66-5.5s0,0,0,0l-.1-.83c-.35.13-.73.22-1.14.22h0c-.17-.01-.33-.03-.5-.06h0s0,0-.01,0l-.1-.86c-.76-.2-1.36-.76-1.64-1.48h0c-.1-.27-.16-.55-.16-.85s.06-.56.15-.81h0c.33-.93,1.22-1.6,2.27-1.6,1.33,0,2.42,1.08,2.42,2.42,0,.96-.57,1.78-1.38,2.17v-.02c-.31.15-.66.24-1.03.24h-.01c-.21,0-.41-.03-.61-.08l.1.86c.17.03.33.05.51.05.4,0,.78-.08,1.14-.22v.02s0,0,0,0l.1.82c1.64-.53,2.83-2.04,2.83-3.85,0-2.24-1.82-4.07-4.07-4.07-.28,0-.54.03-.8.08v.86c.26-.07.53-.11.8-.11,1.79,0,3.24,1.45,3.24,3.24,0,0,0,0,0,0,0-1.79-1.45-3.24-3.24-3.24-.28,0-.55.05-.8.11h0c-.08.01-.17.04-.25.07h.25s-.25.01-.25.01c-1.01.35-1.79,1.18-2.06,2.23h0c.27-1.05,1.06-1.89,2.07-2.24h-.01c.08-.03.16-.06.25-.08v-.86s0,0,.01,0v-4.19c0-5.27-4.29-9.57-9.56-9.57s-9.57,4.29-9.57,9.57v4.26c.6.04,1.15.2,1.65.47v-4.72c0-4.36,3.55-7.92,7.92-7.92s7.91,3.55,7.91,7.92v4.94s0,0,0,0h0c-.76.6-1.32,1.43-1.52,2.42h-.01s-12.22.08-12.22.08h-.01c-.25-1.19-1.03-2.16-2.07-2.72-.5-.27-1.05-.43-1.65-.47-.09,0-.17-.03-.25-.03-2.24,0-4.06,1.82-4.06,4.07,0,1.77,1.14,3.26,2.72,3.82l-.78,5.85c.16-.02.33-.05.5-.05.4,0,.77.08,1.14.19l.77-5.77s0,0,0,0c1.83-.13,3.34-1.47,3.69-3.23h0s0,0,0-.01l12.23-.08c.36,1.71,1.79,2.99,3.56,3.18h0s0,0,0,0l.66,5.45c.35-.1.72-.16,1.1-.16-.38,0-.75.07-1.1.16v.02c-1.81.49-3.16,2.14-3.16,4.12,0,.73.2,1.41.53,2.01h-.01s-5.55,2.95-5.55,2.95c.47.33.86.76,1.16,1.25l5.47-2.9.04-.02s-.74-1.41-.76-1.44h.01s.77,1.45.77,1.45l-.04.02c.73.59,1.65.95,2.67.95,2.36,0,4.28-1.92,4.28-4.29,0-2.17-1.64-3.95-3.74-4.22ZM24.69,34.99c-1.18-.49-2-1.64-2-2.99,0-1.79,1.45-3.24,3.24-3.24,0,0,0,0,0,0-1.79,0-3.23,1.45-3.23,3.24,0,1.34.82,2.5,1.99,2.98h0ZM28.2,32.82c-.28.78-.93,1.37-1.75,1.55l-.11.84s0,0-.01,0c0,0,0,0,0,0l.11-.83c-.17.04-.34.06-.52.06h.02c-.4-.01-.77-.12-1.1-.29v-.02c-.77-.4-1.3-1.2-1.3-2.13h-.01c0-1.32,1.08-2.41,2.41-2.41,1.04,0,1.91.66,2.26,1.58h-.01c.1.27.16.55.16.84s-.06.56-.15.81h.01ZM29.06,32.8h0c.07-.26.11-.52.11-.8s-.05-.57-.13-.84h.01c.07.28.13.55.13.84s-.05.54-.11.8ZM43,32.72h0c-.07-.28-.13-.56-.13-.85h.01c0-.28.05-.55.11-.8h0c-.07.26-.11.53-.11.8s.05.56.13.84h-.02s0,0,0,0ZM47.47,48.95c-1.91,0-3.45-1.54-3.45-3.45,0,0,0-.01,0-.02,0,1.91,1.54,3.45,3.45,3.45s3.45-1.54,3.45-3.45c0,0,0,0,0,0,0,1.92-1.54,3.46-3.45,3.46Z" fill="#101010"/>
  <path d="M33.03,50.9l-5.07-3.46c-.24.51-.58.95-1,1.31l5.15,3.52.7.47s0,0,0,0l.71.48c.13-.56.46-1.04.91-1.38h.01c.4-.29.89-.47,1.43-.47.16,0,.32.02.47.05.65.13,1.2.52,1.55,1.05h-.02c.25.39.4.84.4,1.33h.01c0,1.32-1.08,2.41-2.42,2.41s-2.41-1.08-2.41-2.42c0-.19.03-.38.07-.56l-.7-.47s0,0,0,0l-.71-.48c-.19.47-.3.99-.3,1.53,0,2.24,1.82,4.07,4.06,4.07s4.07-1.82,4.07-4.07c0-.77-.23-1.48-.6-2.09-.3-.49-.69-.92-1.16-1.25h0c-.66-.47-1.45-.74-2.31-.74-1.11,0-2.11.45-2.84,1.17ZM38.61,52.09s0,0,0,0c.31.5.5,1.08.5,1.7h-.01c0,1.79-1.45,3.24-3.24,3.24,0,0,0,0,0,0,1.79,0,3.24-1.45,3.24-3.24,0-.63-.19-1.21-.5-1.7h.01Z" fill="#101010"/>
  <path d="M27.28,46.96l.67.47c.25-.53.41-1.11.41-1.74,0-1.84-1.24-3.38-2.91-3.88h0s0,0,0,0h0s0,.01,0,.01c-.37-.11-.75-.19-1.15-.19-.17,0-.33.03-.5.05l-.11.83s0,0,0,0h0c-.18.04-.36.09-.53.15.17-.06.35-.12.53-.15l.11-.84c-2.01.25-3.57,1.94-3.57,4.02,0,2.24,1.82,4.06,4.06,4.06,1.02,0,1.94-.39,2.66-1.01.42-.36.76-.81,1-1.31h.01l-.68-.47s0,0,0,0ZM25.34,42.65h0c1.28.43,2.2,1.62,2.2,3.04,0,0,0,0,0,0,0-1.41-.92-2.61-2.2-3.04h0c-.33-.12-.67-.2-1.04-.2.37,0,.71.07,1.04.19ZM24.29,48.93c-1.79,0-3.24-1.45-3.24-3.24,0-1.39.87-2.56,2.1-3.03-1.22.46-2.09,1.65-2.09,3.03,0,1.79,1.45,3.24,3.24,3.24,0,0,0,0,0,0ZM25.52,47.77c-.36.21-.77.34-1.21.34h-.01c-1.33,0-2.41-1.08-2.41-2.41,0-1.08.71-1.98,1.69-2.29h0c.23-.07.46-.12.72-.12.33,0,.64.07.93.19.87.36,1.48,1.23,1.48,2.23,0,.28-.06.53-.14.78h0c-.19.54-.56.99-1.05,1.28h0ZM26.25,48.26h0c.44-.34.79-.77,1.02-1.29h0c-.22.51-.58.95-1.02,1.29Z" fill="#101010"/>
  <path d="M35.99,37.1c-1.22,0-2.21.99-2.21,2.21,0,.93.58,1.72,1.39,2.05v3.28h1.64v-3.28c.81-.33,1.39-1.12,1.39-2.05,0-1.22-.99-2.21-2.21-2.21Z" fill="#101010"/>
</svg>