<?xml version="1.0" encoding="UTF-8"?>
<svg id="Layer_1" xmlns="http://www.w3.org/2000/svg" version="1.1" viewBox="0 0 72 72">
  <!-- Generator: Adobe Illustrator 30.2.1, SVG Export Plug-In . SVG Version: 2.1.1 Build 1)  -->
  <g>
    <path d="M47.45,28.08c-3.47,0-9.36-.65-9.36-3.1s5.88-3.1,9.36-3.1,9.36.65,9.36,3.1-5.88,3.1-9.36,3.1ZM39.78,24.98c.41.48,2.94,1.45,7.67,1.45s7.26-.98,7.67-1.45c-.41-.48-2.94-1.45-7.67-1.45s-7.26.98-7.67,1.45Z" fill="#101010"/>
    <path d="M47.45,34.33c-2.45,0-3.11-5.88-3.11-9.35s.65-9.35,3.11-9.35,3.11,5.88,3.11,9.35-.65,9.35-3.11,9.35ZM47.45,17.31c-.48.41-1.46,2.93-1.46,7.67s.98,7.26,1.46,7.67c.48-.41,1.46-2.94,1.46-7.67s-.98-7.26-1.46-7.67Z" fill="#101010"/>
  </g>
  <g>
    <path d="M24.65,57.34c-2.55,0-4.95-.99-6.75-2.8-1.8-1.8-2.8-4.2-2.8-6.75s.99-4.95,2.8-6.75l9.55-9.55,1.16,1.16-9.55,9.55c-1.49,1.49-2.32,3.48-2.32,5.59s.82,4.1,2.32,5.59c1.49,1.5,3.48,2.32,5.6,2.32s4.1-.82,5.59-2.32l9.55-9.55,1.16,1.16-9.55,9.55c-1.8,1.8-4.2,2.8-6.75,2.8Z" fill="#101010"/>
    <g>
      <circle cx="34.19" cy="38.23" r="8.73" fill="none"/>
      <path d="M34.19,47.78c-5.27,0-9.55-4.28-9.55-9.55s4.28-9.55,9.55-9.55,9.55,4.28,9.55,9.55-4.28,9.55-9.55,9.55ZM34.19,30.32c-4.36,0-7.91,3.55-7.91,7.91s3.55,7.91,7.91,7.91,7.91-3.55,7.91-7.91-3.55-7.91-7.91-7.91Z" fill="#101010"/>
    </g>
  </g>
</svg>