<?xml version="1.0" encoding="UTF-8"?>
<svg id="Layer_1" xmlns="http://www.w3.org/2000/svg" version="1.1" viewBox="0 0 72 72">
  <!-- Generator: Adobe Illustrator 30.2.1, SVG Export Plug-In . SVG Version: 2.1.1 Build 1)  -->
  <path d="M15.98,51.33l1.17,1.17,5.4-5.41c-.32-.48-.59-.99-.81-1.52l-5.76,5.77Z" fill="#101010"/>
  <polygon points="21.95 55.6 27.98 55.6 24.96 52.59 21.95 55.6" fill="#101010"/>
  <path d="M24.96,51.43l5.01,5h-10.01l6.12-6.13c-.25-.13-.49-.28-.73-.43l-7.38,7.39h13.99l-5.84-5.83.76-.76c-.27-.11-.53-.23-.79-.37l-1.12,1.13Z" fill="#101010"/>
  <path d="M19.96,56.43h10.01l-5.01-5,1.12-1.13s0,0,0,0l-6.12,6.13ZM27.98,55.6h-6.03l3.01-3.01,3.02,3.01Z" fill="#101010"/>
  <path d="M36.71,48.02c-2.71,2.71-6.75,3.26-10,1.67l.58.58-.4.4c1.17.48,2.41.73,3.66.73,2.45,0,4.89-.93,6.75-2.79l10.79-10.79h-.01c-.92.91-2.04,1.64-3.28,2.13l-8.08,8.08Z" fill="#101010"/>
  <path d="M22.73,45.75c-1.63-3.27-1.1-7.35,1.63-10.08l8.06-8.06c.48-1.25,1.22-2.38,2.15-3.31l-10.79,10.79c-1.8,1.8-2.8,4.2-2.8,6.75,0,1.3.26,2.56.75,3.72l.4-.4.59.59Z" fill="#101010"/>
  <path d="M24.36,48.02c-.47-.47-.87-.99-1.22-1.54l-.6.6c.36.54.77,1.05,1.23,1.52.49.49,1.01.91,1.57,1.26l.6-.6c-.56-.35-1.1-.76-1.59-1.25Z" fill="#101010"/>
  <path d="M22.73,45.75l-.59-.59-.4.4c.22.53.5,1.04.81,1.52l.6-.6c-.15-.24-.29-.49-.42-.74Z" fill="#101010"/>
  <path d="M26.7,49.68c-.26-.13-.51-.26-.75-.42l-.6.6c.24.16.48.3.73.43l.61-.62Z" fill="#101010"/>
  <path d="M26.71,49.69s0,0,0,0l-.61.62c.26.14.53.26.79.37l.4-.4-.58-.58Z" fill="#101010"/>
  <polygon points="26.08 50.3 26.08 50.3 26.7 49.68 26.7 49.68 26.08 50.3" fill="#101010"/>
  <path d="M36.13,47.44c-1.49,1.5-3.48,2.32-5.6,2.32s-4.1-.82-5.6-2.32c-1.49-1.49-2.32-3.48-2.32-5.59s.82-4.1,2.32-5.6l7.01-7.01c.11-.56.27-1.11.48-1.63l-8.06,8.06c-2.73,2.73-3.27,6.81-1.63,10.08l.58.58-.16.16c.34.54.74,1.06,1.22,1.54s1.02.9,1.59,1.25l.17-.17.59.59c3.26,1.59,7.3,1.04,10-1.67l8.08-8.08c-.53.21-1.07.37-1.64.48l-7.02,7.02Z" fill="#101010"/>
  <path d="M22.73,45.75c.13.25.26.5.42.74l.16-.16-.58-.58Z" fill="#101010"/>
  <path d="M25.95,49.27c.25.15.5.29.75.42h0s0,0,0,0c0,0,0,0,0,0l-.59-.59-.17.17Z" fill="#101010"/>
  <polygon points="26.7 49.68 26.7 49.68 26.7 49.68 26.7 49.68" fill="#101010"/>
  <path d="M48.75,26.48l.59-.59c-.72-1.12-1.67-2.08-2.78-2.81l-.59.59c1.13.71,2.08,1.67,2.78,2.81Z" fill="#101010"/>
  <path d="M35.15,24.88c1.58-1.58,3.76-2.56,6.17-2.56,1.09,0,2.13.21,3.09.57l.64-.64c-1.14-.49-2.4-.76-3.72-.76-2.63,0-5.02,1.07-6.75,2.8h0s.58.58.58.58Z" fill="#101010"/>
  <path d="M50.87,31.05c0-1.29-.26-2.52-.72-3.64l-.64.64c.34.94.54,1.95.54,3,0,2.41-.98,4.59-2.56,6.17h0s0,0,0,0l.57.57c1.73-1.73,2.8-4.12,2.8-6.75Z" fill="#101010"/>
  <path d="M37.99,39.12c-1.89-.78-3.44-2.2-4.39-4l-.71-.71.27-.27c-.36-.96-.57-2-.57-3.08s.2-2.05.54-2.99l-1.18,1.18c-.11.59-.18,1.19-.18,1.81,0,5.27,4.28,9.55,9.55,9.55.63,0,1.24-.06,1.83-.18l1.19-1.19c-.94.35-1.95.55-3.02.55s-2.07-.2-3-.54l-.1.1-.22-.22Z" fill="#101010"/>
  <polygon points="47.5 37.23 47.5 37.23 47.49 37.22 47.49 37.22 47.5 37.23" fill="#101010"/>
  <path d="M44.79,39.94c1.24-.49,2.35-1.21,3.28-2.14l-.57-.57-2.71,2.71Z" fill="#101010"/>
  <path d="M35.09,24.94s.04-.05.06-.07l-.58-.58h0c-.93.93-1.66,2.06-2.15,3.31l2.66-2.66Z" fill="#101010"/>
  <path d="M44.34,39.23l-1.19,1.19c.57-.11,1.12-.28,1.64-.48l2.71-2.71h0c-.88.88-1.96,1.56-3.16,2Z" fill="#101010"/>
  <path d="M33.13,28.06c.43-1.18,1.1-2.24,1.96-3.12l-2.66,2.66c-.2.52-.37,1.07-.48,1.63l1.18-1.18Z" fill="#101010"/>
  <path d="M35.73,25.46c1.43-1.43,3.41-2.32,5.59-2.32.85,0,1.68.14,2.45.39l.64-.64c-.96-.36-2-.57-3.09-.57-2.41,0-4.59.98-6.17,2.56h0s.58.58.58.58Z" fill="#101010"/>
  <path d="M48.15,27.08l.6-.6c-.7-1.14-1.65-2.1-2.78-2.81l-.6.6c1.15.69,2.11,1.65,2.78,2.81Z" fill="#101010"/>
  <path d="M49.23,31.05c0,2.18-.89,4.16-2.32,5.59l.58.58c1.58-1.58,2.56-3.76,2.56-6.17,0-1.06-.2-2.07-.54-3l-.64.64c.23.75.36,1.54.36,2.36Z" fill="#101010"/>
  <path d="M41.32,38.96c-.82,0-1.62-.13-2.36-.36l-.64.64c.94.34,1.95.54,3,.54s2.08-.2,3.02-.55l2.58-2.58.57.57s0,0,0,0l-.58-.58c-1.43,1.43-3.41,2.32-5.59,2.32Z" fill="#101010"/>
  <path d="M33.16,34.13l.64-.64c-.25-.77-.39-1.59-.39-2.44,0-2.18.88-4.15,2.31-5.58l-2.6,2.6c-.34.93-.54,1.94-.54,2.99s.21,2.12.57,3.08Z" fill="#101010"/>
  <path d="M34.53,35.09l-.48.48-.45-.45c.95,1.79,2.5,3.22,4.39,4l-.94-.94.3-.3c-1.16-.68-2.12-1.64-2.81-2.78Z" fill="#101010"/>
  <path d="M35.15,24.88s-.04.05-.06.07l.06-.06h0Z" fill="#101010"/>
  <path d="M46.92,36.65l-2.58,2.58c1.2-.44,2.27-1.13,3.16-2.01l-.57-.57Z" fill="#101010"/>
  <path d="M35.72,25.47s0,0,0,0l-.58-.58-.06.06c-.86.88-1.53,1.94-1.96,3.12l2.6-2.6Z" fill="#101010"/>
  <polygon points="44.97 17.4 47.34 19.96 49.91 17.4 44.97 17.4" fill="#101010"/>
  <path d="M47.32,21.15l-4.24-4.58h8.82l-4.58,4.58h0s-1.49,1.49-1.49,1.49c.25.13.49.28.73.44l7.33-7.33h-12.7l4.98,5.38-1.13,1.13c.27.11.53.24.79.38l1.49-1.49Z" fill="#101010"/>
  <path d="M39.37,29.1l5.24-5.23c-.27-.12-.55-.24-.84-.33l-4.98,4.98.58.58Z" fill="#101010"/>
  <path d="M39.95,29.68l5.42-5.41c-.25-.15-.5-.28-.76-.4l-5.24,5.23.58.58Z" fill="#101010"/>
  <path d="M34.13,34.33c.12.26.26.52.4.76l5.42-5.41-.58-.58-5.24,5.23Z" fill="#101010"/>
  <path d="M39.37,29.1l-.58-.58-4.98,4.98c.09.29.21.56.33.84l5.24-5.23Z" fill="#101010"/>
  <path d="M45.22,23.25c.26.13.5.27.74.42l.59-.59c-.24-.16-.48-.3-.73-.44l-.61.61Z" fill="#101010"/>
  <path d="M45.22,23.25l.61-.61c-.26-.14-.52-.27-.79-.38l-.64.64c.28.11.55.22.81.35Z" fill="#101010"/>
  <path d="M33.47,34.99l.05-.05c-.13-.26-.25-.53-.35-.81l-.27.27.71.71c-.03-.06-.06-.12-.08-.17l-.05.05Z" fill="#101010"/>
  <path d="M45.37,24.27l.6-.6c-.24-.15-.49-.29-.74-.42l-.62.61c.26.12.52.26.76.4Z" fill="#101010"/>
  <path d="M44.6,23.86l.62-.61c-.26-.13-.53-.25-.81-.35l-.64.64c.29.09.56.21.84.33Z" fill="#101010"/>
  <path d="M34.13,34.33c-.12-.27-.24-.55-.33-.84l-.64.64c.11.28.22.55.35.81l.62-.62Z" fill="#101010"/>
  <path d="M34.53,35.09c-.15-.25-.28-.5-.4-.76l-.62.61c.03.06.05.12.08.17l.45.45.48-.48Z" fill="#101010"/>
  <polygon points="47.32 21.15 47.32 21.15 45.83 22.64 45.83 22.64 47.32 21.15" fill="#101010"/>
  <path d="M43.08,16.57l4.24,4.58,4.58-4.58h-8.82ZM44.97,17.4h4.94l-2.57,2.56-2.37-2.56Z" fill="#101010"/>
  <polygon points="39.37 29.1 44.61 23.86 44.6 23.86 39.37 29.1 39.37 29.1" fill="#101010"/>
  <polygon points="34.13 34.33 39.37 29.1 39.37 29.1 34.13 34.33 34.13 34.33" fill="#101010"/>
  <polygon points="45.83 22.64 45.83 22.64 45.22 23.25 45.22 23.25 45.83 22.64" fill="#101010"/>
  <polygon points="33.47 34.99 33.52 34.94 33.52 34.94 33.47 34.99" fill="#101010"/>
  <polygon points="44.61 23.86 45.22 23.25 45.22 23.25 44.6 23.86 44.61 23.86" fill="#101010"/>
  <polygon points="33.52 34.94 33.52 34.94 34.13 34.33 34.13 34.33 33.52 34.94" fill="#101010"/>
  <path d="M55.88,21.67l-1.17-1.17-5.38,5.38c.31.48.58.99.81,1.53l5.74-5.74Z" fill="#101010"/>
  <path d="M43.91,33.64l4.96-4.96c-.18-.57-.43-1.11-.72-1.61l-5.4,5.4,1.17,1.17Z" fill="#101010"/>
  <path d="M42.75,32.48l-5.4,5.4c.51.3,1.04.54,1.61.72l4.96-4.96-1.17-1.17Z" fill="#101010"/>
  <path d="M49.51,28.05l.64-.64c-.22-.54-.49-1.05-.81-1.53l-.59.59c.3.49.56,1.02.76,1.57Z" fill="#101010"/>
  <path d="M38.21,39.34l.1-.1c-.11-.04-.22-.08-.33-.12l.22.22Z" fill="#101010"/>
  <path d="M48.15,27.08c.3.51.54,1.04.72,1.61l.64-.64c-.2-.55-.46-1.08-.76-1.57l-.6.6Z" fill="#101010"/>
  <path d="M37.05,38.18l.94.94c.11.04.22.08.33.12l.64-.64c-.57-.18-1.11-.43-1.61-.72l-.3.3Z" fill="#101010"/>
</svg>