<?xml version="1.0" encoding="UTF-8"?>
<svg id="Layer_1" xmlns="http://www.w3.org/2000/svg" version="1.1" viewBox="0 0 72 72">
  <!-- Generator: Adobe Illustrator 30.2.1, SVG Export Plug-In . SVG Version: 2.1.1 Build 1)  -->
  <path d="M52.94,36.43l-3.07-12.19c1.41-.64,2.4-2.05,2.4-3.7,0-2.24-1.82-4.07-4.06-4.07s-3.91,1.69-4.04,3.82l-15.02,2.19c-.56-1.57-2.05-2.71-3.82-2.71-2.24,0-4.07,1.82-4.07,4.06,0,1.46.78,2.73,1.94,3.45l-3.43,9.49c-.12-.01-.24-.04-.37-.04-2.24,0-4.06,1.82-4.06,4.07s1.82,4.07,4.06,4.07c.94,0,1.8-.34,2.49-.88l10.65,8.24c-.24.52-.38,1.08-.38,1.69,0,2.24,1.82,4.06,4.07,4.06s4.07-1.82,4.07-4.06c0-.8-.24-1.53-.64-2.16l.93-.69-.98-1.33-1.1.81c-.15-.1-.31-.18-.47-.26l3.22-8.67h7.28c.09.4.25.78.45,1.13l-1.38,1.02.98,1.32,1.46-1.09c.73.58,1.65.94,2.65.94,2.36,0,4.27-1.92,4.27-4.29s-1.8-4.13-4.05-4.25ZM23.38,39.99c-.04-.21-.11-.4-.18-.59l22.3-15.85c.18.16.36.3.56.43l-5.94,16.01h-16.73ZM20.52,42.94c-.34.18-.71.29-1.12.29-1.33,0-2.41-1.08-2.41-2.42,0-1.26.97-2.28,2.19-2.39.07,0,.15-.02.22-.02.51,0,.99.16,1.38.44.06.04.11.09.16.13.32.27.57.62.72,1.02.05.13.09.27.11.42.02.13.04.27.04.41,0,.29-.06.57-.15.83,0,.03-.01.06-.03.08-.22.53-.62.96-1.12,1.22ZM50.62,20.54c0,.87-.47,1.63-1.16,2.06-.37.22-.79.36-1.25.36,0,0-.01,0-.02,0-.12,0-.24-.02-.35-.04-.35-.05-.67-.18-.96-.36-.08-.05-.16-.12-.23-.19-.23-.19-.41-.42-.56-.69-.08-.14-.14-.3-.19-.46-.07-.22-.11-.45-.11-.69,0-.17.02-.33.05-.49.23-1.1,1.2-1.93,2.37-1.93,1.33,0,2.41,1.08,2.41,2.42ZM24.76,27.85c.19.03.38.06.57.06,2.14,0,3.89-1.68,4.04-3.78l15.04-2.19c.04.1.07.19.11.29l-22.2,15.78c-.28-.29-.61-.53-.97-.73l3.41-9.42ZM36.44,49.88c-.07,0-.14-.02-.21-.02-.19,0-.38.03-.56.06l-.51-1.4-1.55.57.51,1.38c-.21.13-.41.28-.59.44l-10.57-8.17c.19-.34.34-.71.42-1.1h16.12l-3.06,8.24ZM47.6,24.55c.2.03.4.06.61.06.02,0,.03,0,.05,0l3.03,12.06c-1.45.51-2.54,1.77-2.8,3.32h-6.62l5.73-15.44Z" fill="#101010"/>
  <rect x="42.44" y="46.61" width="3.32" height="1.65" transform="translate(-19.59 35.67) rotate(-36.63)" fill="#101010"/>
  <rect x="45.04" y="34.47" width="1.65" height="4.02" transform="translate(-9.24 56.42) rotate(-58.39)" fill="#101010"/>
  <rect x="31.35" y="26.04" width="1.65" height="4.02" transform="translate(-8.58 40.76) rotate(-58.4)" fill="#101010"/>
  <rect x="38.19" y="30.26" width="1.65" height="4.02" transform="translate(-8.91 48.6) rotate(-58.4)" fill="#101010"/>
  <rect x="26.98" y="28.91" width="1.65" height="3.51" transform="translate(-8.79 11.32) rotate(-19.93)" fill="#101010"/>
  <rect x="31.77" y="42.1" width="1.65" height="3.51" transform="translate(-13 13.74) rotate(-19.93)" fill="#101010"/>
  <rect x="29.38" y="35.51" width="1.65" height="3.51" transform="translate(-10.9 12.53) rotate(-19.94)" fill="#101010"/>
</svg>