<?xml version="1.0" encoding="UTF-8"?>
<svg id="Layer_1" xmlns="http://www.w3.org/2000/svg" version="1.1" viewBox="0 0 72 72">
  <!-- Generator: Adobe Illustrator 30.2.1, SVG Export Plug-In . SVG Version: 2.1.1 Build 1)  -->
  <path d="M52.44,35.58l-3.07-12.19c1.41-.64,2.4-2.05,2.4-3.7,0-2.24-1.82-4.07-4.06-4.07s-3.91,1.69-4.04,3.82l-15.02,2.19c-.56-1.57-2.05-2.71-3.82-2.71-2.24,0-4.07,1.82-4.07,4.06,0,1.46.78,2.73,1.94,3.45l-3.43,9.49c-.12-.01-.24-.04-.37-.04-2.24,0-4.06,1.82-4.06,4.07s1.82,4.07,4.06,4.07c.94,0,1.8-.34,2.49-.88l10.65,8.24c-.24.51-.38,1.08-.38,1.68,0,2.24,1.82,4.06,4.07,4.06s4.07-1.82,4.07-4.06c0-.9-.3-1.72-.8-2.4l10.56-7.5c.73.58,1.65.94,2.66.94,2.36,0,4.27-1.92,4.27-4.29s-1.8-4.13-4.05-4.25ZM49.76,40.78c-.12-.3-.18-.62-.18-.96,0-.21.03-.41.08-.6,0-.03.02-.06.03-.09.14-.52.44-.97.85-1.31.2-.17.42-.32.67-.42.31-.13.65-.2,1-.2h.01c.23,0,.45.04.66.1,1.13.3,1.96,1.31,1.96,2.54,0,1.45-1.18,2.62-2.63,2.62-1.11,0-2.06-.7-2.44-1.68ZM41.29,39.13l1.54-4.1,5.38,3.31c-.1.26-.17.52-.21.8h-6.7ZM38.15,53.07c0,1.33-1.08,2.41-2.42,2.41s-2.42-1.08-2.42-2.41c0-.22.04-.43.09-.63.15-.55.49-1.03.95-1.35.08-.05.16-.1.24-.14.18-.1.37-.18.58-.22.18-.04.36-.07.55-.07.13,0,.26.02.39.04.05,0,.11.02.16.03.2.05.4.13.58.22.31.17.59.4.8.68.3.4.49.9.49,1.44ZM35.73,49s-.07,0-.1.01l-3.14-8.23h6.42l-3.09,8.23s-.06,0-.09,0ZM31.87,39.13l-2.13-5.59,4.95-3.52,6.71,4.13-1.87,4.98h-7.66ZM22.88,39.13c-.04-.21-.11-.4-.18-.59l5.65-4.01,1.75,4.61h-7.22ZM20.02,42.09c-.34.18-.71.29-1.12.29-1.33,0-2.41-1.08-2.41-2.42,0-1.26.97-2.28,2.19-2.39.07,0,.15-.02.22-.02.51,0,.99.16,1.38.44.06.04.11.09.16.13.32.27.57.62.72,1.02.05.13.09.27.11.42.02.13.04.27.04.41,0,.29-.06.57-.15.83,0,.03-.01.06-.03.08-.22.53-.62.96-1.12,1.22ZM26.97,21.88c.17.33.28.71.28,1.11,0,.17-.02.33-.05.49,0,.01,0,.03-.01.04-.11.51-.4.96-.78,1.29-.03.02-.06.05-.08.07-.4.32-.9.52-1.45.53-.01,0-.02,0-.03,0,0,0,0,0,0,0-.59,0-1.12-.22-1.54-.57-.53-.44-.87-1.1-.87-1.84,0-1.33,1.08-2.41,2.42-2.41.93,0,1.73.53,2.13,1.31ZM50.13,19.69c0,.87-.47,1.63-1.16,2.06-.37.22-.79.36-1.25.36,0,0-.02,0-.02,0-.12,0-.23-.02-.35-.04-.35-.05-.67-.18-.96-.36-.09-.06-.16-.12-.24-.19-.22-.19-.41-.42-.55-.68-.08-.14-.14-.3-.19-.46-.07-.22-.11-.45-.11-.69,0-.17.02-.33.05-.49.23-1.1,1.2-1.93,2.37-1.93,1.33,0,2.41,1.08,2.41,2.42ZM45.55,23.11l-3.55,9.46-5.84-3.59,8.85-6.29c.17.16.35.3.55.42ZM44.02,21.36l-9.4,6.68-5.98-3.68c.13-.35.2-.71.23-1.09l15.04-2.19c.04.1.07.19.11.29ZM27.78,25.77l5.38,3.31-4.03,2.87-2.11-5.54c.28-.18.54-.39.76-.64ZM50.8,35.81c-.66.23-1.25.62-1.72,1.12l-5.65-3.48,3.67-9.76c.2.03.41.06.62.06.02,0,.03,0,.05,0l3.03,12.06ZM24.26,27c.19.03.38.06.57.06.22,0,.43-.03.64-.06l2.26,5.94-5.92,4.21c-.28-.29-.61-.53-.97-.73l3.41-9.42ZM22.46,41.89c.19-.34.34-.71.42-1.1h7.85l3.28,8.62c-.36.17-.69.39-.99.66l-10.57-8.17ZM37.73,49.55c-.09-.05-.19-.11-.29-.16l3.23-8.61h7.37c.09.4.25.77.44,1.12l-10.75,7.64Z" fill="#101010"/>
</svg>