<?xml version="1.0" encoding="UTF-8"?>
<svg id="Layer_1" xmlns="http://www.w3.org/2000/svg" version="1.1" viewBox="0 0 72 72">
  <!-- Generator: Adobe Illustrator 30.2.1, SVG Export Plug-In . SVG Version: 2.1.1 Build 1)  -->
  <path d="M48.78,26.36l-10.55-7.67-2.61-1.9v.09l-12.76,9.5v26.33l.33-.25-.28.31c3.62,3.23,8.43,4.91,13.28,4.91,3.23,0,6.48-.74,9.41-2.27.34-.18.67-.37,1-.56l-1.48-1.07c-.1.05-.19.12-.29.17-6.67,3.47-15.11,2.53-20.63-2.25l11.41-8.51.32.23.36.26,10.55,7.67.9.66,1.39,1.02.31.23v-26.4l-.68-.49ZM47.81,50.02l-8.87-6.45-1.68-1.22v-22.33l10.55,7.67v22.33Z" fill="#101010"/>
</svg>