<?xml version="1.0" encoding="UTF-8"?>
<svg id="Layer_1" xmlns="http://www.w3.org/2000/svg" version="1.1" viewBox="0 0 72 72">
  <!-- Generator: Adobe Illustrator 30.2.1, SVG Export Plug-In . SVG Version: 2.1.1 Build 1)  -->
  <g>
    <path d="M40.83,31.19h-17.99v-8.5h17.99v8.5ZM24.48,29.55h14.71v-5.22h-14.71v5.22Z" fill="#101010"/>
    <rect x="23.66" y="22.69" width="16.36" height="1.64" fill="#101010"/>
  </g>
  <path d="M49.01,38.05h-17.99v-8.5h17.99v8.5ZM32.66,36.41h14.71v-5.22h-14.71v5.22Z" fill="#101010"/>
  <path d="M32.66,38.05h-9.82v-8.5h9.82v8.5ZM24.48,36.41h6.54v-5.22h-6.54v5.22Z" fill="#101010"/>
  <path d="M32.66,24.33h-9.82v-8.5h9.82v8.5ZM24.48,22.69h6.54v-5.22h-6.54v5.22Z" fill="#101010"/>
  <path d="M49.02,31.19h-9.82v-15.36h9.82v15.36ZM40.84,29.55h6.54v-12.08h-6.54v12.08Z" fill="#101010"/>
  <g>
    <path d="M40.83,44.91h-17.99v-8.5h17.99v8.5ZM24.48,43.27h14.71v-5.22h-14.71v5.22Z" fill="#101010"/>
    <rect x="23.66" y="36.41" width="16.36" height="1.64" fill="#101010"/>
  </g>
  <path d="M49.02,44.91h-9.82v-8.5h9.82v8.5ZM40.84,43.27h6.54v-5.22h-6.54v5.22Z" fill="#101010"/>
  <path d="M35.92,57.17c-7.21,0-13.08-5.87-13.08-13.08h1.64c0,6.31,5.13,11.44,11.44,11.44s11.44-5.13,11.44-11.44h1.64c0,7.21-5.87,13.08-13.08,13.08Z" fill="#101010"/>
</svg>