<?xml version="1.0" encoding="UTF-8"?>
<svg id="Layer_1" xmlns="http://www.w3.org/2000/svg" version="1.1" viewBox="0 0 72 72">
  <!-- Generator: Adobe Illustrator 30.2.1, SVG Export Plug-In . SVG Version: 2.1.1 Build 1)  -->
  <path d="M29.54,41.45l-15.88,15.88,1.44,1.44,15.88-15.88c-.54-.42-1.02-.9-1.44-1.44Z" fill="#101010"/>
  <path d="M42.74,31.13l15.86-15.86-1.44-1.44-15.86,15.86c.53.42,1.02.9,1.44,1.44Z" fill="#101010"/>
  <path d="M41.86,32c.9,1.19,1.43,2.67,1.43,4.28h0c0,3.96-3.2,7.16-7.15,7.16h-.01c-1.61,0-3.09-.54-4.28-1.43l-.87.87c1.43,1.12,3.22,1.79,5.17,1.79,4.62,0,8.38-3.76,8.38-8.39,0-1.95-.67-3.73-1.79-5.16l-.88.88Z" fill="#101010"/>
  <path d="M28.98,36.3h0c0-3.96,3.2-7.16,7.15-7.16h.01c1.61,0,3.09.54,4.28,1.43l.88-.88c-1.42-1.12-3.21-1.79-5.16-1.79h-.01c-4.62,0-8.38,3.76-8.38,8.39,0,1.95.67,3.73,1.79,5.16l.88-.88c-.9-1.19-1.43-2.67-1.43-4.28Z" fill="#101010"/>
  <path d="M41.86,32l.88-.88c-.42-.53-.9-1.02-1.44-1.44l-.88.88c.54.41,1.03.89,1.44,1.44Z" fill="#101010"/>
  <path d="M30.41,40.58l-.88.88c.42.53.9,1.02,1.44,1.44l.87-.87c-.54-.41-1.03-.89-1.44-1.44Z" fill="#101010"/>
  <path d="M30.21,36.29c0-3.26,2.66-5.92,5.92-5.92h.01c1.27,0,2.43.41,3.4,1.09l.88-.88c-1.19-.9-2.67-1.43-4.28-1.43h-.01c-3.95,0-7.15,3.2-7.15,7.15h0c0,1.62.54,3.1,1.43,4.29l.89-.89c-.68-.97-1.09-2.14-1.09-3.41Z" fill="#101010"/>
  <path d="M42.07,36.3c0,3.26-2.66,5.92-5.93,5.92-1.27,0-2.43-.41-3.4-1.09l-.88.88c1.19.9,2.67,1.43,4.28,1.43h.01c3.95,0,7.15-3.2,7.15-7.15h0c0-1.62-.54-3.1-1.43-4.29l-.89.89c.68.97,1.09,2.14,1.09,3.41Z" fill="#101010"/>
  <path d="M40.43,30.57l-.88.88c.56.39,1.04.88,1.44,1.44l.89-.89c-.41-.54-.89-1.03-1.44-1.44Z" fill="#101010"/>
  <path d="M31.3,39.69l-.89.89c.41.54.89,1.03,1.44,1.44l.88-.88c-.56-.39-1.04-.88-1.44-1.44Z" fill="#101010"/>
</svg>