<?xml version="1.0" encoding="UTF-8"?>
<svg id="Layer_1" xmlns="http://www.w3.org/2000/svg" version="1.1" viewBox="0 0 72 72">
  <!-- Generator: Adobe Illustrator 30.2.1, SVG Export Plug-In . SVG Version: 2.1.1 Build 1)  -->
  <g>
    <line x1="28.56" y1="19.34" x2="55.72" y2="19.34" fill="none" stroke="#101010" stroke-miterlimit="10" stroke-width="1.64"/>
    <line x1="28.56" y1="27.4" x2="55.72" y2="27.4" fill="none" stroke="#101010" stroke-miterlimit="10" stroke-width="1.64"/>
    <line x1="28.56" y1="35.45" x2="55.72" y2="35.45" fill="none" stroke="#101010" stroke-miterlimit="10" stroke-width="1.64"/>
    <circle cx="18.25" cy="19.34" r="2.11" fill="#101010"/>
    <circle cx="18.25" cy="27.4" r="2.11" fill="#101010"/>
    <circle cx="18.25" cy="35.45" r="2.11" fill="#101010"/>
  </g>
  <g>
    <path d="M20.57,55.77c-.71,0-1.35-.12-1.92-.36s-1.04-.59-1.41-1.04-.61-.98-.72-1.6l1.29-.2c.16.63.5,1.13,1.02,1.48.51.36,1.12.53,1.82.53.45,0,.86-.07,1.22-.21.36-.14.65-.35.87-.61.22-.27.32-.58.32-.94,0-.22-.04-.41-.12-.57s-.18-.3-.31-.41c-.13-.11-.28-.21-.45-.29-.17-.08-.34-.15-.52-.2l-2.56-.76c-.28-.08-.55-.18-.81-.31s-.49-.29-.7-.48-.37-.43-.49-.7c-.12-.28-.18-.6-.18-.97,0-.59.15-1.1.46-1.52.31-.42.73-.75,1.26-.97s1.13-.33,1.79-.33,1.28.12,1.81.36c.53.23.98.57,1.33,1.01s.59.96.71,1.57l-1.32.23c-.07-.4-.22-.76-.46-1.05-.24-.3-.54-.53-.9-.69s-.75-.24-1.18-.25c-.41,0-.78.06-1.11.2s-.59.33-.79.57c-.2.24-.29.51-.29.82s.09.56.27.75.39.33.65.44c.26.11.51.2.76.27l1.91.55c.22.06.47.14.76.25s.56.26.83.45.49.45.67.77c.18.32.27.72.27,1.2s-.1.91-.29,1.29-.46.69-.81.95c-.34.26-.74.45-1.2.58-.46.13-.95.2-1.47.2h0Z" fill="#101010"/>
    <path d="M25.8,55.56v-10.05h3.92c.6,0,1.11.12,1.54.37.43.25.75.57.98.97s.34.84.34,1.3c0,.55-.14,1.03-.42,1.44s-.66.69-1.13.84v-.34c.63.17,1.14.49,1.49.95s.54,1.01.54,1.65c0,.59-.12,1.09-.36,1.52s-.58.76-1.03,1-.98.36-1.6.36h-4.27ZM27.06,49.7h2.65c.29,0,.56-.06.8-.19s.43-.31.58-.54c.14-.23.21-.5.21-.82,0-.43-.15-.79-.44-1.06-.3-.27-.68-.41-1.15-.41h-2.65v3.02h0ZM27.06,54.37h2.77c.37,0,.71-.07,1-.21.29-.14.52-.33.69-.58s.25-.55.25-.91-.08-.64-.23-.91c-.15-.27-.37-.49-.64-.65-.27-.16-.59-.24-.94-.24h-2.91v3.5h.01Z" fill="#101010"/>
    <path d="M38.58,55.77c-1,0-1.85-.22-2.55-.66-.7-.44-1.23-1.06-1.6-1.84-.37-.79-.55-1.7-.55-2.73s.18-1.94.55-2.73.9-1.4,1.6-1.84,1.55-.66,2.55-.66,1.86.22,2.56.66,1.23,1.06,1.59,1.84.54,1.7.54,2.73-.18,1.94-.54,2.73c-.36.79-.89,1.4-1.59,1.84-.7.44-1.55.66-2.56.66ZM38.58,54.58c.75,0,1.37-.16,1.87-.51.5-.34.87-.82,1.12-1.43s.38-1.32.38-2.12-.13-1.5-.38-2.11-.63-1.08-1.12-1.42-1.12-.51-1.87-.52c-.75,0-1.37.16-1.87.5s-.87.82-1.12,1.43-.38,1.32-.38,2.12.12,1.5.37,2.11c.25.6.63,1.08,1.13,1.42.5.34,1.12.52,1.87.52h0Z" fill="#101010"/>
    <path d="M44.67,55.56v-10.05h1.13l3.8,8.01,3.78-8.01h1.15v10.05h-1.18v-7.32l-3.42,7.32h-.66l-3.41-7.32v7.32h-1.19Z" fill="#101010"/>
  </g>
</svg>