<?xml version="1.0" encoding="UTF-8"?>
<svg id="Layer_1" xmlns="http://www.w3.org/2000/svg" version="1.1" viewBox="0 0 72 72">
  <!-- Generator: Adobe Illustrator 30.2.1, SVG Export Plug-In . SVG Version: 2.1.1 Build 1)  -->
  <g>
    <polyline points="16 18.57 16 16.57 18 16.57" fill="none" stroke="#101010" stroke-miterlimit="10" stroke-width="2"/>
    <line x1="21.98" y1="16.57" x2="51.87" y2="16.57" fill="none" stroke="#101010" stroke-dasharray="3.98 3.98" stroke-miterlimit="10" stroke-width="2"/>
    <polyline points="53.86 16.57 55.86 16.57 55.86 18.57" fill="none" stroke="#101010" stroke-miterlimit="10" stroke-width="2"/>
    <line x1="55.86" y1="22.55" x2="55.86" y2="52.44" fill="none" stroke="#101010" stroke-dasharray="3.98 3.98" stroke-miterlimit="10" stroke-width="2"/>
    <polyline points="55.86 54.43 55.86 56.43 53.86 56.43" fill="none" stroke="#101010" stroke-miterlimit="10" stroke-width="2"/>
    <line x1="49.88" y1="56.43" x2="19.99" y2="56.43" fill="none" stroke="#101010" stroke-dasharray="3.98 3.98" stroke-miterlimit="10" stroke-width="2"/>
    <polyline points="18 56.43 16 56.43 16 54.43" fill="none" stroke="#101010" stroke-miterlimit="10" stroke-width="2"/>
    <line x1="16" y1="50.44" x2="16" y2="20.56" fill="none" stroke="#101010" stroke-dasharray="3.98 3.98" stroke-miterlimit="10" stroke-width="2"/>
  </g>
  <g>
    <polygon points="40.57 45.09 40.57 33.8 30.79 28.15 21.01 33.8 21.01 45.09 30.79 50.74 40.57 45.09" fill="none" stroke="#101010" stroke-miterlimit="10" stroke-width="1.65"/>
    <polygon points="40.57 34.16 40.57 33.8 30.79 28.15 21.01 33.8 21.01 34.16 30.79 39.81 40.57 34.16" fill="none" stroke="#101010" stroke-miterlimit="10" stroke-width="1.65"/>
    <line x1="30.79" y1="28.15" x2="30.79" y2="50.74" fill="none" stroke="#101010" stroke-miterlimit="10" stroke-width="1.65"/>
  </g>
  <g>
    <polyline points="40.57 45.08 50.35 39.44 50.35 28.14 40.57 22.5 30.79 28.14 30.79 39.44" fill="none" stroke="#101010" stroke-miterlimit="10" stroke-width="1.65"/>
    <polygon points="50.35 28.51 50.35 28.14 40.57 22.5 30.79 28.14 30.79 28.51 40.57 34.16 50.35 28.51" fill="none" stroke="#101010" stroke-miterlimit="10" stroke-width="1.65"/>
    <line x1="40.57" y1="22.5" x2="40.57" y2="45.08" fill="none" stroke="#101010" stroke-miterlimit="10" stroke-width="1.65"/>
  </g>
</svg>