<?xml version="1.0" encoding="UTF-8"?>
<svg id="Layer_1" xmlns="http://www.w3.org/2000/svg" version="1.1" viewBox="0 0 72 72">
  <!-- Generator: Adobe Illustrator 30.2.1, SVG Export Plug-In . SVG Version: 2.1.1 Build 1)  -->
  <path d="M50.64,36.65c0,7.99-6.47,14.46-14.46,14.46" fill="none" stroke="#101010" stroke-miterlimit="10" stroke-width="2"/>
  <path d="M21.72,36.65c0-7.99,6.47-14.46,14.46-14.46" fill="none" stroke="#101010" stroke-miterlimit="10" stroke-width="2"/>
  <path d="M44.68,36.65c0,4.7-3.81,8.51-8.51,8.51" fill="none" stroke="#101010" stroke-miterlimit="10" stroke-width="2"/>
  <path d="M27.67,36.65c0-4.7,3.81-8.51,8.51-8.51" fill="none" stroke="#101010" stroke-miterlimit="10" stroke-width="2"/>
  <path d="M35.93,56.68c11.14,0,20.18-9.03,20.18-20.18" fill="none" stroke="#101010" stroke-miterlimit="10" stroke-width="2"/>
  <path d="M35.93,16.32c-11.14,0-20.18,9.03-20.18,20.18" fill="none" stroke="#101010" stroke-miterlimit="10" stroke-width="2"/>
  <g>
    <path d="M50.2,50.77c6.84-6.84,7.74-17.37,2.71-25.18" fill="none" stroke="#101010" stroke-miterlimit="10" stroke-width="2"/>
    <polygon points="55.73 24.5 50.2 22.23 51 28.16 55.73 24.5" fill="#101010"/>
  </g>
  <g>
    <path d="M21.66,22.23c-6.84,6.84-7.74,17.37-2.71,25.18" fill="none" stroke="#101010" stroke-miterlimit="10" stroke-width="2"/>
    <polygon points="16.12 48.5 21.66 50.77 20.86 44.84 16.12 48.5" fill="#101010"/>
  </g>
  <circle cx="36.18" cy="36.65" r="2.76" fill="none" stroke="#101010" stroke-miterlimit="10" stroke-width="2"/>
</svg>